<svg xmlns="http://www.w3.org/2000/svg" width="993" height="408" viewBox="0 0 993 408"><g fill="#000a26"><path d="M100 399.5c0-2.2.4-2.5 3.5-2.5s3.5.3 3.5 2.5-.4 2.5-3.5 2.5-3.5-.3-3.5-2.5m20 0c0-2.2.4-2.5 3.5-2.5s3.5.3 3.5 2.5-.4 2.5-3.5 2.5-3.5-.3-3.5-2.5m8 0c0-2.5 0-2.5 9.5-2.5s9.5 0 9.5 2.5 0 2.5-9.5 2.5-9.5 0-9.5-2.5m184-14V380h-9v4c0 3.9-.1 4-3.5 4H296v-16h10.6l-.4-4c-.4-3.5-.2-4 1.7-4s2.1-.6 2.1-5.5V353h8c7.9 0 8 0 8-2.5 0-2.2.4-2.5 3.5-2.5s3.5.3 3.5 2.5c0 2.4.3 2.5 5.5 2.5h5.5v4c0 3.3-.3 4-2 4-1.1 0-2 .7-2 1.5 0 1.1-1.2 1.5-4.6 1.5h-4.7l.5-4.5c.5-4.2.4-4.5-1.8-4.5-1.9 0-2.4.5-2.4 2.5 0 1.8-.5 2.5-2 2.5-1.1 0-2 .5-2 1 0 .6-1.1 1-2.5 1-1.8 0-2.5.5-2.5 1.9s-.8 2.1-2.7 2.4c-1.6.2-.2.5 3 .6l5.7.1v3.5c0 2.4.5 3.5 1.5 3.5 1.1 0 1.5 1.1 1.5 4 0 3.7-.2 4-2.9 4-2.5 0-3 .5-4.1 4.5-1.2 4.2-1.5 4.5-4.6 4.5H312zm-206-7.2c0-8.9-.7-10.3-4.5-10.3-6.1 0-9.5-1.1-9.5-3.1 0-1.4-.7-1.9-3-1.9-2.9 0-3-.2-3-4.5 0-2.7.5-4.7 1.4-5.2.8-.4 1.5-1.7 1.7-2.8.3-1.5 1.3-2.1 4.2-2.3l3.7-.3v4.9c0 4.9 0 4.9 3.8 5.6 6.8 1.1 7.2.9 7.2-2.9 0-2.4.5-3.5 1.5-3.5.8 0 1.5-.7 1.5-1.5 0-.9 1-1.5 2.3-1.6 1.6-.1 1.8-.2.5-.6-1.1-.3-1.8-1.4-1.8-2.9s-.6-2.4-1.5-2.4c-1 0-1.5-1.1-1.5-3.5 0-1.9.5-3.5 1-3.5.6 0 1-.9 1-2 0-1.6.7-2 3.5-2 1.9 0 3.5.5 3.5 1 0 .6.9 2 2 3.2l2 2.2v-2.3c0-1.2.7-3.5 1.5-5.1 1.3-2.5 2.2-3 5-3 2.4 0 3.5.5 3.5 1.5 0 .8.5 1.5 1 1.5.6 0 1-.4 1-1 0-.5 1.6-1 3.5-1 3.4 0 3.5.1 3.5 4 0 2.7-.4 4-1.4 4-1.1 0-2.6 4-2.6 6.9 0 .4 1.8.5 4 .3 3.9-.4 4-.3 4 2.8 0 4-2 6-5.9 6-3 0-3.1-.2-3.2-4.2 0-2.4-.3-3.7-.6-3-.2.6-1.1 1.2-1.9 1.2s-1.4 1-1.4 2.5c0 1.8-.5 2.5-1.9 2.5-1.6 0-1.8.6-1.3 4.5.4 4.1.3 4.5-1.7 4.5-1.4 0-2.1.6-2.1 2 0 1.6-.7 2-3.5 2s-3.5-.4-3.5-2-.7-2-3-2c-3.4 0-3.4-.1-1.8 5.1.8 2.8 1.7 3.9 3.1 3.9 1.8 0 1.9.5 1.3 6.2-.4 3.4-1 6.6-1.2 7-.3.4-2.7.8-5.5.8H106z"/><path d="M88 379.3c0-7.6.6-8.3 6.6-8.3h5.4v12H88zm262.3-18c-1.9-.4-2.3-1.1-2.3-4.2 0-3.7.2-3.9 3.8-4.5 8-1.3 8.3-1.1 8 4.2-.3 4.6-.4 4.7-3.8 4.8-1.9.1-4.5 0-5.7-.3M88.6 338.4c-1-2.5-.7-9.4.4-9.4.6 0 1-1.3 1-3 0-2.8.2-3 4-3h4v4c0 2.2.5 4 1 4 .6 0 1 2 1 4.5v4.5h-5.4c-4 0-5.5-.4-6-1.6m252-21.6c-1.7-6.5.2-9.8 5.6-9.8 6.3 0 7.8.9 7.8 4.6 0 3.1-.3 3.4-3 3.4-2.3 0-3 .4-3 2s-.7 2-3.4 2c-2.6 0-3.5-.5-4-2.2M95 259.6c0-3 .4-3.4 3.1-4 1.7-.3 9.8-.6 18-.6H131v8H95zm79-6.6v-4h9v8h-9zm78.6-50.2c-.3-1.3-.6-3.5-.6-5 0-2.5.3-2.8 3.5-2.8 1.9 0 3.5.5 3.5 1 0 .6.7 1 1.5 1 1.1 0 1.5 1.1 1.5 4v4h-4.4c-3.7 0-4.5-.4-5-2.2m15.4-4.3V194h6c8.2 0 11 1.4 11 5.7v3.3h-17zm98.8 3.8c-1.3-.3-1.8-1.5-1.8-3.9V195h11v4c0 4 0 4-3.7 3.9-2.1-.1-4.6-.3-5.5-.6M247 184.6c0-3 .4-3.4 3.1-4 7-1.4 7.9-1 7.9 3.4v4h-11zm21-3.1v-4.6l5.8.3 5.7.3.3 3.6c.3 3.4.1 3.7-2.9 4.3-1.7.3-4.4.6-6 .6-2.8 0-2.9-.2-2.9-4.5m113.7 1.8c-.4-.3-.7-2.2-.7-4 0-3.3.1-3.4 3.8-3.1 3.5.3 3.7.5 4 4.1s.2 3.7-3.1 3.7c-1.8 0-3.7-.3-4-.7M606 144c0-1.3.7-2 2-2 1.8 0 1.9.3 1 2-.6 1.1-1.5 2-2 2-.6 0-1-.9-1-2m-266.8-30.7c-2-.4-2.3-1-2-4.1.3-3.5.5-3.7 4.1-4 2.1-.2 3.7.1 3.7.7s.9 1.1 2 1.1c1.6 0 2 .7 2 3.5 0 3.4-.1 3.5-3.7 3.4-2.1-.1-4.8-.4-6.1-.6M302 109c0-4 0-4 3.9-4 5.9 0 7.1.8 7.1 4.6v3.4h-11z"/></g><g fill="#000f33"><path d="M290 405.1c-2-1-3.6-2.7-3.8-4-.2-1.1-.8-2.1-1.3-2.1s-.9-14.5-.9-36v-36h8.8l.6 9.3c.4 5 .6 20.3.4 33.9-.1 15.4.1 25.1.7 25.7s13.1 1.1 32 1.1c29.7.2 31.1.1 33.2-1.8 2.3-2 2.3-2.1 2.3-32.9 0-24.6-.3-31.3-1.4-32.8-1-1.3-3-2-7.5-2.3l-6.1-.4v-3.9c0-2.1.3-4 .8-4.2.4-.3 6.1-.6 12.7-.8l12-.4 1.7 3.5c1.6 3.1 1.8 6.9 1.8 32.8 0 28-.1 29.2-1.9 29.2-1.7 0-1.9.9-2.2 8.4-.3 6.6-.8 8.9-2.4 10.6-4.2 4.8-6.2 5-42.2 5-31.1 0-34.1-.2-37.3-1.9m-214.9-4.9c-4.3-2.3-7.1-7.4-7.1-12.9 0-2.8-.5-4.3-1.2-4.3s-.5-.5.5-1.1c1.6-.9 1.7-3.6 1.7-32.9 0-20.7-.4-32-1-32-.5 0-1-1.6-1-3.5 0-3.3.2-3.5 3.5-3.5 2.8 0 3.5.4 3.5 2 0 1.1.5 2 1 2 .6 0 1-.4 1-1 0-.5 1.6-1 3.5-1 3.3 0 3.5.2 3.5 3.5 0 2.8-.4 3.5-2 3.5-1.9 0-2 .7-2.1 21.8-.1 42.1.1 48.5 1.8 50.4 1.4 1.6 4.4 1.7 33.3 1.5 31.6-.2 31.8-.2 33.8-2.4 3.6-4.2 13.2-2.1 11.5 2.5-1.4 3.8-3.9 6.5-7 7.8-3.8 1.6-8.3 1.8-8.3.4 0-.5-1.1-1-2.5-1s-2.5.5-2.5 1c0 .6-1.1 1-2.5 1s-2.5-.6-2.5-1.2c0-1-.3-.9-.9.1-.7 1.1-.9 1.1-1.4 0-.4-1-.6-1-.6-.1-.1.7-1.5 1.2-3.5 1.2-1.9 0-3.7-.6-3.9-1.2q-.6-1.5-.6 0c-.1.9-2.7 1.2-9.5 1.2-6.6 0-9.6-.4-9.9-1.2q-.6-1.5-.6 0c-.1.9-3.3 1.2-12.4 1.2-9.9 0-12.9-.3-15.6-1.8"/><path d="M296 387.8c0-4.6.3-10 .6-12 .6-3.7.8-3.8 5-3.8 5 0 5.9-1.5 1.4-2.5-2.6-.6-3-1.1-3-4.1 0-2.7-.4-3.4-2-3.4-1.9 0-2-.7-2-15.5V331h6.8c3.7 0 9.1-.3 12-.7 4.9-.5 5.4-.4 5.9 1.6.6 2.3 4.3 3 4.3.7 0-1.1 3.5-1.4 16.8-1.8 9.2-.3 16.8-.4 17-.2.2.1.6 4.5.9 9.6.7 11.1-.2 18.8-2.2 18.8-.8 0-1.1-.7-.8-1.8.4-1.6 0-1.8-2.6-1.4-3.4.5-4.3 2.2-1.1 2.2 1.3 0 1.8.5 1.4 1.5-.5 1.1.1 1.5 2 1.5 2.2 0 2.6.4 2.6 3.1 0 1.8-.5 4.9-1.1 7-1.1 3.4-1.6 3.8-4.8 4.2-3.2.3-3 .4 1.1.5 2.6.1 5 .7 5.3 1.2.3.6.3 4.2-.1 8l-.7 7h-3.3c-2.4 0-3.4.5-3.4 1.5 0 1.1-1.1 1.5-4.1 1.5-3.2 0-4.2-.4-4.6-2-.3-1.1-.9-2-1.3-2s-1 .9-1.3 2c-.4 1.7-1.4 2-6.6 2H328v-4.5c0-3.8.3-4.5 2-4.5 1.1 0 2-.6 2-1.2 0-.9-1.8-1.3-5.5-1.3h-5.4l-.3 6-.3 6-12.2.3-12.3.3zm20.4-4.9c-.3-.5 0-.9.5-.9 1.3 0 1.5-4.9.3-6.7-.8-1.3-10.6-1.3-11.8 0-1.4 1.3.8 2.2 5.2 2l4.4-.1.1 5.6c0 4.6.2 5.2 1 3.4.5-1.3.7-2.8.3-3.3m23.5-10.8c-1.5-.5-2.2.6-1.4 1.9.6.9 1 .9 1.6-.1.5-.8.4-1.5-.2-1.8m-19-1.6c.9-1-8.4-.4-9.9.5-1 .6.3.8 4 .4 3-.3 5.6-.7 5.9-.9m23.5-10.6c-.8-1.4-3.4-1-3.4.5 0 .9.7 1.2 2 .9 1.1-.3 1.7-.9 1.4-1.4m-24.4-1.8c0-.5 1-1.2 2.3-1.4 1.2-.2-.4-.5-3.5-.6-4.7-.1-5.6.2-5.2 1.4.7 1.6 6.4 2.1 6.4.6m21-1.1c0-.5-1.5-1-3.2-.9-2.8 0-3 .2-1.3.9 2.8 1.2 4.5 1.2 4.5 0m5-6c0-1.1-.4-2-1-2-.5 0-1 .9-1 2s.5 2 1 2c.6 0 1-.9 1-2M81.7 388.3c-.4-.3-.7-3-.7-6V377h3.5c3.1 0 3.5-.3 3.5-2.5 0-2.1-.5-2.5-3-2.5h-3v-7c0-5.6.3-7 1.5-7 1.9 0 1.9-1.7.1-3.6-2.6-2.5-3.5-27.6-1.1-31.3.4-.8 10.7-1.1 32.6-1l31.9.2V353l-2.7.1c-2.1.1-2.3.2-.8.6 3.4.8 3.7 1.9 3 8.2-.6 5.1-1 6-2.8 6.4-1.8.3-1.7.5.6.6 2.6.1 2.7.3 2.7 5.1 0 4.3-.3 5-2 5-1.6 0-2 .7-2 3v3h-9.1c-8.2 0-9.1.2-9.6 2-.9 3.5-10.2 2.3-10.4-1.4 0-1.1-.3-1.5-.6-.8-.2.6-1.5 1.2-2.8 1.2-1.2 0-2.5.7-2.9 1.5-.4 1.2-2.8 1.5-12.9 1.5-6.8 0-12.7-.3-13-.7m13.1-7.9c2.6-.7 3-3.3.5-3.5-1.7-.1-1.7-.2 0-.6 2.5-.7 2.1-2.3-.7-2.3-1.9 0-2.6.7-3.1 2.9-.3 1.7-1.4 3.2-2.3 3.4-1.1.3-.8.5.8.6 1.4 0 3.5-.2 4.8-.5m19-1.1c.2-.8-.6-1.3-2.2-1.3-1.7 0-2.6.5-2.6 1.6 0 1.9 4.1 1.6 4.8-.3m-2.8-7c-.1-2.1-1.3-5.3-2.1-5.3-.5 0-.4 1.1.1 2.4s.6 2.7.3 3c-.4.3-.1.6.5.6.7 0 1.2-.3 1.2-.7m-4.2-8c-1-.2-1.8-.8-1.8-1.3 0-.4-1.5-1-3.3-1.2-2.7-.3-3.3 0-3 1.2.3 1 1.8 1.5 5.1 1.7 2.6.1 3.9-.1 3-.4M92 357.9c0-2.4-2.3-2.1-2.8.4-.2 1 .3 1.7 1.2 1.7 1 0 1.6-.9 1.6-2.1m23.6-1.1c.4-.7.3-.8-.4-.4s-1.2.2-1.2-.3c0-.6-.7-1.1-1.5-1.1-1.8 0-2 1.6-.2 2.3 2 .9 2.5.8 3.3-.5M94 352.9c0-1.1-.4-1.7-1-1.4-.5.3-1 1.3-1 2.1s.5 1.4 1 1.4c.6 0 1-.9 1-2.1m30.7-1.5c.3-.9 0-2-.8-2.6-1-.7-.4-.8 1.9-.5 1.9.2 2.9 0 2.4-.5s-2.9-.8-5.3-.6c-4 .3-4.4.6-4.7 3.1-.3 2.4 0 2.7 2.8 2.7 1.9 0 3.3-.6 3.7-1.6m-6.7-8.6c0-3.9-1.5-5.3-4.2-4.1-1.8.9-1.9 1.2-.5 1.2 1.1.1 1.7.9 1.7 2.6 0 1.6.6 2.5 1.5 2.5s1.5-.9 1.5-2.2m14.6-.3c1.4-1.3 1.3-1.5-1-1.5-2.8 0-4.2-3.1-3.4-7.5.7-3.3.4-3.2-1.9.8-2.6 4.3-1.2 9.7 2.4 9.7 1.4 0 3.1-.7 3.9-1.5m2.4-6.6c0-2.4-2.3-2.1-2.8.4-.2 1 .3 1.7 1.2 1.7 1 0 1.6-.9 1.6-2.1m-38-.4c0-.8-.7-1.5-1.5-1.5s-1.5-.4-1.5-1c0-.5-.7-1-1.5-1-1.6 0-1.9.9-.9 3.4.8 2.1 5.4 2.1 5.4.1"/><path d="M219.9 379.8c-1.7-2.4-3.3-4.9-3.6-5.6-.3-.8-1.4-1.1-2.4-.9-1.4.4-1.9 0-1.9-1.3 0-1.1-.4-2.2-1-2.5-.5-.3-1-1.9-1-3.5 0-1.5-.4-3-.8-3.2-1-.4-5-14.3-5.8-20.3-.4-2.5-1-4.5-1.4-4.5-.5 0-1.4-3.1-2.1-7-.7-3.8-1.6-7-2.2-7-.5 0-.7-1.8-.5-4 .2-2.8 0-4-.9-4-.8 0-1.3-1.3-1.3-3.5 0-3.2.2-3.5 3-3.5 3.1 0 3.7-1.3 2-4-.6-1-1-1.1-1-.2 0 .7-1.4 1.2-3.4 1.2-3.2 0-3.5-.2-4.1-4-.6-3.3-1.1-4-3-4-3.1 0-17.5 2.9-20 4-2.3 1-16 2.6-31.3 3.6-7.7.5-10.5 1-11.1 2.2-.6 1-.4 2.1.5 3 .8.7 1.4 2.9 1.4 4.8v3.4h-25v-3.5c0-1.9.4-3.5.9-3.5s1.3-.9 1.6-2.1c.5-1.4 0-2.6-1.5-3.9-1.9-1.6-2.2-2.7-1.7-6 .3-2.2.1-4-.4-4s-.9 1.4-.9 3.1c0 5.8-1.5 6.3-16.8 5.5-14.1-.7-30.7-3-44.7-6.4-8.1-1.9-13.3-5.3-14.8-9.4-.8-2.2-2.3-2.3-3.1-.2-.4 1.1-.9 1.2-1.8.4-.7-.6-2.8-2-4.7-3.3-7.2-4.7-7.6-5.9-7.6-24.7v-16.9l3.5-3.6c2.1-2.2 5.2-4.1 7.8-4.8l4.2-1.1v-52.8c0-33.2.4-55.5 1.1-60.1l1.1-7.4-3.1-4.3c-7.1-9.8-10.4-25.3-10.4-49 0-16.5 1-25.5 4-36.2 1.8-6.6 4.3-7.9 4.3-2.3 0 2.4.5 3.5 1.5 3.5 1.6 0 1.3-4-.7-9.2-.8-2.2-.6-3.2 1.1-5.7C26.6 4.6 33.2 1 40.5 1c9.2.1 22.3 12.1 32.2 29.6C81.1 45.4 81 45 76.6 45c-2.5 0-3.6.4-3.6 1.5 0 1-1.1 1.5-3.5 1.5-3.9 0-7.1-2.7-8-7.1-.3-1.5-1.3-3-2.1-3.3S58 36.1 58 35s-.4-2-.8-2c-.9 0-7.5-8.7-8.4-11.1-.8-2.1-9.1-6.1-11-5.4-.8.3-2.1 1.7-2.8 3.1-.8 1.3-2.2 2.4-3.4 2.4-1.8 0-2.1.6-2.2 4.8-.1 2.6-.8 9-1.7 14.2S26 51.1 26 51.8c0 .6-.7 1.2-1.5 1.2-1.1 0-1.5 1.2-1.5 5s.4 5 1.5 5 1.5 1.2 1.5 4.5c0 5.3 3.4 23.5 4.9 26.4.6 1.1 1.1 2.9 1.1 4 0 1.8.6 2.1 3.9 2.1 2.3 0 4.6.7 5.5 1.6 2.4 2.3 2 8.8-1.1 17.3l-2.8 7.6-.3 54.3c-.2 38 0 54.7.7 55.6.6.7 3.6 1.6 6.6 2 3.1.3 7.4 1.3 9.8 2.1 2.3.8 6.7 1.7 9.7 2 13.9 1.4 14 1.5 14 3.9 0 5.1 10.4 7 36.1 6.7 10.1-.1 17.7-.7 21.3-1.6 3.2-.8 6.6-1.5 7.6-1.5 1.6 0 2-.7 2-3 0-2.7.3-3 3.3-3 1.7 0 5.6-.3 8.5-.6 4.9-.6 5.2-.6 5.2 1.6s.1 2.3 8.3 1.6c14.7-1.1 19.7-1.8 19.7-2.7 0-.5-.8-.9-1.9-.9-1.7 0-1.9-1.8-2.6-37.9-.4-20.9-.5-38.3-.2-38.8 1.2-1.9-1.4-36.1-3.3-43.5-2.4-9.4-2.6-13.8-.5-13.8.9 0 1.7-1.4 2.1-3.9.6-3.6 1-4 5-5.1 2.3-.7 5.1-2.1 6-3.1 1.6-1.8 1.6-1.9-1.6-1.9h-3.3l.7-5.7c.4-3.2 1.1-9.8 1.6-14.8.5-4.9.9-9.1.9-9.2.1-.2 1.6-.3 3.5-.3 3.1 0 3.5.3 4 3.3.2 1.7.2-2.6 0-9.8-.3-7.1-.7-13.1-.9-13.3-.2-.3-2.4-.7-5-.9-4.2-.5-4.5-.8-4.5-3.5 0-4.4-5.7-18.3-9-21.8-2.4-2.5-3.4-3-5.7-2.4-1.5.4-3 1-3.3 1.4-2.5 3.3-8.7 10.6-9.2 10.8s-.8 1-.8 1.8c0 .9-1.1 1.4-3 1.4-2.1 0-4.1-1.2-7-4l-4.1-4 3.2-4.6c4.9-7.2 8.6-11 13.9-14.4 12.9-8.3 26-3.1 33.6 13.5 6.4 14 9.3 36.6 7.4 58.6-1.3 16-3.2 24.4-7.2 32.1-2.9 5.4-2.9 5.9-1.8 11 1.3 5.7 2.8 52.9 2.9 91.9l.1 23.6 3.6.6c5.6.9 10.4 5.1 10.4 9 0 1.8-.7 4-1.5 5.1-1.5 1.9-3.6 1.9-12.2.1-2.6-.6-3.3-.4-3.3.8 0 1.7-8.7 4.7-13.9 4.7-1.7 0-3.1.4-3.1.8 0 1-17.9 3.7-33.5 5.1-14.3 1.3-28.5 1.3-28.5-.1 0-.7-2.4-.8-8.2-.3-24.5 2.2-55.2-1.4-80.7-9.4-3.6-1.1-6.8-1.8-7.3-1.5-.4.3-.8 5.2-.8 11 0 9.3.2 10.5 2 11.6 1.1.7 2 1.8 2 2.4 0 1.6 4.5 3.2 11.5 4 3.3.3 6.5 1 7 1.4.6.4 3.7 1 6.9 1.3 3.3.3 6.2 1 6.5 1.4.6.9 18 3.3 23.3 3.3 1.4 0 2.8.5 3 1.1.3.8 1.6 1 4.1.5l3.7-.7v-12l4.3.3c3.3.2 4.6-.2 6.2-1.9 2.5-2.8 9-6.3 11.5-6.3 1.2 0 2-.7 2-1.6 0-1.7 2.1-1.6 10.8.2 5.8 1.2 11.2 10.3 11.2 18.8v2.6l10.5-.7 10.5-.6v3.1c0 1.8.5 3.2 1 3.2.6 0 1-.4 1-1 0-.5 1.1-1 2.4-1 1.6 0 2.7-.7 3.1-2 .9-2.8 6.9-5.5 21.5-9.6 6.9-2 13.3-4.3 14.3-5.1 1.1-1.1 1.7-3.1 1.7-6.2 0-7.7.8-9.1 4.6-9.1 1.9 0 3.4-.4 3.4-1 0-.5 1.4-1 3-1h3v9.7c0 12-2.1 17.2-8.2 20.6-3.9 2.2-3.9 2.3-3.4 6.7.3 2.5 2.7 11.9 5.4 21s6.7 23.1 8.7 31.3c4 15.3 5.8 18.1 7 10.6 1.2-6.8 7-10.6 12.9-8.3 2.5 1 2.9 6.7 1.2 15.1-.9 4.3-1.9 8.8-2.2 10.1-.2 1.3-1.2 2.2-2.3 2.2-1 0-2.9 1.7-4.2 3.8-1.8 2.8-3.2 3.8-5.6 4-2.8.3-3.6-.3-6.4-4m-101.7-90.3c2.1-3.8 1.5-6.6-1.9-8.2-4.7-2.2-9.3 2.1-8.5 8 .4 3.8.5 3.8 4.5 3.5 3.4-.2 4.4-.9 5.9-3.3M121 259c0-1.2-17.3-1.2-21 0-1.6.5 1.8.8 9.3.9 7.2.1 11.7-.3 11.7-.9m7 0c0-.5-.7-1-1.5-1s-1.5.5-1.5 1c0 .6.7 1 1.5 1s1.5-.4 1.5-1m52-6c0-.5-.7-1-1.5-1s-1.5.5-1.5 1c0 .6.7 1 1.5 1s1.5-.4 1.5-1M3 375c-1.1-1.1-2-2.4-2-3 0-.9 12.1-52.5 15.1-64.3 1.2-5 3.1-6 4.9-2.7.6 1.1 1.7 2 2.5 2s1.7 1.1 2.1 2.4c.3 1.4 1.2 2.7 2 3 1.5.6 2 7.6.5 7.6-.9 0-3.1 9.8-3.1 14.2 0 1.5-.4 2.8-1 2.8-.5 0-1 1.4-1 3.2 0 3.6-2.5 13.7-4.6 18.5-.8 1.7-1.4 4.6-1.4 6.5 0 5.2-1 7.8-3.1 7.8-1.1 0-2.8.9-3.9 2s-2.7 2-3.5 2-2.4-.9-3.5-2"/><path d="M149 348.7c0-19.9-.3-27.6-1.2-28.5-.7-.7-4-1.2-8-1.2H133v-3.1c0-3 3-6.9 5.2-6.9.4 0 .8-.7.8-1.5 0-1.2 1.6-1.5 8.8-1.5 7.9 0 9 .2 10.8 2.3 4.2 4.9 4.4 5.9 4.4 28.7v22h-7v17h-7zm266.3 16.8c-.7-.8-1.3-2.8-1.3-4.5 0-1.6-.4-3-.8-3-.9 0-4.2-13.2-4.2-16.8 0-1.2-.8-3.4-1.7-4.9-1.2-1.7-1.8-5.3-2.1-11.2l-.4-8.7 3.6-3.7c6.6-6.8 6.5-7 14 23.6 3.6 14.9 6.6 27.7 6.6 28.3s-2.1 1.4-4.6 1.8c-6.5.8-7.7.7-9.1-.9m-181.8-24.7c-1.3-9.3-1-13 2.3-28.3l3.3-15-3-2.5c-4.7-4-5.1-5.8-5.1-21.5 0-15.2.7-18.5 4-18.5 1 0 2.2-.4 2.5-1 .3-.5 2.6-1 5.1-1 2.4 0 4.4.5 4.4 1 0 .6 1.4 1 3 1 1.7 0 3-.4 3-1 0-.5 1.6-1 3.5-1 2.9 0 3.6.4 4.1 2.6.6 2.2 3.7 4.4 6.4 4.4.5 0 1-1.2 1.2-2.7.3-2.5.7-2.8 4.6-3.1 2.5-.2 4.2.1 4.2.7 0 .7 2.6 1.1 6.5 1.1 3.7 0 6.5.4 6.5 1s1.1 1 2.5 1c1.6 0 2.5.6 2.5 1.5s.8 1.8 1.8 2.2c.9.3 2.3 1.1 3.1 1.7s4.4 1.6 8 2.1c8.3 1.3 32.9.4 33.9-1.1.5-.8 5.3-1.1 14.4-1.1 9.5.1 14.2-.3 15-1.1.7-.7 2.2-1.2 3.5-1.2 1.9 0 2.3-.5 2.3-2.9 0-3.8.6-4.1 8.8-4.9l6.7-.7-.3-7.5c-.1-4.1-.7-7.9-1.2-8.4-.6-.6-1-2-1-3.3 0-2.8.1-2.8-5.6.2-4.8 2.5-14.3 3.5-17.2 1.7-.7-.5-1.5-3.2-1.9-6.2l-.6-5.3 5.4.5c7.9.8 9.9-.2 9.9-5.2 0-3.6.2-4 2.5-4 1.6 0 2.5-.6 2.5-1.6 0-.8 1.2-3.1 2.6-5 1.5-1.9 2.2-3.4 1.8-3.4-4.2-.1-22.9-3.1-23.6-3.8-.5-.5-.8-2.9-.6-5.3l.3-4.4 7-.3c9.9-.5 30.5 1.8 30.5 3.3s2.2 2.5 5.6 2.5c1.7 0 2.4.5 2.4 2 0 1.1.8 2.3 1.8 2.7 7.4 2.7 20.2 9.4 20.2 10.7 0 2.8-1.9 2.7-9.2-.8-4-1.9-9.3-4-11.7-4.7-4.1-1.2-4.4-1.2-6.2 1.2-5.4 7.1-5.5 7.6-2.5 20.5 4.7 20.3 4 18.6 9.6 21.2 7.7 3.5 8.6 5.7 9.4 22.7.7 13.1.5 14.7-1.2 18.2-1.1 2.1-3.4 4.6-5.1 5.6s-3.1 2.5-3.1 3.3c0 1.6-1.4 1.8-4 .4-1.6-.8-1.9-.4-2.5 3.6l-.6 4.5-4.7-.1c-9.4-.2-21.2 1.2-21.2 2.5 0 1.7-16.5 3.9-30 3.9l-10.5.1V310c0-4 .3-4.5 2.5-4.9 1.4-.1 2.8-.8 3.2-1.4.5-.8 6.6-1.4 17.4-1.8 10-.4 16.9-1 17.2-1.7.4-.5 2.6-1.8 5-2.7 3.5-1.4 4.2-2.2 4.2-4.4 0-2.5.5-2.8 7.2-4.4 3.9-.9 7.4-2 7.7-2.4.3-.5 1.5-1.3 2.6-1.9 1.6-.9 2.1-2.3 2.3-7.5.4-8.1-.5-12.9-2.3-12.9-.8 0-1.5.5-1.5 1.1 0 .8-1.5 1-4.5.7-3.8-.5-4.5-.3-4.5 1.1s-2.3 2.2-12.2 4c-19.5 3.6-18.7 3.6-20.3 1.5-1.4-1.8-1.4-1.8-1.5.4 0 1.9-.5 2.2-3.8 2.2-2.2 0-7.3.3-11.5.6l-7.7.7 3.5 3c2.2 1.8 3.5 3.9 3.5 5.3 0 1.3.5 2.4 1 2.4.6 0 1 1.8 1 4 0 3.6-.3 4-3.2 4.8-2.3.6-3.4 1.5-3.6 3-.3 1.8-1 2.2-3.7 2.2-2.6 0-3.4-.5-3.9-2.3-.3-1.2-1.8-3.4-3.3-4.9-3.8-3.6-7.9-2.9-8.8 1.4-.7 2.9-.9 3-5 2.6-4.3-.5-4.3-.5-4.7 3-.5 3.9 1.1 8.4 2.7 7.9.6-.2 1.1-1.8 1.3-3.5.3-2.9.6-3.2 3.7-3.2 4.6 0 6.5.9 6.5 3 0 1.1.5 2.2 1 2.5.6.3 1 2.4 1 4.6 0 3.5-.2 3.9-2.6 3.9-1.7 0-2.8.6-3.1 2-.4 1.5-1.4 2-3.9 2-2.8 0-3.4-.4-3.5-2.2 0-1.3-.3-1.7-.6-1-.6 1.6-6.9 1.6-7.6-.1-.4-1-3.4-1.6-9.9-2.1-15.1-1.1-15.8-1.3-15.8-5 0-4.3 1-5.4 5-5.8 3-.3 3.6-.7 4-3.3.5-2.8.8-3 5-2.9 2.5 0 5.3.4 6.2.8 2 .9 2.4.3 3.3-6.6.5-3.9 1-4.8 2.6-4.8 1.5 0 1.9-.7 1.9-3.1 0-2.2.8-3.9 2.8-5.5 1.5-1.3 2.5-2.4 2.2-2.4-24.1-1.6-52.7-5.7-56.5-8.2-.6-.3-2.7-.9-4.8-1.3s-3.7-1.3-3.7-2.1-1-1.4-2.5-1.4c-2.5 0-2.5.1-2.5 8.6 0 8.2 1.3 15.8 3.2 17.8.5.6.8.3.8-.7 0-1.3.9-1.7 3.5-1.7 2.4 0 3.5.5 3.5 1.5 0 .9.9 1.5 2.5 1.5 2.2 0 2.5.4 2.5 3.3s.5 3.5 3.5 4.7c1.9.8 3.5 2 3.5 2.7s.5 1.3 1 1.3c.6 0 1 1.6 1 3.5 0 3.3-.2 3.5-3.3 3.5-1.9 0-5.6-.7-8.2-1.5-2.7-.8-5-1.3-5.1-1.2-.2.1-1.9 8.1-3.8 17.8-2 9.7-3.8 18.3-4.1 19.2-.7 1.6-3.5 2.7-7.6 2.7-2.4 0-2.7-.4-3.4-5.2m116-29.8c-2.8-1.2-4.5-1.2-4.5 0 0 .6 1.5 1 3.3.9 2.7 0 2.9-.2 1.2-.9m520.2-37.7c-.4-.3-.7-1.7-.7-3 0-2.1.4-2.3 5.5-2.3 5.4 0 5.5 0 5.5 3 0 2.9-.1 3-4.8 3-2.7 0-5.2-.3-5.5-.7m56.6-.1c-2.7-.3-3.3-.8-3.3-2.8 0-1.8.5-2.4 2.3-2.4 5.4 0 6.6-1 7.3-6 .6-4.6.7-4.7 3.3-4.1 2.4.7 2.6 1.2 2.9 6.9.2 5 0 6.2-1.5 7-2.5 1.3-7.2 1.9-11 1.4m44.4.2q-1.8-.6-1.5-2.7c.2-1.7 1.1-2.3 3.8-2.5 9.2-.6 10-1 10-4.7 0-2.4-.5-3.5-1.5-3.5-.9 0-1.5-.9-1.5-2.5 0-2.4.2-2.6 3.8-1.9 2 .4 4.1.9 4.6 1.2.8.4.4 14.8-.5 15.7-.7.7-15.3 1.4-17.2.9M499 270.1c-.5-1.1-1-4.9-1-8.5 0-5.9.2-6.6 2-6.6s2 .7 2 5.8v5.7h17v-18.2c0-14.8.3-18.3 1.4-18.3.9 0 1.6-1.8 2-5.2.4-3 1.4-5.7 2.4-6.5 1.8-1.3 14.2-1.8 14.2-.5 0 .4-3.1 3.9-7 7.7l-7 6.9V270h-2.5c-1.4 0-2.5.5-2.5 1 0 .6-4 1-10 1-8.8 0-10-.2-11-1.9m82.6-.2c-1.4-1.1-2.6-2.5-2.6-3s6-.9 13.8-.9c12.2 0 14.1.2 15.5 1.8 3.4 3.8 2.3 4.2-11.2 4.2-11.5 0-13.1-.2-15.5-2.1m93.4-.8c0-2.4.7-3.4 3-4.6 3.8-2 13-2.1 13-.1 0 1.5-8.4 6-13.2 7.2-2.6.6-2.8.4-2.8-2.5m126.3-2.1c-.9-2.2-2.2-4-3-4s-1.3-1.2-1.3-3c0-2.7.3-3 3.4-3 1.9 0 3.6.5 3.8 1.1s1.4.1 2.7-1c1.3-1.2 3.2-2.1 4.1-2.1s2.6-.9 3.8-2 2.6-2 3.2-2c.7 0 1-8.5 1-25.5 0-22-.2-25.5-1.5-25.5-1.2 0-1.5-1.6-1.5-8.5s.3-8.5 1.5-8.5 1.5-1.7 1.5-9.5-.3-9.5-1.5-9.5c-.8 0-1.5-.7-1.5-1.6s-.9-2.7-2-4.1c-1.4-1.8-2-4.1-2-7.4 0-3.7-.4-4.9-1.5-4.9-2.4 0-1.8-2.7.8-3.4 1.2-.3 4.8-.6 8-.6h5.7v129h-22.2zm52.1.8c-9.9-6.7-15.1-17.8-12.2-26.2.7-2.2 1.9-4.1 2.6-4.4.9-.3 1.2 2 1.2 9.2v9.5l3.8.3c3.4.3 3.7.6 4 3.6.3 2.9.6 3.2 3.8 3.2 3.3 0 3.4.1 3.4 4 0 2.2-.4 4-.9 4s-3-1.5-5.7-3.2m37.6-1.3c0-1.9.4-3.5.9-3.5s1.1-1.1 1.3-2.5c.3-1.4.1-2.5-.3-2.5-2.3 0-.5-2.7 3.1-4.8 2.2-1.2 4-1.8 4-1.2 0 .5 1.2 1 2.8 1 4.1.1 6.2 2.2 6.2 6.4 0 2.7-.4 3.6-1.6 3.6-1 0-4.1 1.6-7 3.5s-6.2 3.5-7.3 3.5c-1.7 0-2.1-.6-2.1-3.5m61-11.4c0-1.6-.3-3.6-.6-4.5-.5-1.2 0-1.6 2-1.6 2.4 0 2.6.3 2.6 4.5 0 3.8-.3 4.5-2 4.5-1.5 0-2-.7-2-2.9m-93.5-.3c-4.2-2.4-5.4-5.1-5.5-11.5 0-3.5.4-6.3 1-6.3.5 0 1.2-1.1 1.6-2.4 1.1-4.7 3-5.3 17.7-6l13.7-.6v2.9c0 2.6-.3 2.9-5 3.4-10.3 1.2-16.6 6.7-15.6 13.6.3 1.8 1.2 4.1 2.1 5.1 1.4 1.6 1.4 1.8 0 2.4-2.6 1-7.8.6-10-.6m-273.3-2c-.7-.7-1.2-2-1.2-2.9 0-3.3-1.2-4.9-3.6-4.9-1.3 0-2.4-.6-2.4-1.3s-.9-1.8-2-2.5c-1.6-.9-2-2.3-2-6.2 0-2.8-.4-5-1-5-.5 0-1-1.6-1-3.5 0-6.5 3-4.4 12.6 8.7 4.9 6.7 9.9 13.7 11.2 15.5l2.3 3.3h-5.9c-3.2 0-6.3-.5-7-1.2m337.8-9.3c0-5.7-.4-9.5-1-9.5-1.1 0-1.4-17-.4-24.4.6-4 1-4.6 3-4.6 3.6 0 4.4 5.1 4.4 27.8V253h-6zm-221 2.7c0-1-.7-2.7-1.5-3.8-1.7-2.2-2.1-17.3-.6-20.2.5-.9 1.2-2.5 1.5-3.4.3-1 1.5-1.8 2.6-1.8s2-.5 2-1.1 1.2-.9 2.7-.7c2.5.3 2.9.8 3.5 5.3.8 5.8-.4 15.9-2.8 22.8-1.4 4.2-1.9 4.7-4.5 4.7-2.1 0-2.9-.5-2.9-1.8m-65-3.2c0-5.1 1.7-5.1 5.3 0l2.8 4H637zm93 .5c-1.6-4.2-3.1-14.9-2.8-19.5.2-3.3.8-4.6 2.1-4.8 1.4-.3 1.7.5 1.7 5 0 2.9.7 7.8 1.5 10.8 1.9 7.2 1.9 11 0 11-.9 0-2-1.1-2.5-2.5m221-2c0-4.1.2-4.5 2.5-4.5s2.5.4 2.5 4.5-.2 4.5-2.5 4.5-2.5-.4-2.5-4.5"/><path d="M254 240.5c0-.8-.6-1.5-1.4-1.5s-1.6-.7-2-1.5c-.3-.8-1.2-1.5-2.1-1.5-1.8 0-1.8-.6-.5-8.4.6-3.8 1.8-6.8 3.2-8.4 2.1-2.1 2.9-2.3 7.8-1.8 3 .3 8.7 1 12.5 1.4 4.1.4 8.5 1.6 10.5 2.8 3.3 1.9 3.5 2.4 3.8 7.6.3 5 0 5.8-1.9 6.9-3.3 1.7-12.4.4-18.1-2.5l-4.8-2.5V242h-3.5c-2.4 0-3.5-.5-3.5-1.5m545-16.3c0-11.7-.4-17.2-1.2-18-.9-.9-.5-1.2 2-1.2h3.2v18c0 17.3-.1 18-2 18s-2-.7-2-16.8m-187.3 10.1c-.4-.3-.7-1.9-.7-3.5 0-2.1.5-2.8 2-2.8 1.6 0 2 .7 2 3.5 0 3.3-1.6 4.6-3.3 2.8M890 231c0-3 .1-3 5.5-3s5.5 0 5.5 3-.1 3-5.5 3-5.5 0-5.5-3m-142-5c0-4.9.1-5 3-5s3 .1 3 5-.1 5-3 5-3-.1-3-5m130.1-1.1c-1.4-.5-5.1-.7-8.4-.3-5.4.6-5.9.5-5.6-1.1.6-3 5.4-3.8 22.6-3.9 9-.1 16.3-.4 16.3-.8 0-.5.5-.8 1-.8.6 0 1 1.3 1 2.8 0 2.6-.4 3-5.1 4-6 1.4-18.4 1.5-21.8.1M86 219.4c-4.5-1.5-12-6-12.5-7.6-.4-1-1.2-1.8-1.8-1.8-1.5 0-4.7-5.5-4.7-8.1 0-1-.4-1.9-1-1.9-1.8 0-1.1-6.6 1-8.8 3.3-3.5 13-2.3 13 1.6 0 .9.9 2.4 2 3.2 2.9 2.1 2.8 8-.1 8-1.8 0-1.9.2-.5 1.5.8.8 1.9 1.5 2.5 1.5.5 0 1.7.7 2.5 1.6 1.5 1.4 1.6 1.3 1.6-1.5V204h6.3c4 0 7 .5 8.3 1.5 2.9 2.2 7.1 1.9 7.7-.6.5-1.7 1.2-2 4.4-1.7 3.7.3 3.8.4 4.1 4.6.3 4.1.2 4.2-2.7 4.2-2.4 0-3.1.4-3.1 2 0 1.5-.7 2-2.5 2-1.4 0-2.5.6-2.5 1.4 0 1.9-17.3 3.4-22 2"/><path d="M125.6 219.3c-1.7-.3-3-1.2-3.3-2.4-.3-1-.9-1.9-1.4-1.9s-.9-2.9-.9-6.4v-6.4l-6-1.3-6-1.3v-7.3c0-6.7.2-7.3 2.1-7.3 3.4 0 4.5-2.1 5.2-9.8l.7-7.2h-15l.7 6.1.6 6-3.9-.3-3.9-.3-.8-6.9c-1-7.7.1-11 3.7-12 3.1-.8 33.9-.7 35.2.2 3 2 4.3 9.9 2.6 16-1.1 3.6-6.3 9.2-8.7 9.2-2.7 0-4.5 5.3-3.8 11 .4 3 1 4 2.4 4 1.1 0 1.9.7 1.9 1.5 0 2 9.5 2 13.4 0 3.2-1.7 9.6-2 9.6-.5 0 .6 2 1 4.5 1 4.3 0 4.5.1 4.5 3 0 3.5-4.1 8-7.1 8-1.1 0-1.9.7-1.9 1.5 0 .9-1.2 2-2.7 2.6-3.1 1.2-17.3 2-21.7 1.2m170.9-2.2c-6.6-3.8-8.6-6.1-9.2-11-.8-5.8.7-7.1 7.7-7.1 4.5 0 6.1.4 7.6 2.1 3.2 3.6 6.9 5 9.9 3.9 3-1.2 5.5-3.4 5.5-4.9 0-.6 1.1-1.1 2.5-1.1 1.6 0 2.5-.6 2.5-1.5 0-1-1-1.5-3.2-1.5-4.6-.1-8.8-5.6-8.8-11.7 0-2.3.5-4.3 1-4.3.6 0 1-.6 1-1.4 0-3.5 2.9-4.6 12.4-4.6 7.9 0 9.7.3 12 2.1 2.2 1.7 2.6 2.8 2.6 7 0 6-1.3 8.9-4 8.9-1.4 0-2 .7-2 2.3 0 1.2-.3 3.3-.7 4.5-.5 2.1-1.1 2.3-4.4 2-3.5-.3-3.9-.1-3.9 1.8 0 2.1.5 2.3 8.3 2.6 9.6.4 11.3 0 16-4.2 4.3-3.7 9.9-4 10.6-.5.2 1.1.9 2.4 1.7 2.8s1.4 2.2 1.4 4c-.1 3.9-3.7 7.8-10 10.6-5.5 2.5-18.3 2.9-23.5.7-3.1-1.3-3.9-1.3-7 0-2.1.8-6.8 1.4-12.2 1.4-7.9 0-9.3-.3-13.8-2.9M498 203.5c0-14.8.1-15.5 2-15.5s2 .7 2 15.5-.1 15.5-2 15.5-2-.7-2-15.5m-277.9 10.6c-2.4-1.5.3-3.8 10-8.7 7.2-3.6 8.8-4.1 9.3-2.8 1 2.5.7 4.4-.7 4.4-.7 0-4.8 1.8-9.2 4l-8 4s-.6-.4-1.4-.9m416.7-1.2c-2.3-1.3-2.4-8.6-.2-11.7 1.2-1.8 2.5-2.2 6.9-2.2 7.9 0 8.2 2.2 1 9.4-3.1 3.1-5.7 5.6-5.8 5.6s-1-.5-1.9-1.1m66-2c-1-1.7-1.8-3.9-1.8-5 0-1-.7-1.9-1.5-1.9-1 0-1.5-1.1-1.5-3.5 0-7.6 7-2.2 11.1 8.4l1.9 5.1h-3.3c-2.5 0-3.6-.6-4.9-3.1m51.2-4.4c0-2.5.5-4.5 1-4.5.6 0 1-.7 1-1.5s.9-1.5 2-1.5 2-.6 2-1.4c0-1.5 2.1-2.6 5.1-2.6 1 0 1.9-.4 1.9-1 0-.5 2-1 4.5-1s4.5.5 4.5 1c0 .6 2.8 1 6.5 1h6.5v6.6l-6.4-.4c-8.6-.6-16.2 1.7-20.9 6.3-2 1.9-4.5 3.5-5.7 3.5-1.7 0-2-.6-2-4.5m-503.2-1.4c-1-2-1.8-4.3-1.8-5s-.7-1.9-1.5-2.7c-.8-.9-1.5-3.1-1.5-5 0-3.2.2-3.4 3.4-3.4 1.9 0 3.6.6 3.9 1.3.3.9 4.5 1.2 16.8 1.2h16.4v10l-4.2.3c-2.4.2-5.1-.1-6-.7-1.5-.8-1-1.1 2.2-1.1 4-.1 4-.1 1.5-1.5-3.4-2-9-2-9 0 0 .8.7 1.5 1.5 1.5s1.5.6 1.5 1.4c0 .9-1.5 1.6-4.2 1.9-8.8 1.1-10.8 1.9-10.8 3.8 0 1.5-.7 1.9-3.2 1.9-2.8 0-3.6-.6-5-3.9m8.2-4.1c0-.5-.7-1-1.5-1s-1.5.5-1.5 1c0 .6.7 1 1.5 1s1.5-.4 1.5-1m598-.4c0-3.3.2-3.5 4.4-4.1 3.2-.5 4.6-1.2 4.9-2.7.3-1.1 1.5-2.2 2.6-2.5 1.2-.3 2.1-.8 2.1-1.2 0-.3.3-1.6.6-2.8.6-2.1.4-2.2-5-1.6-4.7.5-5.6.3-5.6-1 0-1.8.8-2.1 9.8-3.8 6.2-1.2 24.1-.8 29 .7 2.8.8 3 4.4.2 4.4-2.1 0-2.1-.1-2.4 9.5l-.1 6-12-.3c-8.3-.3-14.3.1-19.5 1.2-4.1.9-7.8 1.6-8.2 1.6-.5 0-.8-1.5-.8-3.4m-205-.5c0-2.9.3-3.1 3.5-3.1 3.1 0 3.5.3 3.5 2.5 0 1.8-.5 2.5-1.9 2.5-1.1 0-2.6.3-3.5.6-1.3.5-1.6-.1-1.6-2.5m-96.9 1c-1-.6-1.2-2.5-.9-6.8.5-6.7 3.1-11.2 6.6-11.3 1.2 0 2.2-.4 2.2-1 0-.5 1.6-1 3.5-1 3.2 0 3.5-.3 3.5-2.9 0-1.8 1.1-4.1 3-6 2.6-2.9 3.4-3.2 8.1-2.9l5.2.3-6.7 7.2c-4.3 4.6-7.2 7-8.2 6.6-.9-.3-1.2 0-.9.8s-2 4.2-5 7.7-5.5 7.2-5.5 8.3c0 2-2.4 2.5-4.9 1M519 173v-27h-6.5c-5 0-6.5-.3-6.5-1.5 0-1.8 4.8-2.7 12.5-2.3l6 .3.3 28.8.2 28.7h-6z"/><path d="M154 197.5c0-.8-.4-1.5-1-1.5-.5 0-1-1.6-1-3.5 0-3.3.2-3.5 3.5-3.5 4.6 0 7.5 2.6 7.5 6.7 0 3.2-.1 3.3-4.5 3.3-3.3 0-4.5-.4-4.5-1.5m534-7.6v-4.1l3.3 2.1c1.7 1.1 3.3 2.9 3.5 4.1.3 1.7-.2 2-3.2 2-3.5 0-3.6-.1-3.6-4.1m-424-.9c-3-.5-8.5-.8-12.2-.9l-6.7-.1-1.2-4c-.7-2.2-1.8-4-2.4-4-.7 0-1.5-1.4-1.9-3.1-.4-2-1.3-3.3-2.7-3.6-2.1-.6-2.1-1-1.6-9.7.6-11.6 2.4-18.6 4.6-18.6.9 0 3-2 4.5-4.5 2.7-4.2 3.2-4.5 7.2-4.5h4.4v4.5c0 2.5-.3 4.5-.7 4.5-.9 0-3.3 4.8-3.3 6.6 0 .7-.5 1.4-1.1 1.6s-1.3 3.2-1.6 6.6c-.4 4.3-1 6.2-1.9 6.2-.8 0-1.4.7-1.4 1.5s.7 1.5 1.5 1.5c.9 0 1.5.9 1.5 2.4 0 1.4.4 2.7 1 3.1.5.3 6.6 1 13.5 1.5 14.8 1 17.5 2.2 17.5 7.4 0 5.9-.7 6.6-6.4 6.5-2.8-.1-7.6-.5-10.6-.9m-9-4.9c0-.4-1.1-.6-2.5-.3-1.4.2-2.5.6-2.5.8s1.1.4 2.5.4 2.5-.4 2.5-.9m116.3 4.8c-1.5-1.5-1.7-7.7-.4-9.8 1.1-1.7 7.7-2.8 22.1-3.7 12.4-.8 13-.4 13 7.9v4.4l-10.7.7c-6 .3-13.5.9-16.8 1.2-4.2.4-6.4.2-7.2-.7M797 188c0-.5.5-1 1-1 .6 0 1-7.7 1-21 0-20.3.1-21 2-21s2 .7 2 22v22h-3c-1.6 0-3-.4-3-1m-161-1.4c0-1.1 2.6-2.3 8.5-4.2 7.5-2.3 9.6-2.6 19.2-2.2 11.6.5 21.3 3 21.3 5.6 0 1.6-3.6 1.4-15.6-.8-6.2-1.2-8.3-1.1-16.5.4-16.4 3-16.9 3-16.9 1.2m315-17.1V152h5v35h-5zm-736.3 15.2c-.9-2.5 1.3-3.4 10.8-4.6 4.9-.6 9.1-1.5 9.3-2.1.9-2.5 2.2-.6 2.2 3v4h-5.7c-3.2 0-8.1.3-10.9.6-4.1.5-5.2.3-5.7-.9m204.6.6-9.3-.4V182c0-1.5.3-3.5.6-4.4.7-1.9 4.4-2.1 4.4-.2 0 .9 2.8 1.6 10.2 2.5 10.4 1.2 13.1 2.2 12.1 4.7-.3.9-1.8 1.3-4.7 1.2-2.2-.1-8.3-.4-13.3-.5m351.4-1c-7.7-.3-8.8-.6-8.5-2.1.3-1.4 1.7-1.7 8.5-2 9.5-.3 14.7.7 15.1 3.1.3 1.4-.3 1.7-3 1.5-1.8-.1-7.3-.4-12.1-.5"/><path d="M278.2 175.8c-1.9-.9-2.2-1.8-2-4.7.2-2.8.9-3.9 3.1-4.9 2.9-1.4 2.9-1.4 2.2-8.6l-.7-7.3 3.2-.7c5.4-1 7.2-.7 9.4 1.7 1.2 1.3 2.9 2.6 3.8 2.9 3.6 1.4 3.5 15.5-.2 20-1.5 1.9-2.9 2.3-9.1 2.5-4.2.2-8.4-.2-9.7-.9m76.2-.3c-3.3-2.2-4.7-6.8-4.2-13.9.3-5.5.8-6.7 3.3-8.9 3.8-3.3 12-4.5 17.2-2.6 8.6 3.3 10 19.8 2.2 25.3-3.1 2.1-15.6 2.2-18.5.1M587.3 165c-2.7-1.1-3.1-5.8-.9-11.1 3.1-7.7 3.1-7.9-.8-7.9-2.4 0-3.6-.5-3.6-1.4 0-2 3.3-2.6 15.8-2.6 9.4 0 11.2.2 11.2 1.5 0 .9-.7 1.8-1.5 2.1-.8.4-1.5 1.1-1.5 1.8-.1.6-3.8 5-8.3 9.8-7.2 7.6-8.5 8.5-10.4 7.8M972 154.5c0-2.5-.4-4.5-1-4.5-.5 0-1-.9-1-2 0-1.8-.7-2-7-2-5.3 0-7-.3-7-1.4 0-1.9 3.2-2.6 13.3-2.6h8.7v17h-3c-2.9 0-3-.2-3-4.5m-827.7-2.7c-1.3-.6-2.3-1.5-2.3-2 0-.4-.5-.8-1.1-.8-3.5 0-5.6-6.7-4.5-14.4.7-4.4.8-4.6 4.2-4.6h3.4v5.4c0 5.1.2 5.5 3.1 6.5 4 1.4 6.9-.3 6.9-4.2 0-2-.7-3.1-2.5-3.9-2.2-1-2.6-1.7-2.3-4.7.3-3.4.5-3.6 4.1-3.9 2-.2 3.7.1 3.7.6s.9 1.2 2 1.5 2 1.2 2 2 .7 1.7 1.5 2.1c1.1.4 1.5 2.2 1.5 7.1 0 3.7-.4 6.5-1 6.5-.5 0-1 .7-1 1.6 0 2.2-2.5 4.4-4.9 4.4-1.2 0-2.1.5-2.1 1 0 1.3-7.9 1.2-10.7-.2m-75.5-.5c-1-.2-1.8-1.1-1.8-1.9s-.6-1.4-1.4-1.4c-1.7 0-2.6-2.2-2.6-6.1 0-2.6.3-2.9 3.4-2.9 1.9 0 3.6.6 3.9 1.4.8 1.9 6.4 2.8 8.7 1.3 2.6-1.6 2.5-3.9-.3-6.5-3.2-3-6.5-2.9-7.3.3-.5 2.1-1.2 2.5-4 2.5-3 0-3.4-.3-3.4-2.7 0-4.8 1.1-7.3 3.1-7.3 1.1 0 1.9-.4 1.9-1s3.2-1 7.8-1c8.7.1 11.1 1.3 13 6.9 1.7 4.9 1.6 11.1-.2 11.1-.9 0-1.6 1.2-1.8 2.8-.3 2.5-.6 2.7-5.3 2.8-2.7.1-5.1.6-5.3 1.3-.4 1.1-5 1.3-8.4.4m328.2-2.7c0-.9-.4-1.6-1-1.6-.5 0-1-.7-1-1.5s-.4-1.5-1-1.5c-.5 0-1-2-1-4.5 0-4.5 0-4.5 3.5-4.5 2.4 0 3.5.5 3.5 1.5 0 .8.6 1.5 1.4 1.5 1.8 0 3.8 5.1 3.4 8.6-.3 2.6-.8 2.9-4 3.2-2.9.2-3.8 0-3.8-1.2m-151.4-23.3c-.3-2.7-.8-7.9-1.2-11.8-.8-9.2-1.2-10.5-3.5-10.5-1.8 0-1.9-.8-1.9-13.1 0-7.3.5-14.9 1.2-17 1.1-3.7 1.3-3.9 4.3-3.3 3.5.6 5.1-.6 5.7-4.5.1-1.3 1.5-3.3 3-4.4 2.4-1.8 3.1-1.8 7.8-.7 10 2.4 22 12.2 40 32.8l5.5 6.3 5.4-1c10.2-2 29.3-.7 31.4 2.1.7 1 1 1 1.4 0 .6-1.6 7.9-10.2 12.8-15.2 1.9-1.9 3.5-4.4 3.5-5.6C361 77 371 67 373.4 67c.8 0 5.1-1.9 9.6-4.1 7.7-3.9 8.4-4.1 12.1-3 2.2.7 5.5 2.5 7.3 4.2 5.4 4.7 6.9 9.6 7.4 24.7l.4 13.2H404l-.1-5.7c0-3.2-.3-5.2-.6-4.5-.2.6-2 1.2-3.9 1.2-3.4 0-3.4 0-3.4-4.7-.1-5.7-1.4-12.1-2.9-13.6-.7-.7-2.2-.6-5 .3-4.8 1.6-20.1 16.6-29.9 29.5l-6.8 9-8-.5c-11.9-.7-27.9-.6-37.6.3l-8.8.8v-3c0-2.6-.4-3.1-2.5-3.1-1.6 0-2.5-.6-2.5-1.5 0-.8-.4-1.5-1-1.5-.5 0-1-1.1-1-2.5 0-1.8-.5-2.5-2-2.5-1.3 0-2-.7-2-2 0-1-1-2.4-2.1-3.1-1.2-.6-5.3-4.2-9-7.9-6.5-6.6-13.5-12-17.1-13.3-1.2-.4-2.1.4-3.4 3.1-1.6 3.2-1.8 5.9-1.5 19.2.1 8.5.7 16.2 1.2 17.1.5 1 .9 5.2.9 9.3v7.6h-8.8zM309 109c-2-1.3-4-1.3-4 0 0 .6 1.2 1 2.8 1 2.1 0 2.4-.2 1.2-1m-9.5-10.1c.8-2.3.1-3.4-1.4-2.4-1.3.8-1.5 4.5-.2 4.5.5 0 1.3-.9 1.6-2.1M140.2 81.4c-1.2-.8-2.2-2.2-2.2-2.9 0-1.5-.4-1.6-10-3.5-11.1-2.3-16.6-2.7-22.5-1.9-3.3.5-7.9 1.2-10.2 1.5-2.4.4-4.3 1.1-4.3 1.5 0 .5-.9.9-2.1.9-1.1 0-2.7.7-3.5 1.5-.9.8-3.1 1.5-5 1.5-3 0-3.5-.4-4-3-.5-2.3-1.2-3-3-3-2.1 0-2.4-.5-2.4-3.5 0-1.9.5-3.5 1-3.5.6 0 1-2 1-4.5 0-4.3.1-4.5 2.9-4.5 2.6 0 3-.4 3.3-3.2.2-2.5.8-3.4 2.4-3.6 1.8-.3 2.5.6 3.9 4.3 1 2.5 2.1 4.8 2.6 5 .4.3 3.6-.2 7.1-1 8.3-1.9 22.5-1.9 30.1.1 4.2 1.1 6.3 1.2 6.5.5.2-.6.8-1.1 1.4-1.1.7 0 .8 1.6.5 4.5-.6 4-.5 4.5 1.3 4.5 1.1 0 2 .5 2 1 0 .6.7 1 1.5 1 .9 0 1.5-.9 1.5-2.5 0-2.1.5-2.5 3-2.5 3.2 0 4.1.5 9.6 5.7 2.8 2.5 3.4 3.8 3.4 7.1 0 3.9 0 3.9-4.6 4.6-6.9.9-8.7.8-11.2-1m-4.7-24.8c-1.9-1.3-1.8-1.6.9-8.7 1.6-4.1 4-9.5 5.3-12.1 2.3-4.7 4.3-6.2 4.3-3.3 0 1.2 1.3 1.5 5.5 1.5h5.5v3.5c0 1.9-.4 3.5-1 3.5-.5 0-1 .5-1 1 0 .6-1.2 4.1-2.7 7.9-2.3 6-3.1 7-5.6 7.5-4.9 1-9.2.7-11.2-.8"/></g><g fill="#001a41"><path d="M285.2 401.2c-1.1-1.7-1.8-5.2-2.1-10.4-.2-5.8-.7-7.8-1.7-7.8-1.2 0-1.4-5.2-1.4-31v-31l2.9-3.2c2.9-3.2 3.1-3.3 12.8-3.6 5.4-.2 10.3-.8 10.9-1.3s1.8-.7 2.7-.3c2.2.8 1.1-2.8-1.7-5.9-2.3-2.5-1.6-2.5-17.8-.1-4.7.6-7.7 3.4-3.8 3.4 2.4 0 2.6 1.8.4 2.7-2 .8-21.1-2.5-23.6-4-2.9-1.9-2.3-4 1-3.3 1.5.3 2.1.3 1.5 0-.7-.3-1.3-1.1-1.3-1.7 0-1.2-4.5-3.7-6.6-3.7-.7 0-1.9-.6-2.6-1.4-.8-.7-3.4-2.4-5.9-3.6-2.4-1.3-5.7-3.4-7.3-4.7-2-1.7-3.9-2.3-6-2.1l-3.1.3-.1-12c-.2-10.5-.1-11.2.7-6 1.1 7.7 1.6 8.8 3.4 8.1 1.2-.4 1.5.3 1.5 3.3 0 2.6.5 4.1 1.6 4.5 2.4.9 2.6.8 1.9-1.4-.6-1.9-.3-2 2.2-1.4 1.5.4 3.5 1 4.3 1.4 8.5 4.2 32.5 10 51.3 12.5l4.7.6v-3.3c0-7.2 4.3-14.9 9.5-17l3-1.2-4.2-.4c-3.4-.2-4.3-.7-4.3-2.2 0-1.7.7-1.8 8.8-1.6 11.9.5 16.2 1.4 16.2 3.6 0 1.5-1 1.8-5.9 1.9-5.6 0-11.1 1.4-11.1 2.7 0 .3.7.3 1.6 0 1.2-.5 1.5-.2.9 1.1-.4 1-1.1 3.1-1.6 4.7-.7 2.3-.6 2.7.3 1.8 1.4-1.4 4.8-1.6 4.8-.2 0 .5.7.7 1.5.4 2.6-1 1.7 3.3-1.1 5.3-2.6 1.9-2.6 2-1 5.1 2.4 4.6 6.3 5.3 9.3 1.8 1.3-1.5 2.3-4 2.3-5.7 0-3.9 1.7-3.7 3.5.4 1.1 2.5 1.4 2.7 1.5 1.1 0-1.2.7-2.7 1.6-3.5.8-.7 1.3-2.1 1.1-3.1-.3-1 .2-2.2 1.1-2.7 1.5-.9 1.5-1.1-.2-3-1.1-1.2-2.9-2.1-4-2.2-1.3 0-1.6-.3-.7-.6 1-.4.8-.9-1-1.9-2.3-1.3-2.2-1.3 1.8-1.4 3.8 0 4.2.2 4.5 2.8.2 1.9.9 2.8 2.4 3 2.7.4 4.4 4.1 4.4 9.8v4.5l3.3-.6c1.7-.3 7.5-1.2 12.8-2 11.8-1.8 23.7-4.6 35.1-8.2 8.6-2.8 8.8-2.8 8.8-6 0-4 2.5-4.5 3.4-.7.5 2-.2 3.9-3 8.1-2 3-3.4 5.6-3.2 5.7.1.1 1.7.8 3.4 1.5 2.7 1.1 3.2 2 4.7 8.2l1.7 7-4 4.1c-3.7 3.6-4.1 4.4-3.9 8.4.2 2.4.7 4.4 1.2 4.4s.7.9.4 2c-.3 1 .1 2.7.9 3.7 2 2.7 1.8 8.3-.3 8.3-1.5 0-2.6-3.1-6-16.3-5.5-20.8-5.9-22.7-4.4-22.7 1.9 0 4.1-2.6 4.1-4.9 0-3.1-4-2.7-13 1-4.1 1.7-7.7 3.3-7.9 3.5s.2 1.1.9 1.9c.9 1.1 2.3 1.4 4.7 1 2.7-.4 3.3-.2 3.3 1.3 0 1.3-1.3 2.1-4.7 3.1-6.8 1.8-18.3 2.6-18.3 1.4 0-.6.7-1.3 1.5-1.7.8-.3 1.5-1.2 1.5-2.1 0-2 1.9-1.9 3.7.3 1.3 1.5 1.3 1.5.3-.5-1-2.2-1.5-2.3-14.2-2-9.4.1-13.3.6-13.6 1.5-.2.6-1.4 1.2-2.7 1.2-2.7 0-3.8 1.2-2.9 3.3.3.8 1.3 1.3 2.4 1 1-.3 2.1 0 2.4.6.4.7 4.3 1.1 9.6 1.1 11.4 0 14 .9 14 5.1 0 2.6-.2 3-1.5 1.9-.8-.6-2-.8-2.7-.4s-4.6.8-8.7.8c-5 .1-7.6.5-7.8 1.4-.3.7.4 1.2 1.6 1.2q2.1 0 1.5 1.5c-.5 1.3-4.6 1.5-28.1 1.5h-27.4l-2.4 2.5c-1.4 1.3-2.5 3.6-2.5 5 0 1.6-.6 2.5-1.5 2.5-.8 0-1.5-.7-1.5-1.5s-.7-1.5-1.5-1.5c-1.3 0-1.5 4.1-1.5 31s.2 31 1.5 31c.8 0 1.5-.7 1.5-1.5 0-2.2 2.9-1.8 5 .8l1.8 2.2 33.1-.3c18.7-.2 33.1.1 33.1.6 0 1.9-4.9 3.4-9.9 3-2.9-.3-5.4-.1-5.7.4-.3.4 1.2.8 3.3.8s4.5.5 5.3 1c1 .7-10.1 1-33.8.9l-35.3-.1zm36.1-.9c-3.4-.2-9.3-.2-13 0s-.9.3 6.2.3c7.2 0 10.2-.1 6.8-.3M290 331c0-.5-.7-1-1.5-1s-1.5.5-1.5 1c0 .6.7 1 1.5 1s1.5-.4 1.5-1m34.7-19.4c-.2-.6-1.7-.9-3.3-.7-3.7.4-4.9 1.2-3.5 2 1.7 1.1 7.2 0 6.8-1.3m-1.7-4.5c0-.5-.7-1.2-1.6-1.5-2.1-.8-2.4-.8-2.4.5 0 .5.5.7 1 .4.6-.3 1-.1 1 .4 0 .6.5 1.1 1 1.1.6 0 1-.4 1-.9m-26.3-6.2c-1.4-.8-2.2-.8-3 0s-.3 1.1 1.9 1.1c2.5-.1 2.7-.2 1.1-1.1m12.3-5.1c0-3.2-.3-3.9-1-2.8-1.3 2-1.3 7 0 7 .6 0 1-1.9 1-4.2m9.9-5c.1-.5-.9-.8-2.1-.7-2.2 0-2.2.1-.3.9s1.9.9-.2.9c-2.7.1-3.1 1.8-.5 2.3 1.5.3 2.9-1.2 3.1-3.4m26.1.1c0-.5-.7-.9-1.5-.9s-1.5.7-1.5 1.5c0 .9.6 1.2 1.5.9.8-.4 1.5-1 1.5-1.5M77.7 394.2c-.9-1-1.7-2-1.7-2.3 0-.2 15.7-.3 34.8-.1 40.5.4 38.2 1 38.2-9.1 0-3.4.3-16.5.6-29.2.5-16.2.3-24.7-.5-28.7l-1.2-5.8h-33.4c-21.2 0-33.6.4-34 1-1.2 1.9-4.5 1.1-4.5-1.1 0-1.4-.5-1.9-1.7-1.7-1.7.3-1.8 2.8-2.1 33.3-.2 26.9-.5 33.2-1.6 34-.8.6-1.6 2.2-1.9 3.5-.3 1.8-.5 1.5-.6-1.2s-.6-3.8-1.6-3.8c-1.3 0-1.5-4.5-1.5-34.3v-34.2l2.5-3.8c1.4-2 3.7-4 5-4.3 3.5-.9 2.1-2.4-2.1-2.4-3.7 0-25.8-3.6-28.4-4.6-.8-.4-2.9-1-4.6-1.4l-3.2-.7-3.1 12.1c-1.7 6.6-3.6 14.7-4.3 17.9-.7 3.1-1.6 5.7-2 5.7s-.8 1.8-.8 4c0 3.3-.3 4-2 4-1.5 0-2-.7-2-2.5 0-1.4-.4-2.5-1-2.5-.5 0-1-.4-1-1 0-.5.9-1 2-1 1.6 0 2-.7 2-3.4 0-1.9-.6-3.7-1.2-3.9-.8-.3-.6-.6.5-.6 1.8-.1 2.5-3.1.7-3.1-.5 0-1-.4-1-1 0-.5.7-1 1.5-1s1.5-.4 1.5-1c0-.5-.4-1-1-1-.5 0-1-.7-1-1.6 0-1.2.6-1.5 2.3-1.1 1.9.5 2 .4.6-.6-.9-.7-1.9-2.2-2.3-3.5-.4-1.2-1.4-2.2-2.1-2.2-3.2 0-3.8-3.9-1.9-12.7 1.3-6.5 1.5-8.6.5-9.2-1.7-1.1-.2-4 2.4-4.7 2.6-.6 6.5 1.1 6.5 2.9 0 .6 1.7 2.6 3.7 4.4 2.7 2.4 3.9 3 4.5 2.1.6-1 .8-1 .8.1 0 .7.6 1.1 1.5.7.8-.3 1.5 0 1.5.5 0 .6.9.9 2 .6s2-.1 2 .4.7.9 1.5.9 1.5-.5 1.5-1.2c0-.6 1-.1 2.1 1.1 1.6 1.7 2.4 2 2.9 1.1.6-.9.9-.9 1.4.1.5 1.1.7 1.1 1.2.2.8-1.9 3.4-1.6 3.4.3 0 1.2.7 1.5 3 1.2 1.7-.3 3 0 3 .5s1.6.7 3.5.5 3.5 0 3.5.5 2.7.7 6 .5 6-.1 6 .4c0 .4.7.8 1.5.8s1.5.7 1.5 1.5.7 1.5 1.5 1.5 1.5-.7 1.5-1.5c0-1 1-1.5 3.1-1.5 3.3 0 6.7-2.4 4.9-3.5-.6-.4-1.1-3-1-5.8.1-13.5-1.6-19.4-2.2-7.4l-.3 6.2-7.4.3c-4.3.2-7.1 0-6.7-.6.5-.9-2.7-.9-5.4 0-.8.3-4.1 1-7.3 1.6-6.2 1.2-10.2.1-9.2-2.5.2-.7-.6-1.5-2-1.9-1.4-.3-2.3-1-2-1.4.3-.5-.4-.6-1.5-.3s-2 .1-2-.3c0-.5-1.8-1-4-1.1-2.2 0-4.6-.5-5.3-1.1-.7-.5-4.1-1.3-7.7-1.7-5.8-.7-15.8-4.3-12.1-4.5 1.1 0 .9-.4-.5-1.5-1.8-1.3-1.7-1.4 1.7-1.5 2 0 5.6.7 8 1.5C42 280.8 78.3 288 87.4 288c2.4 0 2.6-.4 2.6-4 0-2.2.5-4 1-4 .6 0 1-1.4 1-3.2 0-4.4 7-11.1 13.3-12.6 6.7-1.7 13.6-1.4 18.5.8 3.4 1.5 4.2 2.4 4.2 4.6 0 2.1-.3 2.4-1.3 1.5-.8-.6-1.6-.8-1.9-.5-.4.3-1.9-.1-3.5-1-2.6-1.3-3-1.3-3 0 0 .8.4 1.4.9 1.4.4 0 .8.4.8 1s-1 .6-2.7-.1c-2.2-.8-3.5-.6-7 1.2-5 2.6-8.4 5.8-6.2 6 .8.1.3.4-1.1.8-1.8.5-2.6 1.5-2.8 3.4-.2 1.5-.8 2.7-1.3 2.7-1.7 0-.9 2.7 1.7 5.1 2.1 2 2.4 2 1.8.5-.6-1.6-.4-1.8.9-1.3 1.4.5 1.6.3.8-1.1-1.3-2.5-.3-6.7 2.3-9.2l2.3-2.1-.7 4.8c-.8 4.8-.1 6.8 2.8 8.6 2.2 1.4 1.4 4.7-1.1 4.7-2.8 0-5.1 4.9-3.1 6.7.6.7 1.5.9 1.8.5.4-.3 1.1-.1 1.5.6.5.9 1.5 1 3.2.4 1.3-.5 3.2-.8 4.2-.7.9.2 1.7-.3 1.7-1.1s.7-1.4 1.5-1.4c1 0 1.5 1 1.5 2.8.1 2.3.2 2.4 1.1 1 .8-1.4 2.3-1.8 6.4-1.8 3 0 5.5.5 5.5 1 0 .6 1.4 1 3 1q3 0 3-1.5c0-.8.7-1.5 1.5-1.5s1.5-.7 1.5-1.6c0-1.4.3-1.5 2.3-.2 2.6 1.7 5.7 1.3 5.7-.8 0-.8-.3-1.4-.7-1.4-.5 0-.9-1.6-1-3.4-.1-3.1.2-3.5 2.5-3.9 1.8-.3 1.3-.4-1.5-.6-4.2-.1-6.3-2.1-2.3-2.1 1.1 0 2.8-.4 3.8-.9 1.8-1 23.6-5.1 27.1-5.1 1.2 0 2.1.6 2.1 1.5 0 .8-.5 1.5-1.1 1.5-2.2 0-11.7 4.9-12.2 6.4-.4.9.1 2 1.1 2.6 1.3.9.7 1-2.8.7-2.5-.3-3.6-.2-2.5.1 1.2.4-.9 1-5.5 1.7l-7.5 1.1 3 1.5c3.3 1.8 5.5 1.5 5.5-.7 0-2 2.7-1.7 3.9.4 1 1.5 1.1 1.5 1.7-.5.7-2.5 2.4-2.9 4.2-1.1.9.9 1.2.9 1.2-.1 0-.9.9-1.2 2.5-.9 1.4.3 2.5.1 2.5-.5 0-.5 1.1-.7 2.5-.5 1.4.3 2.5.1 2.5-.5 0-.5.9-.7 2-.4s2 .1 2-.4c0-1.4 2.8-1.1 3.3.4.3.7.6.5.6-.5.2-3.8 5.1-1.5 5.1 2.3 0 1.6.5 2.9 1 2.9.6 0 1-.4 1-1 0-3.1 6.3 2 8 6.4 1.2 3.2.3 10.6-1.4 12.1-1.7 1.4-2.7 4.3-1.7 4.7.5.2 1.2 2.2 1.6 4.6.6 3.7.5 4.2-1.3 4.2-1.5 0-2.2-1.3-3.6-6.7-1-3.8-2.1-7.9-2.6-9.3s-1.6-5.2-2.6-8.5c-.9-3.3-2-6.3-2.3-6.7-.3-.3-4.7.2-9.7 1.3-5 1-13.8 2.5-19.5 3.3s-9.6 1.4-8.6 1.5c.9.1 1.7.8 1.7 1.7 0 2.1 2.9 4.3 5.6 4.4 1.6 0 2.3.8 2.8 3.1 1.1 5.5.7 8.9-.9 8.9-.8 0-1.5-.7-1.5-1.5s-.7-1.5-1.5-1.5c-1.2 0-1.5 1.4-1.5 6.5s.3 6.5 1.5 6.5c.8 0 1.5-.7 1.5-1.5s.7-1.5 1.5-1.5c1.3 0 1.5 3.6 1.5 26s-.2 26-1.5 26c-1.1 0-1.5 1.2-1.6 4.8 0 2.6-.4 5.5-.8 6.5-.6 1.7-.8 1.7-3-.2-3-2.6-2.9-2.6-5.3.2-2 2.2-2.1 2.2-36.7 2.5-32.7.2-34.9.1-36.4-1.6m75-26.4c-.2-1.3-.4-.5-.4 1.7-.1 2.2.1 3.2.4 2.3.2-1 .2-2.8 0-4m.5-28.5c.2-10.5 0-18.6-.4-18-.3.6-.6 10.3-.6 21.6.1 24.8.6 22.9 1-3.6M160 355c0-.5-.7-1-1.5-1s-1.5.5-1.5 1c0 .6.7 1 1.5 1s1.5-.4 1.5-1m0-13.5c0-1.6-.6-2.5-1.5-2.5s-1.5.9-1.5 2.5.6 2.5 1.5 2.5 1.5-.9 1.5-2.5m-9-27.7c-2.9-2.4-10-2.4-12.7 0-2 1.6-1.8 1.7 4.4 1.8 4.6 0 6.8.5 8.1 1.8 1.6 1.6 1.7 1.6 2.1-.1.2-.9-.7-2.5-1.9-3.5m-26.7.5c-.3-.7-1.4-1.5-2.5-1.8-2.8-.9-12.8.4-14.3 1.9-1 1 .5 1.2 8 1.2 6.8-.1 9.1-.4 8.8-1.3m33.7 0c0-.4-1-1.7-2.2-3-1.8-1.9-3.1-2.3-8.2-2.2l-6.1.1 4.5.9c2.5.5 5.6 1.8 7 2.8 2.5 2 5 2.7 5 1.4m-43.2-6c-1-.2-2.8-.2-4 0-1.3.2-.5.4 1.7.4 2.2.1 3.2-.1 2.3-.4"/><path d="M334 393.6c0-.7.9-1.6 2-1.9 1.4-.3 2-1.4 2-3.1 0-2.7 2.4-3.7 3.3-1.3.4 1 .7 1 1.8 0 2-2-.2-3.3-4.4-2.6-2.7.4-3.7 1-3.7 2.4 0 2.8-3.8 2.5-4.3-.3-.4-2.2-.4-2.2-.6.2-.1 2.8-3.8 5-8.3 5H319v-7.5c0-6 .3-7.5 1.5-7.5.8 0 1.5.7 1.5 1.5s.7 1.5 1.5 1.5c1.2 0 1.5-1.3 1.5-5.5 0-3-.4-5.5-1-5.5-1.9 0-1-1.6 1.9-3.3 3.2-1.9 4.2-1.4 3.7 1.7-.2 1.2-.1 1.6.1.9s1-1 1.6-.7c1 .3 4.8.9 9.5 1.3 2 .2 1.3 3.1-.8 3.1-1.5 0-2 .7-2 2.5 0 2 .5 2.5 2.5 2.5 2.1 0 2.5.5 2.5 2.8 0 1.5.9 3.5 2 4.5 1.9 1.6 2 1.6 2-.4 0-1.1.7-2.7 1.5-3.5 1.5-1.5 1.6-1.5 1.9.9.1.6 1 1.1 2.1.9 3.5-.5 4.6-1.2 4-2.2-.3-.5.1-1 .9-1 1.8 0 1.9 1.4 1 8.4-.6 4-1 4.6-3 4.6-1.5 0-2.4.6-2.4 1.5 0 1.1-1.2 1.5-4.9 1.5-4.3 0-5-.3-5.4-2.2l-.4-2.3-.8 2.3c-.6 1.7-1.5 2.2-4.1 2.2-2.2 0-3.4-.5-3.4-1.4m15-3.6c0-1.1-.4-2-.9-2-1.4 0-2.3 1.8-1.6 3 1 1.7 2.5 1.1 2.5-1m7-2.5c0-.8-.7-1.5-1.5-1.5-2.6 0-1.8 2 1.3 2.9.1.1.2-.6.2-1.4m-16.2-8.2c.2-.8-.5-1.3-1.7-1.3s-2.4-.7-2.7-1.5c-1-2.4-3.4-1.8-3.4.9 0 1.8.7 2.6 2.3 2.9 3.3.7 5 .3 5.5-1m-263.9 9.5c-.4-4-.5-31.6-.1-33 .2-1 1.1-1.8 1.8-1.8 1.1 0 1.4 3.3 1.4 18 0 15.3-.2 18-1.5 18-.8 0-1.6-.6-1.6-1.2m5.3-12 .3-12.3 5.5-.1c3-.1 8.5.1 12.3.4 6.6.5 6.7.5 6.7 3.3 0 1.6-.4 2.9-1 2.9-.5 0-1-.8-1-1.8 0-1.6-.8-1.8-7.1-1.6-8.1.3-10.7 1.4-3.3 1.4 2.8 0 5.5.5 6.2 1.2s1.2 3.9 1.2 7.5v6.3h-7c-10.3 0-8.7 2 1.8 2.2l8.7.2-7.2.3c-4 .2-7.3.8-7.3 1.3 0 .6-2 1-4.5 1h-4.6zm3.9 5.6c-.9-2.8-.9-2.9-1-.3-.1 1.4.2 2.9.6 3.2 1.1 1.2 1.3.2.4-2.9m12.4-5.4c0-2.1-.5-2.6-3.2-2.8-3.1-.3-3.3-.1-3.3 2.8s.2 3.1 3.3 2.8c2.7-.2 3.2-.7 3.2-2.8m17.5 7c0-4.1.3-5 1.8-5.1.9-.1-.2-.5-2.5-1.1-4.1-.9-5.6-2.9-3.3-4.3.5-.3.7-1.2.3-2-.3-.8-.1-1.5.5-1.5.5 0 1.3-1 1.7-2.2l.8-2.3.4 2.3c.3 1.5 1 2.2 1.9 1.8.8-.3 1.4.1 1.4.8 0 1.6 2.7 2.9 3.5 1.7.3-.5 1.5-.7 2.8-.5l2.2.5-2.2-1.2c-3.1-1.6-2.9-3.9.2-3.9 1.4 0 2.5-.4 2.5-1 0-.5 1.6-1 3.5-1 2.9 0 3.5.4 3.5 2.2 0 2.1 0 2.1-1.5.2-1.6-2.1-1.8-1.7-1.5 4.3.2 4.6-1.6 6.3-6.4 6.3-1.4 0-2.6.5-2.6 1.1 0 .7-.8 1.8-1.7 2.5-1.5 1.1-1 1.2 3.7.7 3-.3 5.7-.9 6-1.3s1.5-1 2.8-1.4c1.7-.6 2.2-1.5 2.2-4.2 0-3.8 2.4-4.8 3.3-1.4.4 1.6 1.4 2 4.6 2h4.1v4.5c0 4.5 0 4.5-3.5 4.5-2.8 0-3.5.4-3.5 2 0 1.7-.7 2-4.5 2-4.1 0-4.5-.2-4.5-2.5 0-1.4-.4-2.5-.8-2.5-.5 0-1.4 1.1-2 2.5-1 2.3-1.7 2.5-7.2 2.5h-6zm309-6.5c-.7-.8-2.5-1.5-4-1.5-2.5 0-2.8-.5-4.9-8.1-2.8-10.2-3.8-17.9-2.3-17.9 1.3 0 3.7 4 2.5 4-.4 0-.2.4.6.9s1.4 2.3 1.5 3.9c.1 2.7.4 3 2.4 2.5 1.2-.3 3 .1 3.9.8 1.3 1.1 1.7 1.1 2 .2 1.1-3.2 3-.8 4.5 5.5 1.5 5.9 1.5 7 .2 9-1.7 2.5-4.6 2.9-6.4.7m-133.6-3c-.3-1.9-.4-5.9 0-8.8.3-2.8.6-5.3.6-5.4 0-.2.7-.3 1.5-.3 1.2 0 1.5 1.7 1.5 9 0 7.2-.3 9-1.5 9-.8 0-1.7-1.4-2.1-3.5m14.4 2.8c1.8-.2 4.5-.2 6 0s0 .4-3.3.4-4.5-.2-2.7-.4m-6-3c-2.5-.4-2.8-.9-2.8-4.2 0-3 .4-4 2-4.4 1.2-.3 2-1.4 2-2.5q0-3.3 4.2-3.9c2-.3 2 2.5 0 5-1 1.2-.9 1.5.7 2 1.1.3 2.2 0 2.5-.7.2-.6.7.4 1.2 2.3.4 2 1.4 3.6 2.6 3.8 1 .3 1.8.9 1.8 1.3 0 1.7-7.1 2.4-14.2 1.3"/><path d="M349.3 373.8c-2.4-1.2-2.7-2.9-1.3-6.3.8-1.8 1-1.7 2.1 1.3.8 1.7 2 3.2 2.9 3.1q1.5 0 .3-.6c-1.8-.7-1.6-2.3.2-2.3.8 0 1.5-.4 1.5-.9s.3-1.7.6-2.6c.5-1.3.2-1.5-2-.9-2 .5-2.6.2-2.6-1 0-1.7-2.6-2.3-3.2-.7-.1.4-1.4 1.2-2.7 1.6-2.4.7-2.4.7-1.8-4.4.4-3 .2-5.1-.3-5.1-.6 0-1 .9-1 2 0 1.4-.6 2-2.2 1.9-1.7-.1-1.9-.2-.5-.6.9-.2 1.7-1.1 1.7-1.8 0-1.1-.8-1.3-3.1-.8l-3.1.6.7-4.4c.4-2.4 1.1-4.8 1.6-5.4 2.1-2.2.8-3.1-3.3-2.5-2.6.3-5.3.1-6.8-.7-1.4-.7-3.7-1.5-5.2-1.8-2.6-.5-2.8-.9-2.8-5.6v-5.1l8.8.7c4.8.4 9 .9 9.3 1.1.4.2 1 4.2 1.4 8.9s1 8.3 1.5 8c1.1-.7 2.5-7.4 2.2-10.6-.3-2.6-.2-2.6 5.8-2.5 4.2.1 6-.3 6-1.1 0-.9-2.3-1.4-7.7-1.5-7.7-.2-7.7-.2-1.5-.5 3.4-.2 6.2-.8 6.2-1.3 0-.6 2-1 4.5-1h4.5v5.5c0 4.2-.3 5.5-1.5 5.5-.8 0-1.5-.7-1.5-1.5s-.7-1.5-1.5-1.5c-1.1 0-1.5 1.2-1.5 5 0 4.8-.1 5-2.7 5.1-1.7.1-2.1.3-1 .6.9.2 1.7.9 1.7 1.4s1.1.9 2.4.9c2.9 0 4.1 3.9 3.1 9.9-.4 2.4-.2 4.2.4 4.6.6.3 1.1 2.4 1.1 4.6 0 3.9 0 3.9-3.7 3.8-2.1 0-4.8-.5-6-1.1m7.7-17.5c0-1.1-.6-1.4-2.2-.9-1.3.3-3.6.6-5.3.7-2.7.1-2.5.2 1.5 1.3 5 1.4 6 1.2 6-1.1m-7-12.3c0-.5.3-1.5.6-2.4.4-1.2 0-1.6-1.5-1.6-1.2 0-2.1.6-2.1 1.3 0 .8-.4.7-1-.3-.8-1.2-1-1-1 1.1 0 1.4.3 2.8.6 3.1.7.8 4.4-.2 4.4-1.2m-16-5c0-.5-.9-1-2-1s-2 .5-2 1c0 .6.9 1 2 1s2-.4 2-1m-124.3 28.1c-1.9-7.7-2.2-14.1-.7-14.1.6 0 1 .7 1 1.5s.5 1.5 1.1 1.5.9.9.6 2-.1 2 .4 2 .9 1.3.9 2.9c0 1.7.5 3.3 1 3.6 1.6 1 1.2 6.2-.6 6.9-.9.3-1.7.6-1.8.6-.2 0-1-3.1-1.9-6.9m-197.7 5c0-.6-.7-1.1-1.5-1.1-.9 0-1.8-.7-2.1-1.5-.4-.8-1.7-1.5-3-1.5-2.1 0-2.4-.5-2.4-3.5 0-3.2.2-3.5 1.9-2.5 1.1.5 2.3 1.5 2.6 2 .4.6 1.1.8 1.6.5.5-.4.9-.2.9.3s.9 1.2 2 1.5c2.3.6 2.7-1.1.5-1.9-.8-.4-1.5-1-1.5-1.5s.7-.9 1.5-.9 1.5-.4 1.5-1c0-.5-.4-1-1-1-.5 0-1-.4-1-1 0-.5.7-1 1.5-1 1.8 0 2-2 .3-2.1-.7 0-.2-.5 1.2-1.1l2.5-1-2.2-1.5c-2.8-1.9-3-3.3-.3-2.6 1.2.3 2.2-.1 2.6-1.1.3-.9 1-1.6 1.5-1.6 3 0-2.3 25.2-5.4 25.8-.9.2-1.7-.1-1.7-.7m298.3-5.6c-1.7-1.9-1.6-2.5.2-2.5.8 0 1.5.9 1.5 2 0 2.3-.1 2.4-1.7.5m-175.5-2.3c-.6-2.2.8-6.2 2.1-6.2 1.1 0 2.3 3.2 1.9 5.1-.2.8.7 1.5 2 1.7 1.2.2 2.2-.1 2.2-.7s-.8-1.1-1.7-1.2c-1.1 0-1.3-.3-.5-.6.6-.2 1.2-1.1 1.2-1.9s.5-1.4 1.1-1.4c.5 0 .7-.5.4-1-.4-.6-1.4-.9-2.3-.8-.9.2-1.8-.5-2-1.4-.2-1.3.3-1.8 1.8-1.8 3.4 0 5 2.4 5 7.4v4.6h-5.4c-4.3 0-5.5-.4-5.8-1.8m195.5-1.2c-.1-1.6.4-2 3.3-2 2.7 0 3.4.4 3.4 2s-.7 2-3.3 2-3.3-.4-3.4-2m-230.8-3c-.4-1.2-1.5-2-3-2-1.2 0-2.3-.6-2.2-1.2.2-6-1.5-9.3-2.6-5-.3 1-.5.6-.6-1.1-.1-2.4-.5-2.7-3.1-2.5-2.1.2-2.9.7-2.5 1.6.3.7.5 1.6.5 1.8s.7.4 1.5.4 1.5.7 1.5 1.5c0 1-1 1.5-3.4 1.5-3.3 0-3.3-.1-4-5.2-.3-2.9-.6-10.4-.6-16.5V322h4c2.9 0 4 .4 4 1.5 0 .8-.6 1.5-1.4 1.5s-1.8.5-2.1 1.1c-.9 1.4-1.3 15.6-.5 16.9.3.5 3.7 1 7.6 1.1 10.6.1 11.4 0 11.4-1.6 0-.8.7-1.5 1.5-1.5 1 0 1.5 1 1.5 3.4 0 3.2-.3 3.5-3.2 3.8-3.1.3-5.3 2.8-2.4 2.8.8 0 2 .8 2.5 1.8.9 1.4 1.2 1.5 2 .3s1.2-1.2 2.5.2c.9.8 1.6 2 1.6 2.6s.6 1.1 1.4 1.1c.9 0 1.2.7.9 1.9s-1.7 2.1-4.1 2.5c-6.3 1-8 .7-8.7-1.4m8.2-2.1c-1.4-.8-2.2-.8-3 0s-.3 1.1 1.9 1.1c2.5-.1 2.7-.2 1.1-1.1m-5.4-2.3c.4-1 0-1.2-1.4-.9-2.2.6-2.6 2.3-.5 2.3.8 0 1.6-.6 1.9-1.4m27.7.1c0-4.6 1.2-8.7 2.6-8.7.8 0 1.4.3 1.4.8 0 .4.3 1.6.6 2.7.3 1.4-.4 3-2 4.8l-2.6 2.8zm108.1 1.1c.7-5.3-1.8-6.7-5.8-3.2-2.7 2.3-5.3 3.2-5.3 1.7 0-1.7 6-29.7 6.5-30.1.2-.3.6.1.8.9 2 7 2.9 11.8 2.8 14.1-.1 2.2.2 2.5 1.9 2.1 1.1-.3 2.3-1.6 2.6-2.9.8-3 3.4-3.1 3.4-.1 0 1.2-.8 5.9-1.7 10.5-1.4 6.7-2.1 8.2-3.5 8.2-1.1 0-1.8-.6-1.7-1.2M6 350.3c0-1 .4-2.5 1-3.3.8-1.2 1-1.2 1.5.3.4.9 0 2.3-.9 3.2C6.1 352 6 352 6 350.3m292.2-2.3c-.1-1.9-.5-6.5-.9-10.2l-.6-6.8h3.5c2.3 0 3.8.6 4.2 1.5.4 1-.1 1.5-1.4 1.5-1.1 0-2 .4-2 .9 0 1 4.9 2.1 9.6 2.1h3.4v12.1l-6.2-.3-6.3-.3-.1-5c-.1-2.7-.6-6.1-1-7.5-.7-1.9-1-.3-1.5 6.5-.3 5-.6 7.4-.7 5.5m12.8-5c0-1.1-.7-2-1.5-2s-1.5.5-1.5 1.1c0 .5-.4.7-1 .4-.5-.3-1 .1-1 .9 0 1 .9 1.6 2.5 1.6 1.8 0 2.5-.5 2.5-2m-108.4-.2c-.9-3.7-.7-10.8.4-10.8.6 0 1 .6 1 1.4s.4 1.6.9 1.8c.4.2 1.1 2.4 1.5 5.1.7 4.2.5 4.7-1.2 4.7-1.2 0-2.2-.9-2.6-2.2m-126.8-2.5c-.6-2.8.2-5.3 1.8-5.3.9 0 1.4 1.1 1.4 3.5 0 3.7-2.4 5-3.2 1.8"/><path d="M86.7 340.2c.7-.5 1.1-2.8.9-6.5-.3-5-.1-5.7 1.5-5.7s1.9.8 1.9 4.6c0 3.7.4 4.7 2 5.1 1.1.3 2 1.2 2 1.9 0 1-1.4 1.4-4.7 1.4-2.7 0-4.3-.4-3.6-.8m51.3-7.3c0-1.9-2.7-3.7-6.1-4.2-2.5-.3-2-.4 1.9-.5 6.2-.2 7.1-2.2 1-2.3-2.4 0-5.3-.2-6.5-.5-2.1-.3-2.3 0-2.3 3.6 0 3.3-.3 4-2 4-1.8 0-2-.7-2-5.5V322h11c9.1 0 11 .3 11 1.5 0 .8-.6 1.5-1.4 1.5-2 0-3 1.8-1.7 3.3 1.3 1.7.3 5.7-1.5 5.7-.8 0-1.4-.5-1.4-1.1m6.3-2.9c0-2.5.2-3.5.4-2.2.2 1.2.2 3.2 0 4.5-.2 1.2-.4.2-.4-2.3m213-1.7c-1.5-.3-2.3-1.2-2.3-2.4 0-1.7.5-2 3.7-1.7 2.3.3 4.1 1.1 5.1 2.6 1.4 2.1 1.3 2.2-1.4 2.1-1.6-.1-3.9-.4-5.1-.6m-110.1-17.5c0-1.8-.6-3.4-1.1-3.6-2-.7-1.1-2.4.9-1.9 1.5.4 2 0 2-1.4 0-2.3 1.8-2.5 2.6-.4.4.8.3 3.5 0 6-.6 3.4-1.2 4.5-2.5 4.5s-1.8-.8-1.9-3.2M115 294c0-1.3.7-2 1.9-2 2.6 0 3.4-4.7 1.3-8.2-.9-1.6-2.2-2.8-2.9-2.8s-1.3-.9-1.3-2c0-2.1 3.4-2.9 4.5-1 .4.6 1.4.9 2.3.8 1.1-.2 1.6.3 1.4 1.5-.2.9.1 1.7.5 1.7 1 0 1 6.1 0 7.8-.5.6-.6 1.2-.3 1.2s-.4 1.1-1.6 2.5c-2.6 3.1-5.8 3.3-5.8.5m226-19.5c0-.8.7-1.6 1.5-1.6.8-.1 2-.3 2.5-.4.6-.1 1.9-.3 3-.4 1.1 0 2-.8 2-1.6 0-1.9 3.9-2 4.6-.1.8 2.1 4.4 1.6 4.4-.6 0-1.8-1.4-2.3-6.2-1.9-1.6.1-2.8-.3-2.8-.8 0-1.5-4.7-1.4-5.2.2-1.1 3.1-43.5 2.5-47.8-.8-.8-.6-2.7-1.7-4.3-2.5-2-1-2.4-1.6-1.5-2.2.8-.5.1-.8-2-.8-1.8 0-3.1-.3-2.8-.8.2-.4-2.2-.8-5.4-.8-3.3 0-5.7.3-5.4.7.2.4-.6.9-1.8 1.1-1.3.2-2.2.9-2 1.6.1.7-.9 1.2-2.3 1.2-1.6 0-2.5.6-2.5 1.5 0 .8.7 1.5 1.5 1.5s1.5-.4 1.5-1c0-.5.5-1 1-1 .6 0 1 .7 1 1.5s.7 1.5 1.5 1.5 1.5-.5 1.5-1.2c0-.6.9-.2 2 1 2.4 2.6 4 2.8 4 .7 0-.8.5-1.5 1-1.5.6 0 1 .7 1 1.5 0 1.8 5 2.1 5 .3.1-.9.5-.7 1.3.3 1.5 2 7.7 3.1 7 1.2-.4-.9.5-1.3 3.1-1.3 2.5 0 3.6.4 3.6 1.5 0 .8.7 1.5 1.5 1.5s1.5.7 1.5 1.6c0 1.5-1.2 1.6-10.7 1-15.4-1-41.9-6.3-43.4-8.7-.3-.6-2.9-1-5.7-1.1-5 0-5.2-.1-5.2-2.8 0-2.8-1.5-4-5.1-4-1 0-1.9.6-1.9 1.3s-.5.4-1.1-.5c-1.5-2.7 1.5-6.4 7.6-9.2l5.2-2.5.8-6.8c.4-3.7.9-7.7 1.2-8.8s.8-5.1 1.3-9c.8-6.7.7-7.2-2.2-11.8-2.8-4.4-3.3-4.7-6.7-4.5-3 .3-3.6 0-3.9-1.9-.2-1.4.3-2.3 1.7-2.8 2.5-.8 2.6-1.9.4-10.1-1.4-5-2.1-6.4-3.6-6.4s-1.8-.5-1.3-2.2c1.5-5 2.6-16.6 2-20.7-.5-3.3-.4-4.2.6-3.6.8.5 1.1-.2.9-2.8-.2-2 0-3.9.4-4.3s.7-1.8.7-3.1 1.1-4.6 2.5-7.4l2.6-5-1.7-9.7c-1.7-9.7-1.9-21.8-.8-39 .4-6.2.2-9.2-.5-9.2-.6 0-1.1-.8-1.1-1.7 0-1.5.2-1.6 1-.3.7 1.1 1 .5 1-2.3 0-5.2 2.9-9 9.2-12.1 8.6-4.3 11.6-3.1 5.6 2.3-3 2.6-3.1 3-1.6 4.5.9.9 2.1 1.6 2.7 1.6 2 0 1.1 2.8-1.4 4.4s-2.5 1.9-2.5 15.1c0 11.3-.2 13.5-1.5 13.5-.8 0-1.5-.7-1.5-1.5s-.7-1.5-1.5-1.5q-1.5 0-1.5-3c0-1.7.5-3 1.3-3s1.2-2.3 1.2-8c0-6.4-.3-8-1.5-8.1-1.1 0-1-.2.3-.7 1-.4 2.4-2.1 3.3-3.7.9-1.8 1-2.5.3-1.8s-2.1 1.3-3 1.3c-2.2 0-2.9 2-2.9 8.1 0 2.7-.4 4.9-1 4.9-.5 0-1 .7-1 1.5s.5 1.5 1 1.5c.6 0 1 1.9 1 4.3 0 9.3 1.3 17.7 2.6 17.7.9 0 1.4-1.2 1.4-3.5 0-2.8.4-3.5 2-3.5 1.7 0 2 .7 2 4.3 0 2.3.7 8.5 1.5 13.7 2.8 17.9 2.9 18.5 1.1 20.2-.9.9-1.6 2.1-1.6 2.7s-.4 1.1-1 1.1c-.5 0-1 .9-1 2s-.4 2-.8 2c-1.1 0-3.2 14.6-3.2 21.7 0 4.5.3 5.2 2.3 5.6 1.2.3.6.4-1.3.4-3-.2-3.5-.6-3.8-2.9-.2-1.6-.9-2.8-1.8-2.8-1 0-1.4-1.3-1.4-4.5 0-3.3.4-4.5 1.5-4.5 1 0 1.5-1.1 1.5-3.5 0-1.9-.4-3.5-1-3.5-.5 0-1-.4-1-1 0-.5.7-1 1.5-1s1.5-.7 1.5-1.5-.4-1.5-1-1.5c-.5 0-1-.5-1-1.1s.9-.9 2-.6c1.5.4 2 0 2-1.3 0-1.1.5-2.2 1-2.5 1.7-1 1.1-3.5-.7-3.5-1.5 0-1.6.2-.3 1 1.3.9 1.3 1-.1 1-3.2 0-9.9 10.5-9.9 15.7 0 4.3 4.3 17.3 5.7 17.3.7 0 1.3.7 1.3 1.5 0 .9 1 1.5 2.3 1.6 1.8.1 1.8.2.4.6-1.1.3-1.6 1-1.3 2 .3.8.6 1.7.6 1.9s.9.4 2 .4c1.5 0 2 .7 2 2.5 0 1.4.9 3.4 2 4.5 2.5 2.5 2.5 3.6.1 4.3-2 .5-2.1 1.6-.6 5 .4 1.1 1.4 1.6 2.4 1.2 1.1-.3 3.8 1.6 8.1 6.1 3.6 3.6 8 7.4 9.8 8.5 1.7 1.2 3.2 2.9 3.2 3.8 0 2.4-7.6 2.6-14.7.4-5.2-1.7-5.3-1.7-7.8.7-1.3 1.3-2.7 3.2-3.1 4.3-.7 2.3 2.4 9.7 4.2 9.7.7 0 1.5.8 1.8 1.8.4 1.4.5 1.4.4-.3-.1-4.4.3-5.5 1.7-5.5s1.5 1.3.9 9c-.7 8.9-.7 9 1.8 9.9 13.9 5.3 48.6 8.8 75.3 7.7 16.6-.7 40.3-3.5 49-5.8l5-1.3-.4-8c-.9-16.4-.8-17.9 1.2-18.3 1.6-.3 1.8.2 1.6 3.5-.1 2.1.1 4.5.4 5.3s1.1 5.5 1.6 10.4c.9 7.8.9 9.2-.5 10.8-.9.9-2 1.5-2.5 1.2-.4-.2-.3.9.2 2.6.6 1.6 1.5 3 2.1 3 .5 0 .7-.4.4-.9-.3-.4.5-.6 1.8-.4 1.3.3 2.7 0 3-.6.4-.6 1.8-1.1 3.2-1.1 1.3 0 2.4-.4 2.4-1 0-1.8 2.9-1.1 4 .9.5 1.1 1 2.4 1 2.9 0 1.3-12.3 6.2-15.4 6.2-1.4 0-2.6.4-2.8.9-.4 1.2-22.4 4.8-37.3 6.1-15.2 1.2-14.5 1.3-14.5-.5m30-5.7c0-.6 1.1-.7 2.5-.4 1.8.5 2.5.2 2.5-.9 0-1.8 2.1-2 3.8-.3 1 1 1.4 1 2 .1.4-.7 1.9-1.2 3.2-1.1 6.1.4 8-.2 8-2.3 0-1.3-.6-2-1.7-1.8-3.3.3-4.2-.1-3.7-1.6.4-.8.1-1.5-.6-1.5-.6 0-.9-.4-.5-.9.3-.5.1-1.2-.5-1.6-.5-.3-1-.1-1 .5 0 .7-.8.9-1.9.5-1.1-.3-2.3 0-2.7.7-.4.6-.2 1.4.4 1.6 1.9.6-1 4.2-3.5 4.2-1.2 0-2.5.5-2.8 1-.3.6-2.5 1-4.8 1.1s-5.3.5-6.7.9l-2.5.8 2.8.1c1.5.1 3 .7 3.3 1.5.6 1.5 4.4 1 4.4-.6m-113.2-7.9c-.6-.4-.8-1.1-.5-1.6s.2-1.5-.4-2.3c-.7-1.3-.9-1.2-.9.3 0 1.6-1 2.1-3.7 1.8-2.1-.3-.1 3.8 2.1 4.1 2.4.4 4.9-1.3 3.4-2.3m-14.4-4.8c-.2-.2-1-.1-1.9.3-1.3.5-1.4.8-.3 2s1.4 1.2 1.9-.3c.4-.9.5-1.8.3-2m9.6-115.6c0-.8-.6-1.5-1.4-1.5-2 0-2.9 1.7-1.4 2.3 2.2.9 2.8.7 2.8-.8m-1.4-18.7c-.3-2.9-.5-5.6-.5-6-.2-2-3.1-.6-3.1 1.5 0 5 1.3 9.7 2.7 9.7 1.1 0 1.3-1.2.9-5.2M652.8 273c-17.8-3.2-32.5-14.2-38.3-28.7-3.6-9.1-4.5-22.6-2-30.4 3.7-11.5 10.3-20 20.5-26.4 4.6-2.9 5.3-3.1 15-5 3.6-.6 5.6-1.4 4.6-1.6-1.1-.2 2.9-.4 8.7-.5 5.8 0 10.4.3 10.1.8-.5.8 3.2 1.2 6.9.9.9-.1 1.7.3 1.7.8 0 .6.9 1.1 2 1.1 1.2 0 3.8.9 6 2 2.9 1.5 3.8 2.5 3.4 3.8-.5 1.4-.4 1.5.5.2.9-1.2 2-.5 7.1 4.5 4.4 4.4 5.8 6.4 5.4 7.8-.7 2.2 2.5 8.7 4.2 8.7.7 0 1.7 1.4 2.3 3.1 1.4 4 1.4 3.9-.4 3.9-.8 0-1.5.7-1.5 1.5s.6 1.5 1.4 1.5c1.5 0 2.6 2.1 2.6 5.1 0 1.2-.5 1.6-1.5 1.3-.8-.4-1.5-1.6-1.5-2.9 0-2.7-2.4-4.9-4.5-4.1-.8.3-1.5 1.4-1.5 2.5s-.4 2.3-1 2.6c-.5.3-1 3.2-1 6.3 0 4.5.5 6.3 2.4 8.5 1.3 1.5 2.8 2.7 3.5 2.7 4.3 0-4.9 13.3-14 20.1-3.4 2.6-5.5 3.5-7.2 3.2-2.9-.6-8.7 2.2-8.7 4.1 0 .7-1.3 1.6-2.8 1.9-5.8 1.2-17.8 1.6-22.4.7m15.7-22.1c5.9-1.6 11.3-5.6 14.3-10.8 2.3-3.9 2.6-5.6 2.7-13.1 0-7.3-.4-9.3-2.6-13.5-1.5-3-4.2-6.2-6.8-8-3.6-2.5-5.3-3-11.9-3.3-4.2-.3-8-.9-8.4-1.6-.6-.8-.8-.8-.8.1 0 .7-1.7 2-3.7 2.8-3.4 1.5-3.9 1.4-4.9 0-1.8-2.4-5.6-1.4-7.4 1.8-1.4 2.6-1.4 2.9.4 4.2s1.8 1.6.2 4.9c-2.5 5.3-3 14.2-1.1 20.6.9 3 1.6 6.3 1.6 7.3 0 .9.5 1.7 1.1 1.7s2.7 1.2 4.6 2.6c6.3 4.8 14.8 6.4 22.7 4.3m94.5 22c-14.8-2.9-31.3-18.5-32.7-30.7-.2-1.9-.9-5-1.6-7-1.5-4.3-1.3-17.3.4-23.4 1.9-7.3 6-13.6 13-20.3 8.9-8.3 14.5-10.5 28.6-10.8 5.7-.2 10.6-.1 10.8.2.3.2 1.7.6 3.1.7 1.5.2 5.1 1.5 8 2.9 3 1.5 5.9 2.3 6.5 2 .7-.5 1-7.4.8-21.2-.1-12.5.2-20.8.8-21.4.5-.5 4.1-.9 7.9-.7l6.8.3-.2 4.5c-.3 3.4.2 5.2 1.7 7.2 1.2 1.4 2.1 3.3 2.1 4.2s.7 1.6 1.5 1.6c1.3 0 1.5 2.1 1.5 12.5s-.2 12.5-1.5 12.5c-1.2 0-1.5 1.3-1.5 5.6 0 4.6.3 5.5 1.5 5 1.3-.5 1.5 3.1 1.5 28.4 0 19.5-.3 29-1 29-.6 0-2 .9-3.2 2s-2.9 2-3.9 2c-.9 0-3.1 1.4-4.9 3-3.8 3.6-6.3 3.8-7.8.8-.8-1.8-1.1-1.9-1.1-.5-.1.9-.5 1.7-1.1 1.7-.5 0-3.9 2-7.4 4.4-8.6 5.9-17.7 7.6-28.6 5.5m24.3-22c5.1-1.4 10.1-6 11.5-10.6.6-2.1 1.1-10.1 1.1-17.8 0-16.3-.5-17.5-9.7-20.1-3.8-1.1-5.2-2-4.8-3s-.4-1.4-2.9-1.4c-2.6 0-3.5.4-3.6 1.8-.1 1.5-.2 1.5-.6-.2-.4-1.4-1.1-1.7-3.3-1.2-2.3.4-2.8.2-2.3-.9.3-.9-.1-1.5-1.1-1.5-.9 0-1.6.5-1.6 1 0 .6-.9 1-1.9 1-3.1 0-5.1 1.1-5.1 2.7 0 1 .7 1.4 2 1 2.8-.7 2.5 1.4-.6 3.7-3.1 2.2-5.6.8-3.4-1.9 1-1.2 1-1.5-.4-1.5-.9 0-1.6.7-1.6 1.5s-.4 1.5-1 1.5c-.5 0-1 .7-1 1.5s.7 1.5 1.5 1.5c2 0 1.9.3-.9 4.5-1.3 1.9-2.7 5.3-3.1 7.5-.4 2.5-1.2 4-2.1 4-.8 0-1.4.9-1.4 2s.7 2 1.5 2c.9 0 1.5.9 1.5 2.1 0 7.4 6.3 16.8 13.4 20 4.6 2.1 14 2.5 19.9.8m77.7 21.7c-6.8-1.4-8-2.2-8-4.8 0-1.7-.4-2-2.9-1.5-3.4.7-7.6-2.7-5.2-4.2.8-.5 1-1.4.7-2-1-1.5-3.6-1.4-3.6.2 0 .6-.9-.1-2-1.8-1.1-1.6-2-4.5-2-6.2 0-1.8-.4-3.3-1-3.3-.5 0-1-1.2-1-2.6s.4-2.3 1-1.9 1-.8 1-2.8c0-4.2 4.5-10.7 9.9-14.2 4.6-3.1 13.9-6.8 15.1-6 .5.3 1.1.2 1.4-.3.2-.4 3.3-.4 6.8 0 12.6 1.6 18.8 2 18.8 1.2 0-.5 1.3-.9 2.9-1 5.5-.2 6.1-.9 6.1-7.2 0-5.1-.4-6.2-2.7-8.4-1.6-1.5-4-3.1-5.5-3.7-3.1-1.2-3.6-2.6-1.3-3.5 1.2-.4 1.4-1.7 1-5.8-.3-2.9-.2-6.6.3-8.3 1.1-3.7 3.8-3.7 12 0 7.2 3.3 14.5 10.4 18.3 17.8 2.6 5 2.7 5.7 1.2 5.8-1.6 0-1.5.2.2.9 1.1.5 1.4.9.8.9-.7.1-1.3 1.3-1.3 2.7s-.4 2.3-1 1.9-1 2.6-1 8.2c0 6 .3 8.3 1 7.3s1 1.9 1 9.3c0 8.4.3 10.7 1.4 10.7.7 0 1.6 1.3 1.9 2.9.4 1.9 1.5 3.2 3.4 3.9 1.5.5 3.7 1.3 4.8 1.8 1.7.6 1.7.8.4 1.1-1.1.3-1.9 2-2.3 5.3-.5 3.6-1.1 5-2.2 5-.9 0-1.8.9-2.1 2-.6 2.4-1.6 2.5-3.7.4-.9-.8-1.6-1.1-1.6-.5 0 3.1-12.9-2.3-15.7-6.5-.8-1.3-2.4-2.4-3.4-2.4-2.3 0-3.5-2-1.8-3.1 1.1-.7 1-1.1-.6-2.3-3.8-2.9-5.9-2-7.4 3.2-.8 2.6-1.9 5-2.5 5.4-.7.5-.4.8.7.8 3.4 0 1.1 2.4-3.9 4.1-7.4 2.5-14.4 3.3-14.4 1.7 0-.7-1.1-1.3-2.5-1.3s-2.5.6-2.5 1.3c0 1.4.2 1.4-7-.2m24.5-16.7c2.2-.6 4.8-1 5.8-1 .9 0 1.7-.6 1.7-1.2 0-.7.9-1.8 2.1-2.5 5.2-3.3 6.2-15.6 1.3-16.8-1.3-.3-2.4-1.2-2.4-2s-1-1.4-2.5-1.4c-1.6 0-2.5.6-2.5 1.5 0 1.1-1.2 1.5-4.5 1.5s-4.5-.4-4.5-1.5c0-2.2-3.1-1.8-3.7.5-.6 2.2-2.9 2.7-3.5.8-.3-.7-3.2-1.4-7.2-1.6-7.3-.5-9.9.7-11 5.4-.4 1.3-1.1 2.4-1.6 2.4-1.7 0-1 6.4.8 8.6 2.4 2.9 5.7 4.5 7.7 3.8.9-.4 2.4.1 3.4 1 3.8 3.4 12.9 4.5 20.6 2.5m88.5 16.6c0-1.8-4.1-2-5.7-.4-1.8 1.8-7.5.2-12.3-3.2-4.8-3.5-8.4-10.4-7.4-14.3.3-1.3.1-2.7-.5-3-1.7-1.1-1.5-104.7.2-106.9 1.2-1.6 5.1-2.1 15.9-1.8 5.1.1 5.6.3 5.1 2.1-.3 1.1 0 2 .6 2s1.1 1.9 1.1 4.5c0 3.3.4 4.5 1.5 4.5 1.3 0 1.5 6 1.5 47.6 0 47.7.3 51.4 3.5 51.4.8 0 1.5.4 1.5.9 0 .6 1.2.9 2.6.8 1.5-.1 2.9.4 3.1 1.1.3.6-.2 1.2-1.1 1.2-1.2 0-1.6 1-1.6 3.5 0 2.4.5 3.5 1.5 3.5 2.1 0 2 5.9-.1 6.7-1 .4-2 0-2.6-1-1-1.8-3.8-1.2-3.8.9 0 .8-.7 1.4-1.5 1.4s-1.5-.7-1.5-1.5m-25.3-110.2c-.1-4.3-.3-1-.3 7.2 0 8.3.2 11.8.3 7.8.2-4 .2-10.7 0-15M499.3 270.8c-.6-.8-1-25.2-.9-64.3l.1-63 11.8-.3 11.7-.3V170c0 23.3.2 27 1.5 27 .8 0 1.5.9 1.5 2s.6 2 1.3 1.9c.6 0 11.3-11 23.5-24.3 12.3-13.4 24.4-26.4 26.9-28.9l4.5-4.7h13.9c7.7 0 13.9.3 13.9.7 0 1.8-5.2 7.2-6.5 6.7-1.1-.5-1.2-1.1-.4-2.6 1-1.8.7-1.9-3.8-1.6l-4.8.3-2.7 6.9c-2.8 6.9-2.9 8.6-.2 8.6 2.3 0 1.6 1.3-2.9 5.8-2.5 2.5-5.2 4.2-6.6 4.2-1.3 0-3.6 1.4-5.2 3.1-3.2 3.4-3.5 4.5-1.6 5.2.8.3 0 1.7-2.2 4-2.7 2.9-3.8 3.4-5.2 2.7-2.9-1.6-5.3-1.1-7.2 1.6-2.2 2.9-3.5 9.4-1.9 9.4.6 0 2 1.9 3.1 4.3 1.2 2.3 5.3 8.4 9.2 13.6 5.4 7.1 6.8 9.6 5.7 10.2-.9.6-.7.9.9.9 3 0 3.8 1.8 1.9 3.9-2.2 2.4-2 5.8.4 7.3 1.1.7 2 1.8 2 2.5s1.1 1.3 2.5 1.3c1.9 0 2.6.6 3 2.8 1 4.6 2.1 5.7 5.9 6 3.4.3 4.3 1.1 10.1 9 3.5 4.7 6.3 8.7 6.2 8.9-.2.1-6.6.3-14.2.4l-14 .2-7.5-10c-4.1-5.5-12.6-17.1-18.8-25.7-11.1-15.4-13.2-17.2-16-14.4-.7.7-2.9 1.1-5 1-2-.1-4.4.4-5.3 1-2.1 1.7-3.2 7.5-1.6 8.1 1.6.5-.9 3.7-2.9 3.7-1.1 0-1.4 3.2-1.4 17 0 14.4.2 17 1.5 17 1.8 0 2 2.1.3 3.8-1.6 1.6-6.5 1.5-7.1 0q-.6-1.5-.6 0c-.1 1.1-.4 1-1.6-.1-1.7-1.7-11.7-1.5-12.3.2-.5 1.5-1.7 1.4-2.9-.1M203 260.1c0-4.4-.4-8.2-.9-8.6-.5-.3-2.9.1-5.3 1-4.9 1.7-11.8 2-11.8.5 0-.5.7-1 1.5-1s1.5-.6 1.5-1.4.6-1.7 1.3-1.9c2.2-.9-2.9-.7-8.3.3-2.9.5-10.2 1.2-16.2 1.4-10.4.5-17.3 1.5-24.3 3.8-1.6.6-9.5 1.4-17.5 1.9-8 .4-16 1-17.8 1.2-1.8.3-3.5.1-3.8-.4s-2.6-.9-5.2-.9c-9-.1-16.8-1.7-21.3-4.6-4.3-2.7-4.3-2.8-1.9-3.5 1.4-.4 1.8-.8 1-.8-.8-.1-3.1-.4-5-.6s-6-.7-9-1-6.2-1-7-1.5c-.9-.5-2.7-.3-4.7.5-3 1.3-3.9 1.2-7.5-.2-2.3-.9-3.6-1.9-2.9-2.1.8-.3.4-.9-1.1-1.6-2.9-1.5-3.7-4.6-1.1-4.6 1.1 0 3.9.7 6.4 1.5 5.5 1.8 24.1 5 37.9 6.6 15.5 1.8 56.7 1.5 73-.5 16.2-1.9 28.5-4.3 32.2-6.2 3.5-1.8 3.8-1.8 3.8.4 0 1.6.6 1.8 4.8 1.2 2.6-.4 5.9-1.2 7.4-1.8 4.7-1.9 11 1.8 13.9 8.2 2.3 5.2 2.6 14.6.4 14.6-.8 0-1.5.9-1.5 2 0 1.5-.7 2-2.9 2-1.6 0-3.1-.6-3.4-1.2-.2-.7-.7.2-1.1 2-.4 1.7-1.4 3.2-2.2 3.2-1.1 0-1.4-1.7-1.4-7.9m8-16.9c0-1.4-.8-2.6-2.2-3.1-2.5-.9-5.8-.3-5.8 1.1 0 .5-1.4 1.4-3 2-2.5.8-2.8 1.3-1.9 2.4 1.5 1.8 2.9 1.8 2.9-.1 0-2.2 1.7-1.8 2.3.5.3 1.3 1.1 1.8 2.6 1.5 1.2-.2 2.1.1 2.1.7 0 .7.7.3 1.5-.8.8-1 1.5-2.9 1.5-4.2M82.8 262.3c-7.1-.4-7.8-.6-7.8-2.5 0-1.8.4-1.9 3.5-1.4 2.9.6 3.4.4 2.9-.9-.5-1.1.1-1.5 2.5-1.5 2 0 3.1.5 3.1 1.4 0 1.1 2.5 1.6 10.8 2.1 12.2.7 15.1 1.3 7.5 1.4-2.9.1-5.3.6-5.3 1.1 0 .6-2.1.9-4.7.8-2.7-.1-8.3-.4-12.5-.5"/><path d="M125 261.7c0-2 4.7-3 9.4-2.1 3.3.6 3.6.4 3.7-1.7q.15-2.55.6-.6c.5 1.8 5.3 2.5 5.3.7 0-.5.7-1 1.5-1s1.5.4 1.5.8c0 .5 1.4.7 3 .4 2.5-.4 3-.1 3 1.7s-.6 2.1-4.8 2.1c-2.7 0-9 .3-14 .6-8 .6-9.2.5-9.2-.9m40-4.2c0-.8.8-1.6 1.8-1.7.9 0 2.3-.2 3.1-.2.8-.1 1.6-.7 1.9-1.4.5-1.5 2.9-1.6 3.4-.1.2.7 1.2.7 3.1 0 4.1-1.6 5.7-1.4 5.7.7 0 1.4-1.4 2-7 3-9.4 1.6-12 1.5-12-.3m423.5-13.6c-.4-.6-.5-1.3-.2-1.6.7-.7 2.7.6 2.7 1.8s-1.7 1.2-2.5-.2m-222.2-9.4c-.7-.8-1.3-3.1-1.3-5.3 0-4.9 1.1-6.2 9-10.3 3.6-1.9 7.4-4.2 8.4-5.1 1.1-1 3.2-1.8 4.8-1.8 2.4 0 2.7.3 1.9 1.8-.6.9-1.2 2.9-1.5 4.4-1.4 6.6-11.4 12.6-16.4 9.9-2.8-1.5-3-1.4-2.4 1.4.2 1.4.8 2.2 1.3 1.9s.9 0 .9.5c0 .6 1.5 1.2 3.3 1.2 1.7.1 2.4.3 1.5.6-1 .2-1.8.9-1.8 1.4 0 1.4-6.4 1-7.7-.6m13.7-2.4c0-.5 1.9-1.8 4.3-3l4.2-2.1.3 2.1c.2 1.2-.2 2.6-1 3-1.7 1.2-7.8 1.1-7.8 0M86.5 219.3c-1.1-.3-2.4-.9-2.9-1.4-.6-.5-1.8-.9-2.8-.9-1.1 0-1.8-.7-1.8-2 0-1.5-.7-2-2.9-2-2.9 0-8.1-4.9-8.1-7.8 0-.7-.7-2.1-1.6-3-2-1.9-1.4-9.3.9-11.6 2.1-2.1 9.7-2.2 9.7-.1 0 .8.8 1.5 1.9 1.5s2.3 1.2 3.1 2.9c1.5 3.7 4.6 6.5 9.1 8.4 3 1.2 4.1 1.3 7.5.1 5.2-1.7 8.4-5.6 8.4-10 0-1.9-.3-3.4-.8-3.4-1.8 0-11.2-9.3-11.2-11.1 0-1-.5-1.9-1-1.9-.7 0-1-2.7-.8-7.2.3-7.1.4-7.3 3.1-7.6 1.5-.2 2.7-.8 2.7-1.3s5.2-.9 11.9-.9c9.6 0 12 .3 12.5 1.5.6 1.7.7 1.7-14.1 1.9-5.6.1-10.5.4-10.9.9-.4.4 4.6.7 11.2.7 6.5 0 11.4.4 10.8.8-1.6 1-2.8 15.2-1.3 15.2.8 0 .7.5-.2 1.6-1 1.3-1 1.7.1 2.4.8.5 1.7.7 1.9.4.3-.3-.1-.9-.9-1.4-1.2-.8-1.2-1 .3-1.6.9-.3 2.5-.3 3.4 0 1.1.5 2.6-.4 4.5-2.4l2.8-3.1v3.5c0 2.9-.4 3.6-2 3.6-1.1 0-2 .6-2 1.4s-1.1 2.3-2.5 3.4-2.5 3-2.5 4.2c0 3.4 3.8 8.9 6.6 9.6 3.5.9 3.3 4.4-.3 4.4-1.4 0-2.4.3-2 .6.3.4-.4 1.5-1.6 2.5s-1.6 1.8-.9 1.9c.6 0 1.2.7 1.2 1.5 0 .9.7 1.8 1.5 2.1.8.4 1.5 1 1.5 1.5 0 1.4-6.8 1-9.9-.5-2.6-1.4-3.3-1.3-8.7.9-4.6 1.9-7.6 2.4-13.4 2.4-4.1-.1-8.4-.3-9.5-.6m6.1-5.3c.8 0 1.4.7 1.4 1.5s.5 1.5 1 1.5c.6 0 1-.5 1-1.1 0-.7 1-.9 2.5-.5 1.4.4 2.5.2 2.5-.4 0-.5.7-1 1.5-1s1.5-.4 1.5-1c0-.5-.5-1-1.2-1-.6 0-.8-.3-.5-.7 1.2-1.1-3.3-3.4-7.3-3.7-2.2-.2-3.7.1-3.4.5.3.5 1.7.9 3.2.9h2.6l-3.4 2.5c-1.8 1.3-3.8 2.6-4.3 2.8-.7.2-.7.9-.2 1.8.8 1.2 1 1.1 1.3-.3.2-1 1-1.8 1.8-1.8m-6.2.5c-.4-.8-1-1.2-1.5-.9s-.9-.3-1-1.3c0-1.3-.2-1.4-.6-.4-.3.8.2 2 1.3 2.8 2.3 1.7 2.5 1.6 1.8-.2m-4.4-3c0-.8-.6-1.5-1.2-1.5-1.2 0-2.8-1.7-8-8.3-.9-1.2-1.9-1.9-2.3-1.6-1 1 2.9 6.9 4.3 6.4.6-.2 1.2.2 1.2 1 0 1.5 3.8 5.5 5.2 5.5.4 0 .8-.7.8-1.5m28 .7c0-1.3-1.2-2.2-2.2-1.6s-.1 2.4 1.3 2.4c.5 0 .9-.4.9-.8m6-4c0-1.3-1.2-2.2-2.2-1.6s-.1 2.4 1.3 2.4c.5 0 .9-.4.9-.8m3.4-10.7c-.4-.8-1.2-1.5-2-1.5-2 0-1.7 1.8.4 2.3.9.3 1.8.5 1.9.6.1 0 0-.6-.3-1.4m-7.7-7.2c-.2-1.6-.4-.5-.4 2.2 0 2.8.2 4 .4 2.8.2-1.3.2-3.5 0-5m-35.2 3.8c-1.1-1-3.2-1.5-5.5-1.1-.8.1-.4.5 1 1 3.6 1.1 5.6 1.2 4.5.1m43.3-6.3c-.7-1.9-3.8-2.2-3.8-.4 0 1 .9 1.6 2.1 1.6s1.9-.5 1.7-1.2M98 173l-.8-3.5-.1 3.1c-.1 1.7.2 3.4.6 3.7 1.1 1.2 1.2.3.3-3.3m38 45c0-.6.7-1.3 1.5-1.6.8-.4 1.5-1.2 1.5-2s.7-1.4 1.5-1.4 1.5.7 1.5 1.5c0 1.1.6 1.2 2.3.6 1.2-.5 2.2-1.7 2.2-2.7 0-1.4.8-1.9 2.9-2 2.5-.1 4.5-1.7 4.6-3.6 0-1.2-2.5-.9-3.8.4-1.2 1.2-2.4.4-3.4-2.5-.2-.4-2.2.2-4.5 1.3-5.6 2.7-9.3 2.7-9.3 0 0-1.5.7-2 2.9-2 3.4 0 8.5-4.4 12.1-10.3l2.2-3.8 6.2.3 6.1.3.3 5.7c.4 6.9-1.1 10.1-7.5 16.3-3.3 3.2-5.4 4.5-7.4 4.5-1.6 0-2.9.5-2.9 1 0 .6-2 1-4.5 1s-4.5-.5-4.5-1m220.1-6.7c.8-1 2-2.2 2.7-2.6 2-1.3.4-2.7-3.1-2.7l-3.2-.1 2.2-1.8c1.2-1 1.9-2.1 1.6-2.5-.4-.3-1.9.6-3.5 2.1-2.5 2.4-2.8 2.5-2.8.7.1-3.6 3.5-6.4 7.7-6.4 2.1 0 4.4.5 5.1 1.2 1.8 1.8 1.5 9.7-.3 10.4-.8.4-1.5 1.2-1.5 2 0 .9-1.1 1.4-3.1 1.4-2.9 0-3-.2-1.8-1.7m-33.3-3c-3-.3-3.6-.7-3.1-2.1.6-1.5.5-1.5-1.1.1-2.4 2.4-3.6 2.1-3.6-.8 0-1.4.3-2.5.8-2.5 1.6 0 3.4-4.2 2.3-5.3-.6-.6-1.1-2.7-1.1-4.6.1-3.2.2-3.4 1.4-1.8 1.6 2.1 2.6 2.2 2.6.2 0-1.8 5-2.1 6.6-.5.8.8 1.5.6 2.4-.5.7-.8 2.1-1.5 3.2-1.5 1.3 0 2.4-1.1 3.1-3 1.6-4.2 3.7-3.9 3.7.5 0 2.6-.9 4.5-3.6 7.5l-3.6 4 2.1 3.5c2.8 4.7 2.7 6.5-.3 6.5-1.3 0-3.6.2-5.2.4s-4.6.1-6.6-.1m7-14.1c-1.3-.6-3.8.6-3.8 1.7 0 1.6 3.5 1.8 4.1.1.4-.8.2-1.7-.3-1.8m-41.6 8.1.3-3.8 5.3-.3c4.9-.3 5.2-.2 5.2 2.1 0 2.1-.4 2.3-3 1.9-3.1-.4-6.4 1.3-5.4 2.9.3.5-.2.9-1.1.9-1.3 0-1.6-.8-1.3-3.7m563.4 2.6c-.2-.8-1.2-4.8-2-8.8-1.9-8.7-1.8-9 6.1-11.5 5.4-1.8 8.4-2.3 14.6-2.5 2.6-.1 3.6-.5 3.1-1.3s-.2-.9 1-.5c1 .4 2.5.7 3.4.8 1.3 0 1.1.3-.6 1.1-1.5.7-2.2 1.9-2.1 3.2.4 3.4-1.2 8.6-2.6 8.6-.7 0-1.8.7-2.5 1.5-1 1.2-1 1.8.1 3.1 1.2 1.5 1.1 1.6-.8 1-1.2-.4-3.8-.4-5.6-.1-2.7.5-3.4 1.1-3 2.4.3 1.4-.3 2-2.4 2.4-1.5.3-3.6.9-4.5 1.2-1.1.4-1.9.2-2.2-.6M260 203.2c0-.4.9-1.5 1.9-2.4 2.7-2.3 9.1-1.4 9.1 1.3 0 1.6-.8 1.9-5.5 1.9-3 0-5.5-.3-5.5-.8m106-3.6c0-1.9.5-3.8 1-4.1.6-.3 1 .4 1 1.5 0 1.6.5 2 1.5 1.6.8-.3 1.5-.1 1.5.4 0 .6.7 1 1.5 1s1.5.7 1.5 1.5c0 1.1-1.1 1.5-4 1.5-3.9 0-4-.1-4-3.4m511 .5c0-1.8 2-2.3 6-1.6 5.6.9 5 2.5-1 2.5-2.7 0-5-.4-5-.9m-478.2-2.3c-3.5-2-4.9-3.8-3-3.8.4 0 1.4-2 2.1-4.5 1-3.3 1.8-4.5 3.2-4.5 1.1 0 1.9-.7 1.9-1.7 0-3.5-1.7-4.7-6.4-4.6-3.9.1-4.6-.2-4.6-1.8s.7-1.9 4.5-1.9h4.5v-6.3c0-8.5-5-24.6-8.4-26.9-.6-.4-.4-6.5.8-17.5 1-9.2 2.2-21.5 2.6-27.3s1.3-12.1 1.8-14c1-3.4 1-3.4 1.1 2 .1 3.9.4 5.1 1.1 4 .5-.8 1-2.5 1-3.7 0-1.7.6-2.3 2.4-2.3 2.7 0 3.6 2.8 3.6 11.1 0 3.8.4 4.9 1.6 4.9s1.4.8 1 4.3c-.3 2.3-1.1 10.5-1.7 18.2l-1.2 14.1 3 6.4c1.7 3.6 3.6 8.9 4.2 11.8 1.4 6.7 1.4 23.7.1 26.3-.9 1.6-.7 1.9 1 1.9 1.1 0 2 .7 2 1.5s-.6 1.5-1.3 1.5c-.9 0-2.1 2.9-3.2 7.5l-1.9 7.5h-4.1c-2.3 0-5.6-1-7.7-2.2m-16-3.5c-3.3-.8-2-3.3 1.7-3.3 2.8 0 3.5.4 3.5 2 0 2-1.4 2.3-5.2 1.3M311 183.9c0-6 1.4-7.9 5.7-7.9h3.7l-2.3 2.1c-1.2 1.2-2 2.7-1.7 3.5s-.1 1.4-.9 1.4c-.9 0-1.2.8-.9 2.5.3 2 0 2.5-1.6 2.5-1.7 0-2-.7-2-4.1M197 180c0-.5.7-1 1.5-1s1.5.5 1.5 1c0 .6-.7 1-1.5 1s-1.5-.4-1.5-1m-12-14.5c0-8.5.3-10.5 1.5-10.5 1.9 0 2.8 5.3 2.1 13.1-.3 3.5-.5 6.7-.6 7.2 0 .4-.7.7-1.5.7-1.2 0-1.5-1.8-1.5-10.5m89.2 6c-.7-1.4-1.2-5.5-1.2-9.1 0-6.2.2-6.8 3.5-10.1 3.6-3.6 3.6-3.6 10.7-3.1 6.5.5 7.5.9 10 3.7s2.8 3.9 2.8 10c0 8.8-.5 10.1-4.1 10.1h-2.8l1.7-3c1.5-2.7 1.5-3.2.2-4s-1.2-1 .3-1c.9 0 1.7-.7 1.7-1.5s-.7-1.5-1.5-1.5c-1.8 0-2-2.6-.2-3.3.7-.4.4-.8-1-1.2-1.2-.4-2.4-1.3-2.7-2.1s-1.3-1.4-2.1-1.4c-.9 0-1.4-.4-1.1-.9.3-.4-.6-.6-1.9-.3-2.6.5-3.2 1.6-1.4 2.7.6.4.8 1.3.5 2.1s0 1.4.6 1.4c.9 0 .9.3 0 1.2-.7.7-1.2 2.4-1.2 3.9 0 3.6-1 6-2.1 5.3-.6-.3-1.7 0-2.5.7-1.3 1.1-1.3 1.4.8 2.5 2.2 1.3 2.1 1.3-1.8 1.4-3.4 0-4.3-.4-5.2-2.5m77.8-14.8c0-5.2 2.8-7.1 11.1-7.5 6.9-.4 6.9-.4 6.9 2.2 0 2.3-.3 2.5-2.3 1.7-1.3-.5-3.7-.6-5.3-.3-3.4.8-8.4 4.4-8.4 6.1 0 .6-.4 1.1-1 1.1-.5 0-1-1.5-1-3.3m-281.4-4.4C65.7 151 63 146 63 138c0-5.7.3-6.5 3.4-9.6 3.2-3.2 3.8-3.4 10-3.4 3.7 0 6.6.4 6.6 1s.9 1 2 1 2.4.8 2.7 1.8c.4.9 1.1 2 1.7 2.4 1.6 1.1 1.3 13-.3 16.1-2.5 4.6-11 6.9-18.5 5m14.1-7.9c-.3-.4-1.4-.3-2.4 0-1.5.6-1.5.8-.3 1.6 1.6 1 3.9-.4 2.7-1.6m2.8-5.1c-.2-1-.4-2.4-.4-3-.1-.7-.8-1.3-1.6-1.3-2.2 0-1.9 4.7.3 5.3.9.3 1.8.5 1.9.6.1 0 0-.7-.2-1.6m-1.5-5.9c0-1.4-4.7-4.3-7-4.3s-2.3.1-.5.9c1.2.4 2.7 1.5 3.4 2.4 1.3 1.5 4.1 2.2 4.1 1m59 18.9c-3.2-.6-7-4.6-7-7.3 0-1.1-.4-2-1-2-.5 0-1-2.2-1-5 0-2.7.5-5 1-5 .6 0 1-.9 1-1.9 0-3.5 4.7-6.1 10.9-6.1 7 0 10.1.8 10.1 2.6 0 .8.7 1.4 1.5 1.4 2.3 0 3.7 4.9 3.2 11.1-.5 6-1.8 8.9-4.9 10.8-2.2 1.4-10 2.2-13.8 1.4m6.3-4.4c-.6-2.2-6.3-3.2-6.3-1.1 0 .9.3 1.3.6.9.4-.3 1.2 0 1.9.7 1.9 1.9 4.3 1.6 3.8-.5m6.7-3.3c-.5-.5-1.6-.6-2.5-.2-1.3.5-1.4.8-.3 1.9.9 1 1.6 1.1 2.4.3.7-.6.9-1.5.4-2m-17-6.3c0-6-.9-7-1.1-1.2-.2 4.7 0 6.9.6 6.9.3 0 .5-2.5.5-5.7m18.7 1.3c-2.1-1.6-2.2-3.6-.1-3.6.8 0 1.2-.4.9-1-.3-.5-1.3-1-2.1-1-2.2 0-1.9 6.7.4 7.2 2.5.6 3-.2.9-1.6m24.3-8.1c0-3.6.4-6.5 1-6.5 1.7 0 2.8 3.4 2.7 8.3-.2 3.8-.5 4.7-1.9 4.7-1.5 0-1.8-1-1.8-6.5m-4.9-17.2c-.7-2.1-1.1-5.8-.9-8.3.3-4.4.4-4.5 4.5-5.4 3.1-.7 4.5-1.6 5.2-3.5 2-4.9 4.1-14.5 4.1-18.6 0-2.3.4-4.5.9-5.1 1-1.2-1.5-27-3.4-34.7-.8-3.2-1.5-7-1.5-8.3 0-3.8 2.6-2.8 3.9 1.6.8 2.8 1.6 3.8 2.6 3.4.8-.4 1.5-.2 1.5.3 0 .6 1 2.2 2.3 3.6 1.6 1.9 2.8 2.5 4.5 2.1 1.9-.5 2.2-.2 2.2 2 0 1.4-.4 2.6-1 2.6-.5 0-1 1.6-1 3.5 0 2.4.5 3.5 1.5 3.5.8 0 1.5.7 1.5 1.5s-.4 1.5-1 1.5-1 3-1 7 .4 7 1 7 1 1.2 1 2.6c0 2.1-.4 2.5-1.8 2.2-1.5-.4-2.1.4-3.1 4.3-1.4 5.4-1 6.9 2.2 7 1.5 0 1.7.2.7.6-.8.3-1.8 1.1-2.2 1.7-1.2 1.8-.9 7.4.5 7.9.8.4.7.6-.4.6-.8.1-2.6 1.2-3.8 2.5s-4.3 2.9-6.7 3.6c-2.5.7-4.1 1.6-3.5 2 .8.4.6 1.2-.4 2.6-.8 1-1.5 2.7-1.5 3.8q0 1.8-1.5 1.2c-.8-.3-1.5-.1-1.5.4 0 .6.4 1 .9 1s.7.9.4 2c-.9 3.4-3.9 2.4-5.2-1.7m17.8-42.6c0-3.3-.2-3.8-.9-2.2-1.2 2.8-1.2 7.8 0 7 .6-.3 1-2.5.9-4.8m98.8 39.9c-1.3-1.3-2.9-3.7-3.7-5.2s-3.4-4.8-5.7-7.3c-2.8-3-4.3-5.5-4.3-7.3v-2.6l5.6 3c4.1 2.2 5.9 2.7 6.7 1.9 1.9-1.9 6.2-1.2 8.7 1.4 1.3 1.4 1.8 2.5 1.2 2.5s-1.4 2-1.8 4.5c-.3 2.5-1 4.5-1.5 4.5s-.9.8-.9 1.8c0 1.4.7 1.7 4 1.4 3.5-.4 4-.2 4 1.7s-.6 2.1-5 2.1c-4.1 0-5.5-.5-7.3-2.4m40.3-.6c0-1.5.5-1.9 2.3-1.6 1.2.3 2.8.5 3.5.5.6.1 1.2.8 1.2 1.6 0 1-1.1 1.5-3.5 1.5-2.8 0-3.5-.4-3.5-2m10 1.7c0-.6 7.1-7.7 7.7-7.7.2 0 .3 1.7.1 3.8-.3 3.5-.5 3.7-4 4-2.1.2-3.8.1-3.8-.1m-326.2-6.2c-.9-1.7-1.9-5.7-2.3-9s-1.3-8.4-2-11.2c-.7-2.9-1.1-5.3-.9-5.3 1.3 0 5.4 5.5 5.4 7.1 0 1.1.5 1.9 1 1.9.6 0 1 1.7 1 3.8 0 2.6.7 4.4 2.5 6 2.1 2 2.2 2.6 1.2 4.3-.6 1-1.7 1.9-2.4 1.9-.6 0-1.3.8-1.5 1.8-.3 1.3-.7 1.1-2-1.3m20.2 1c0-.8-.8-1.5-1.7-1.5-1.5 0-1.6-.2-.3-1 1.7-1.1 1.2-1.3-5.5-1.4-2.5-.1-4-.6-3.9-1.3.3-3.8.5-4.3 1.7-4.3 1.8 0 6.7 2.4 6.7 3.3 0 .4 1.4.7 3 .7 2.8 0 3 .3 3 3.5 0 2.4-.5 3.5-1.5 3.5-.8 0-1.5-.7-1.5-1.5m299.9-3.8c-3-1.8-3.4-2.4-2.3-3.5.7-.6 2.2-1.2 3.2-1.2 1.2 0 5-3.8 10.1-9.9 15.6-18.9 27.5-28 39.1-29.7 4.2-.7 4.4-.6 2.7 1-.9 1-1.7 2.1-1.7 2.5 0 .9-11.7 6.4-17 8-4.8 1.5-10 7.7-10 12 0 .9-1.5 3.2-3.4 5.1-6.9 7-11.5 12.7-12.5 15.3-1.3 3.2-3.3 3.3-8.2.4m-30.6-1.4c-.7-.2-1.3-1.1-1.3-1.9 0-1 1.5-1.4 6-1.4 6.3 0 7.8 1.3 3.4 3-2.7 1.1-6.1 1.2-8.1.3m47.6-3c1.1-1.6 3.3-4.4 5-6.3l3-3.5.1 3.8c0 3-.3 3.7-2 3.7-1.5 0-2 .7-2 2.5 0 2.1-.5 2.5-3.1 2.5h-3zm-331-7.8c-.1-.8-.3-1.9-.4-2.5-.1-.5-.3-1.4-.4-2 0-.5-.8-1-1.6-1s-1.5-.5-1.5-1.1.7-.8 1.6-.5c1.2.5 1.5.2 1-1-.3-.8-.6-2-.6-2.5s-.7-.9-1.5-.9-1.5-.4-1.5-1c0-.5.6-1 1.4-1 .9 0 1.2-.8.8-2.5-.3-2 0-2.5 1.6-2.5s2 .9 2.5 5.3c.3 2.8.9 7.3 1.3 10 .6 4 .4 4.7-1 4.7-.9 0-1.7-.7-1.7-1.5m40.3-8.7c-.7-.7-1.2-3.1-1.2-5.4 0-3.8.5-4.7 4.8-8.3 3.2-2.8 4.3-4.4 3.5-4.9-1.5-1-7.8-14.6-8.7-19-.4-1.7-1.4-3.2-2.1-3.2-1.4 0-2.5-2.1-2.5-5 0-1-.9-2-2-2.3-1.5-.4-2-1.4-2-4.1 0-3.7 1.3-4.8 2.4-2 .3.8 1 1.3 1.5.9.5-.3 1.1.7 1.3 2.2.2 1.6.8 2.7 1.6 2.5.6-.1 1.2.5 1.2 1.4 0 2.6 3.1 8.4 4.2 7.8.7-.4.6-.9-.1-1.3-.7-.5.2-2 2.5-4.1l3.7-3.3 1.9 2.4c1.2 1.4 1.6 2.5.9 2.7-1.6.5-1.3 2.2.4 2.2.8 0 2.8 2.7 4.5 5.9 2.3 4.7 2.6 6 1.5 6.5-.9.3-1.2 1.5-.9 3.8.3 1.8 0 4-.5 4.8-.8 1.2-1.2 1.2-2.9-.3-2.3-2.1-3.2-2.2-3.2-.2 0 .8.5 1.5 1.1 1.5.7 0 .9 1 .7 2.4-.3 1.5.2 2.7 1.4 3.5 1.3.8 1.6 1.6 1 2.9-.5.9-.7 2.2-.5 2.9.7 1.8 3.1.4 2.6-1.5-.3-1.2.6-2.1 2.8-2.9 1.8-.7 3.6-1 4-.7.5.3.9 0 .9-.5 0-1.8 2.8-1.2 3.3.7.4 1.6.5 1.6.6 0 .1-2 4.1-2.5 4.1-.5.1.7.6.5 1.4-.5 1.4-1.9 4.6-2.5 4.6-.9 0 .5 1.1.8 2.5.5 1.9-.3 2.5 0 2.5 1.4 0 1.6-1 2-5.9 2.5-3.3.4-8.4 1.6-11.3 2.7s-6.1 2-7 2c-1 0-1.8.4-1.8.9s-1.5 1.9-3.4 3c-3.7 2.3-11.5 2.8-13.4.9m77.8-.3c0-1-1-1.5-2.8-1.5-1.5 0-3.2-.4-3.7-.9-2.3-2.2-14.5-6.2-20.7-6.8-5.9-.5-6.8-.9-6.8-2.6 0-1.6.5-1.9 3.5-1.5 2.4.3 3.5 0 3.5-.9 0-.7.5-1.3 1-1.3.6 0 1 .7 1 1.6 0 1.2.7 1.5 3 1.2 1.7-.3 3 0 3 .6s.4.5.9-.3 1.5-1.1 2.3-.8c1.1.4 1.3-.2 1-2.4-.3-1.7.2-3.7 1-4.7.8-.9 2.1-3.3 2.8-5.2 1.8-4.7 2.6-5.5 4.4-4.1 1.9 1.6 5.6 2.2 5.6.9 0-.6.9-.8 1.9-.5 1.3.3 2.2-.2 2.7-1.7.6-1.7.8-1.4 1.1 1.7.2 2.1-.2 5.9-1.1 8.3-.8 2.4-1.1 4.4-.5 4.4.5 0 .9 1.1.9 2.5 0 2.2-.3 2.5-2.6 1.9-1.8-.5-2.5-.3-2.1.3s0 1.6-.8 2.3c-2.2 1.8-1.8 3.7 1.1 5.6 2.1 1.4 2.7 1.5 3.4.4.5-.7 1.8-1.1 3.4-.8 3 .6 3.2.1 1-3-1.5-2.1-1.4-2.2 1.5-2.2 2.8 0 3.1.3 3.1 2.9 0 1.6-.4 4.1-1 5.5-.8 2.3-1.5 2.6-6 2.6-3.8 0-5-.4-5-1.5M282.5 75c-1-1.1-1.4-2-.8-2 .5 0 1.8.9 2.8 2s1.4 2 .8 2c-.5 0-1.8-.9-2.8-2m96.5.5c1.4-1.7 9.5-5.5 11.6-5.5.8 0 1.4.9 1.4 2 0 1.6-.7 2-3.5 2-2.4 0-3.5.5-3.5 1.5 0 1.1-1.1 1.5-3.6 1.5-3.1 0-3.5-.2-2.4-1.5m-356-8c0-.8-.7-1.5-1.5-1.5-1.2 0-1.5-1.6-1.5-8 0-6.1.3-8 1.4-8 2 0 3-7.2 1.1-8.6-2.2-1.6-1.9-4.4.5-4.4 1.1 0 2-.3 2-.7 0-1.4-4.7-5.3-6.3-5.3-3.5 0-2.7-9.6 1.3-16.8l2.4-4.2 1.3 3.1c.7 1.7 1.3 3.8 1.3 4.5 0 .8.5 1.4 1 1.4.6 0 1-.4 1-1 0-.5.7-1 1.5-1s1.5.6 1.5 1.2c0 .7.7.2 1.6-1.1 1.4-1.9 1.4-2.5.3-3.1-.9-.6-.3-.8 1.7-.8 1.7.1 3.6-.2 4.3-.6.7-.5 1.1.2 1.1 1.9 0 2-.6 2.7-3 3.2-1.9.3-3 1.2-3 2.3 0 .9-1.1 4.4-2.5 7.8-2.7 6.7-4.5 19.4-4.5 33 0 6.6-.3 8.2-1.5 8.2-.8 0-1.5-.7-1.5-1.5m2.3-37c.1-.5-.6-1.1-1.5-1.3-1.1-.2-1.8.3-1.8 1.3 0 1.7 3 1.8 3.3 0M151 42.4c1.5-3.9 1.3-4.2-4-4.9-4.6-.6-5-.9-4.4-2.8.9-2.9 6.4-12.6 7.4-13.2.5-.3 2.7 1.2 4.9 3.4 2.4 2.4 4.1 3.4 4.1 2.6s-.4-1.5-1-1.5c-.5 0-1-.4-1-1 0-.5.7-1 1.5-1s1.5.5 1.5 1.2c0 .6.7.3 1.5-.8 1.3-1.8 1.4-1.7 1.5 1.8 0 2-.3 3.8-.7 4-.5.2-2.4 3.6-4.3 7.5-2.8 5.8-4 7.3-5.7 7.3-2 0-2.1-.3-1.3-2.6M46.7 21.2c-2.3-2.5-2.2-6.3.1-5.9 2.7.4 3.9 1.5 5.6 4.7 1.4 3 1.4 3-1.3 3-1.5 0-3.5-.8-4.4-1.8m121.2-4.6c.6-.7.9-2.1.5-3-.4-1.2 0-1.6 1.5-1.6 1.2 0 2.1-.4 2.1-1 0-.5.7-1 1.5-1s1.5.6 1.5 1.3.9 1.3 2 1.3 2-.4 2-.8.9.1 2 1.2c2.7 2.7 2.6 3-1.9 3-2.2 0-4.3.5-4.6 1-.3.6-2.2 1-4.2 1-2.9 0-3.3-.3-2.4-1.4m4.9-11.4c-1-.2-1.8-.7-1.8-1.2 0-1 1.9-1.6 7.5-2.4 2.2-.3 3.3-.3 2.5.1-.8.3-1.9 1.2-2.5 1.8-1.3 1.6-3.5 2.2-5.7 1.7"/></g><path fill="#ff8002" d="M279 380.5c0-1.8.5-2.5 2-2.5s2 .7 2 2.5-.5 2.5-2 2.5-2-.7-2-2.5M88 291.2c-17.9-1-55.7-8.8-64.8-13.4l-4.7-2.3-.3-13.6c-.3-17.6-.7-17.3 13.1-13.1 19.2 5.9 42.6 10.2 55.2 10.2 4.9 0 5.5.2 5.5 2.1s-.5 2-7 1.7l-7-.3v5.8l-8.9-.5-9-.5-1 3c-1.4 3.8-1.4 7.7-.1 7.7.6 0 1 .9 1 2 0 1.7.5 1.9 4.4 1.4 3.4-.5 4.9-.3 6.1 1 1.3 1.3 2.8 1.5 6.8 1.1 8.7-1 9.6-1.4 10.3-4 .3-1.4 1.2-2.5 2-2.5s1.4-.4 1.4-1c0-.5 1.2-1 2.6-1 2.1 0 2.5.3 1.9 1.8-1.8 4.3-2.6 8.7-2.3 11.4.5 3.4.6 3.4-5.2 3m45.5-.2c-.4-.7-.3-1.6.3-2.2 1.4-1.4-1.5-10.5-4.6-14.7-1.4-1.8-4.7-4.3-7.3-5.5-4.9-2.1-6.2-4.2-3.4-5.2.8-.4 1.5-1.2 1.5-1.9 0-.8 3.8-1.4 13.7-1.8 13.2-.7 37.6-3.7 45.8-5.8 2.2-.5 8.4-2.4 13.7-4.1 13-4.2 12.8-4.4 12.8 12.7 0 11.3-.2 13.4-1.8 14.8-3.8 3.4-39.3 11.6-57.2 13.2-4.1.3-8.7.8-10.2 1.1-1.4.3-2.9 0-3.3-.6M389 229c0-1.6.2-3 .4-3s1.1-.3 2-.6c1.3-.5 1.6.1 1.6 3s-.4 3.6-2 3.6-2-.7-2-3"/><path fill="#1494e9" d="M53 381.4c-15.2-1.7-22.9-3.1-32.5-6.1-4.4-1.4-8.1-2.6-8.3-2.8s.1-2 .7-4.2c.6-2.1 5-19.5 9.7-38.8 4.6-19.2 8.8-35.3 9.3-35.8.7-.7 10.8 1.4 12.9 2.6 1.8 1.1 27 4.8 38.6 5.6 7 .6 13 1.2 13.3 1.5.3.2.2 1.4-.2 2.5-.6 1.9-1.4 2.1-9.1 2.1-10.1 0-14.6 1.6-17.4 6.2-1.9 3.1-2 5-2 36.1 0 30.5-.1 32.7-1.7 32.6-1-.1-7-.7-13.3-1.5m106.8-32.7-.3-33.7-3.3-3.2c-3.2-3.2-3.4-3.3-13.6-3.6-9.7-.4-10.4-.5-11.4-2.7-1.2-2.6-1.3-2.6 17.3-4.1 9.4-.7 21.4-2.6 34.3-5.5 5.1-1.2 9.6-1.9 9.8-1.6.6.5 7.5 24.5 15.8 54.7 3.1 11.3 5.9 21.3 6.2 22.2.4 1.3-.9 2.1-6.2 3.8-9.3 2.8-27 5.9-38.6 6.7l-9.7.6zm-53.6-42.9c1.2-1.8 2.4-2.1 8.2-2.1 5.7 0 6.9.3 8.2 2.1l1.5 2.2h-19.3zm182.5-6.4c-18.9-2.9-44.9-10.5-46.9-13.6-1.1-1.8-1-22.5.2-24.7.9-1.7 1.5-1.6 10.6 1.6 38.8 13.5 108.4 13.8 146.6.6 5.9-2 11.1-3.3 11.5-2.9s1 6.3 1.1 13c.4 13.8.7 13.2-8 16.4-12.5 4.6-44.4 11.2-54.5 11.2-3.2 0-3.3-.1-3.3-4.5 0-15.4-17.8-24.7-30.3-15.8-4.9 3.4-7.9 8.9-8.5 15.4l-.5 4.9-4.6-.1c-2.5-.1-8.5-.7-13.4-1.5m-194.2-51c-21-1.3-42.8-4.5-55.3-8l-5.3-1.5.3-57.7.3-57.7 2.8-7.6c1.5-4.1 2.7-8.3 2.7-9.2 0-2-3.6-4-6-3.4-7.9 2-13.5-33.5-9.9-62.6 1.9-15.3 6.4-25 12.8-27.6 2.5-1.1 3.5-1 6.5.4 5.1 2.4 12.4 10.8 18.9 21.7C68.4 45.4 77 63.7 77 66.5c0 .9-2.1 3.6-4.7 5.9-3.3 3-4.5 4.7-4 5.9 1.2 3.2 3.7 2.9 12.9-1.6 10.9-5.3 18.1-7 29.8-7 10.5 0 19.1 2.2 29.6 7.5 8.3 4.1 10.9 4.4 12.1 1.1.5-1.2-.9-3-5.1-6.7l-5.7-5.1 2.6-7.5c4.3-11.9 14-31 19-37.3 3.1-3.9 6.2-6.6 9.1-7.8 3.9-1.8 4.6-1.8 7.8-.5 5.8 2.4 10.9 13.7 13.7 30.6 1.9 10.9 1.5 35.6-.6 46-2.3 11.3-3.7 13.9-7.3 13.8-6-.2-6.3 1.3-2.7 11.5 3.6 9.9 4.3 19.7 5 75.4.7 56.6 2.1 50.1-11 52.7-18.8 3.8-61.4 6.3-83 5m8.6-32.4c2-.6 5.3-2.1 7.3-3.5 4.5-3.1 4.7-3.1 9.1-.1 8.2 5.6 22 5.4 30-.3 8.3-5.8 13.1-16.6 8.6-19.1-2.9-1.5-4.7-.3-8 5-3.9 6.3-8.8 9.3-15.5 9.3-10.1 0-15.6-5.1-15.6-14.3 0-3.8.6-4.7 6.4-10.4 4.7-4.6 6.5-7.2 7-9.9.7-3.6-.5-7.4-2.8-8.9-.6-.4-7.2-.8-14.6-.8-16.3 0-18.4.8-18.8 6.5-.3 5.1 2.2 9.2 8.7 14.2l5 3.8v6c.1 6.7-1.3 9.7-5.7 11.9-4.7 2.4-9.5 2.7-15 1.1-4.3-1.3-5.8-2.4-8-5.7-6-9.1-8.9-10.6-11.7-6.4-1.5 2.3-1.5 2.8.9 7.4 5.9 11.6 20 17.7 32.7 14.2m-21.6-67.6c4.8-2.2 7.1-7.5 5.6-12.6-2.7-9-16.2-10.4-20-2.1-3.5 7.7 1.1 15.3 9.7 16.2.8 0 2.9-.6 4.7-1.5m73 .2c3.8-1.6 6.5-6 6.5-10.7 0-2.2-1-4.1-3.4-6.5-4.6-4.6-10.1-4.8-14.8-.5-2.8 2.5-3.3 3.6-3.3 7.5 0 3.6.6 5.1 2.9 7.5 2.5 2.6 3.8 3.3 7.9 4 .4 0 2.3-.5 4.2-1.3"/><path fill="#ff8c11" d="m653.1 335.3-.1-4.3h14v6h-6.4c-4.2 0-6.6.4-6.9 1.3-.3.6-.6-.7-.6-3m-573.3-45c-1-.2-1.8-1.1-1.8-1.9s-1-1.4-2.5-1.4c-1.4 0-2.5.5-2.5 1 0 .6-.9 1-2 1s-2-.7-2-1.5c0-1.8-3.6-2-4.4-.2-.3.8-.8.7-1.6-.5-1.2-1.9-4-2.5-4-.8 0 1.8-3 1.1-3.1-.7 0-1.1-.3-1.3-.6-.5-.7 1.7-3.3 1.5-3.3-.2 0-.8.4-1.7.9-2 .5-.4 1.2-3 1.5-5.9 1.2-9.2 2.7-13.8 4.5-13.3 4.3 1.3 16.1 1.8 16.1.7 0-.6-.4-1.1-1-1.1-.5 0-1-.7-1-1.6 0-1.3-.7-1.6-3.7-1.1-2.1.3-4.5.8-5.4 1.1-.9.4-3.1-.5-5.5-2.4-3.3-2.7-3.5-3.1-1.4-2.6 9.3 2.1 17.2 2.7 37.5 3.2 12.7.2 25.3.7 28.1 1l5.2.5-2.4 2.6c-2.2 2.3-3.3 2.6-9.7 2.8-8.7.2-13.4 2.2-18.2 7.8-1.9 2.2-3.5 4.4-3.5 4.9 0 .4-.8.8-1.7.9-1.1 0-1.3.3-.5.6 1.5.6 1.6 2.3.1 2.3-.6 0-1.7.7-2.5 1.5-.9.9-3.5 1.6-6.2 1.6-4.2.1-4.4.2-1.7.9 1.7.4 2.2.8 1.1.9-1.2.1-1.6.6-1.2 1.6.3.8.4 1.4.3 1.4-.1-.1-1-.3-1.9-.6m53.6-.9c.3-.9.6-3.6.6-6 0-4 .2-4.4 2.5-4.4 3.3 0 7.5 2 7.5 3.7 0 .7 1 1.3 2.3 1.3 1.9.1 1.9.2-.8 1.5-2.7 1.2-2.8 1.3-.7 1.4 2.2.1 3.1 2.5 1.2 3.6-.5.3-1-.1-1-.9 0-1.2-1-1.6-3.5-1.6-2.4 0-3.5.5-3.5 1.5 0 .9-1 1.5-2.6 1.5-2 0-2.5-.4-2-1.6m17.7-1.9c-2.4-1.3-2.4-1.3 1.7-2.4 4.7-1.3 9.2-.5 9.2 1.5 0 1.1-.4 1.2-1.9.4-2.7-1.4-4.1-1.3-4.1.5s-1.6 1.8-4.9 0m12.4-30.1c2.2-1.6 3.5-1.8 3.5-.5 0 .5-1.2 1.1-2.7 1.4-2.6.5-2.6.4-.8-.9"/><g fill="#ffa701"><path d="M268.8 381.5c-17-2.1-33.8-5.6-33.8-7.2 0-1.3 3.4-18.5 10.9-54.3 2.9-14.1 4.1-18.4 5.2-18.1.8.2 5 1.4 9.4 2.6 10.2 3 27.7 6.2 38 7 11.8.9 12.7 1.2 11.5 3.4-.8 1.6-2.4 2-11.1 2.3-9.9.3-10.1.3-13 3.6L283 324v27.9c0 15.4-.3 28.6-.6 29.5s-1.1 1.6-1.8 1.5c-.6-.1-5.9-.7-11.8-1.4M373 355.4c0-29.2-.4-31.8-5-35.9-1.8-1.7-3.9-2.1-12.3-2.4-7.9-.2-10.4-.7-11.3-1.9-.7-.9-1-2-.8-2.3s4.3-.9 9.1-1.3c12.9-1 21.2-2.4 35.6-5.8 7-1.7 13.1-2.8 13.4-2.4.6.6 19.3 71.9 19 72.2-.5.4-29.6 5.4-33.9 5.9-2.7.3-6.8.7-9.3 1l-4.5.5zm-54-39.1c.1-2.4 2-3.1 8.3-3 5.4.2 7.1.6 7.8 2 .9 1.6.3 1.7-7.6 1.7-4.7 0-8.5-.3-8.5-.7m-207.5-20.2c-7.7-2.2-10.1-10.7-4.6-16.2 8.2-8.2 20 1.7 14.6 12.1-.9 1.7-1.7 3-1.8 3s-1.6.4-3.2.8c-1.7.5-3.9.6-5 .3m188-35.2c-21.9-1.9-44.2-6.8-43.2-9.4.3-.7.9-6.9 1.3-13.9.3-6.9.8-12.6 1-12.6s2.9 1.5 6.1 3.4c11.1 6.5 18.8 6.8 18.1.8-.2-2.2-1.6-3.4-7.3-6.4-8.3-4.5-22.7-18.5-20.4-19.8 2.1-1.2 15.1-3 21.2-3 5.8 0 8.4-1.7 7.3-4.6-.6-1.5-2.1-1.6-13.4-1-7 .3-14.1.9-15.8 1.2-2.7.5-3.2.2-4.2-2.3-.6-1.5-1.3-4-1.6-5.5l-.6-2.8h5.8c3.1 0 9.5.5 14.1 1.1 6.7.8 8.6.7 9.2-.3 1.1-1.7 1.1-2.1-.3-4.1-1-1.3-4.1-1.9-15.1-2.7-7.6-.5-14.2-1.2-14.7-1.5-1.3-.8-1.3-13.3 0-21 .5-3.3 2.4-8.9 4.3-12.5 2.8-5.4 3.2-7.1 2.6-10-2.1-9.1-4-33.8-3.7-46.3.3-11.8.5-13.8 2.3-15.7 2.7-3 7.8-2.2 14.1 2.1 6.7 4.6 19.5 17.9 27.2 28.2l6.5 8.8 5.6-.8c7.2-1 31.2-1 37.3 0 5.4.9 4.5 1.7 14.7-11.8 17.6-23.1 34.4-33.9 39.3-25.2 1.9 3.2 1.5 35.8-.5 52.1l-1.6 12.8 2.9 5.2c4.3 7.7 6 14.8 6 25.1v9.2l-12.7 1.1c-7.1.7-14.6 1.5-16.9 1.8-3.6.5-4.2.4-4.7-1.5-.3-1.1-1.2-2.1-2.1-2.1-2.6 0-1.7-2.4 1.7-4.5 2-1.3 3.7-3.5 4.6-6.1 1.2-3.6 1.2-4.4-.4-7.8-3.4-7-12.3-8.6-17.6-3-1.8 1.9-2.4 3.8-2.5 7.7l-.2 5.2-3.6.3c-2 .2-3.6-.1-3.6-.6 0-1.2-7.5.2-9.4 1.7-.7.6-1.6 2.5-2 4.1l-.5 3h-7.6c-6.7 0-7.9.3-10 2.5-3.4 3.3-3.1 5.4 1.5 11.3 4.9 6.1 5.2 9.8 1.3 14.2-3 3.2-8.2 4.7-12.6 3.6-1.4-.3-4.4-2.2-6.7-4.1-4.6-3.9-7.4-4.4-8.8-1.7-1.9 3.5 2.1 8.3 10.7 12.7 4.9 2.5 15.9 1.8 20.1-1.3l3.1-2.3 5.1 2.5c9.1 4.5 20.3 2.6 28-4.8 1.8-1.7 4.5-2.9 8-3.5 2.9-.5 4.5-.9 3.6-1-1.3-.1-1.8-.9-1.8-2.9v-2.8l8.8.8c9.5.8 19.2 2.6 19.2 3.5 0 .4-1.8 3-4 6-4 5.2-9.5 9.4-19 14.4-10.5 5.6-3.2 11.9 7.9 6.9 5.3-2.5 5.1-2.5 5.1.4 0 3.1-2 4.7-6.8 5.3-3.4.5-3.8.8-3.4 2.9l.4 2.3 6.5-2.4c7.8-3 11-3.2 11.7-.7.2.9.7 4.7 1.1 8.3l.6 6.7-3.3 1c-18.6 5.7-63.9 8.7-93.3 6.1m14.5-61.3c0-1.4-.4-2.8-1-3.1-.6-.4-1 .7-1 2.4s.5 3.1 1 3.1c.6 0 1-1.1 1-2.4m-38-27.1c0-.9-.6-1.2-1.5-.9-.8.4-1.5 1-1.5 1.5s.7.9 1.5.9 1.5-.7 1.5-1.5m18.7-2c1.7-1.9 2.3-3.9 2.3-7 0-6.1-3.8-10.4-9.7-11.2-3.9-.5-4.6-.2-7.8 3-2.8 2.8-3.5 4.3-3.5 7.4.1 7.6 4.5 11.6 12 10.9 3.2-.3 5-1.1 6.7-3.1"/><path d="M335.3 208c-2.6-1.1-5.3-5.9-5.3-9.5s4.5-3.6 5.4 0c.3 1.3 1.5 2.9 2.6 3.5 1.3.7 2 2.1 2 4 0 3.1-.9 3.5-4.7 2m55.7-12.5c-8.4-1.6-21.7-1.9-22.6-.4-.4.8-.9.7-1.5-.2-2.2-3.5.2-11.9 3.4-11.9 1.1 0 2.6.9 3.5 2.1 1.6 1.9 2.2 1.9 8.2 1 3.6-.6 9.7-1.1 13.6-1.1h7.2l-.8 3.3c-1.1 4.8-2.8 8.7-3.7 8.6-.5-.1-3.7-.7-7.3-1.4"/></g><path fill="#ff9a21" d="M602.2 340.3c.3-13.5.5-14.8 2.2-15.1 1-.2 2.2.2 2.7 1 .7 1 1.2 1.1 2.9.1 6.1-3.9 15 2 15 9.9 0 6.2-7.6 12.2-12.6 9.9-4.6-2.1-5.4-1.5-5.4 3.9 0 4.7-.2 5-2.5 5h-2.6zm12.8-4.9c0-.8-.7-1.4-1.5-1.4-1.5 0-2.1 2.1-.9 3.3 1 .9 2.4-.2 2.4-1.9m-117.2 9.9c-4.1-1.6-4.5-2.4-2.5-4.1.8-.7 1.8-.7 2.7-.2 2.4 1.6 10.6 1.2 12-.5 2.2-2.7-.1-5.5-7-8.4-4.1-1.7-7-3.6-7.9-5.2-4.4-7.8 6.8-14.8 16.8-10.6 2.8 1.2 3 1.5 1.7 2.6-1 .9-2.8 1.1-5 .7-1.8-.4-4.6-.2-6 .4-2.2.8-2.7 1.5-2.4 3.7.3 2.3 1.2 3 6.3 5 6.9 2.6 9.5 5.3 9.5 9.5 0 4.8-6.1 9-12.9 8.7-.9 0-3.3-.7-5.3-1.6m42.2-.1c-1.9-1.1-4.2-3.5-5.3-5.5-1.6-3.1-1.7-4.2-.7-7.3 1.4-4.2 6-7.4 10.7-7.4 4.1 0 8.9 4.3 9.8 8.8l.7 3.2h-8.1c-6.2 0-8.1.3-8.1 1.4 0 2.6 2.8 3.8 8.1 3.4 6.4-.4 7.7 1.5 2.5 3.7-4.5 1.9-5.4 1.9-9.6-.3m21-8.9v-10.9l7.2-.1c5-.1 7.9.4 9.6 1.5 2.2 1.4 2.6 1.4 5.2-.1 3.9-2.4 7.3-2.1 10 .8 2.3 2.4 2.6 4.5 2.2 13.8-.2 4.3-.4 4.7-2.7 4.7-2.4 0-2.4-.2-2.7-8.2-.3-8.3-.3-8.3-3.1-8.6-4.6-.6-5.7 1.2-5.7 9.4 0 7.2-.1 7.4-2.5 7.4s-2.5-.2-2.5-6.6c0-8-1.1-10.4-4.9-10.4-4.1 0-5 1.7-5.3 10-.3 6.9-.5 7.5-2.5 7.8-2.3.3-2.3.2-2.3-10.5m71.8 10c-1.6-.4-1.8-1.8-1.8-10.7v-10.2h7c6.2-.1 7 .1 7 1.7 0 1.4-.7 1.9-2.6 1.9-5.4 0-6.4 1.4-6.4 9.5 0 7.7-.3 8.4-3.2 7.8m22.2-1.1c-4.2-2.1-7.5-8-6.5-11.9 2-8 11.9-11 17.6-5.4 1.9 2 2.9 4 2.9 6 0 2.8-.3 3.1-3.1 3.1-2.4 0-3-.4-2.5-1.5.4-1.2-.3-1.5-3.4-1.5-2.8 0-4 .4-4 1.4 0 .8-.6 1.6-1.2 1.9-1 .3-1 .9-.2 2.3.9 1.5 2.3 1.9 6.5 1.9s5.4.4 5.7 1.6c.2 1.1-.8 2.1-2.9 2.8-4.2 1.4-4.8 1.4-8.9-.7m59.6-.5c-2.8-2.8-4.2-9.4-3.1-15.7.6-3.5 1-4.1 2.8-3.8 2 .3 2.2 1.1 2.7 8.3l.5 8 3.3.3c5.2.5 6.2-1 6.2-9.4 0-7.2.1-7.4 2.5-7.4h2.5v21l-4.2-.2c-2.4-.1-5.7.2-7.5.6-2.6.7-3.6.4-5.7-1.7m29.7.7c-4.8-2.4-6.8-6-6.4-11.7 0-1.1 1.6-3.4 3.5-5.3 2.6-2.6 4.2-3.4 7-3.4 4.5 0 9.3 4.2 10.2 8.8l.7 3.2h-8.2c-6.2 0-8.1.3-8.1 1.4 0 2.6 2.8 3.8 8.2 3.4 4.2-.2 5.3 0 5.3 1.2 0 1.7-4.1 4-7 4-1.1 0-3.4-.8-5.2-1.6m64.1.6c-3.7-1.5-7.4-6.8-7.4-10.7 0-5.1 5.4-10.3 10.7-10.3 5.4.1 10.3 4.7 10.3 9.7 0 2.2-.4 2.3-7.6 2.3s-7.5.1-7.2 2.3c.3 2 .9 2.2 6 2.2 7.2.1 9.3 1.7 5 3.9-3.4 1.7-6.5 1.9-9.8.6m20.3.4c-.4-.4-.7-5.4-.7-11.1 0-10.2 0-10.3 2.4-10.3 1.3 0 2.6.6 2.9 1.3.3 1 .9 1 2.6 0 8-4.8 14.5 3 12.7 15.2-.6 4-1 4.6-2.9 4.3-2-.3-2.2-1-2.7-8.3l-.5-8-3-.3c-4.8-.4-5.7.9-6.4 9.4-.4 6-1 7.9-2.1 8.2-.9.1-1.9 0-2.3-.4m41.3-.7c-1.3-.7-2.9-2.5-3.4-4-1.5-4 1.7-6.8 8.4-7.5 4.5-.4 5.1-.7 4.8-2.6-.3-1.8-.9-2.1-5.5-2.1-5.6.1-7.7-1.7-4.3-3.5 3.5-1.9 9.7-1.2 12.7 1.4 2.5 2.2 2.8 3.1 3.1 10.5l.4 8.1-4.3-.2c-2.4-.1-5.5.1-6.9.5-1.5.4-3.5.2-5-.6m39.5-.1c-7.8-3.4-8.9-13.3-2.1-18.8 2.5-2.1 9.5-2.3 12.1-.5 2.9 2.2 1 3.7-3.9 3.1-5.2-.8-7.6 1.2-7.6 6.1s2.4 6.8 7.7 6.2c5.8-.6 7.7 1.5 3.4 3.7-3.6 1.9-5.6 1.9-9.6.2m20.3-.1c-3.2-1.8-4.3-4.7-2.8-7.4 1.5-2.9 4.2-4.1 9-4.1 3.7 0 4.1-.2 3.8-2.2-.3-2.1-.9-2.3-5.5-2.3-3.3 0-5.5-.5-5.8-1.2-.6-1.8 2.7-3.3 7.5-3.3 3.3 0 4.8.6 7.1 2.9 2.7 2.7 2.9 3.5 2.9 10.5v7.6l-4.2-.2c-2.4-.1-5.4.1-6.8.5-1.5.4-3.5.1-5.2-.8m24.9.4c-4.2-1.6-2.7-3.4 3.2-3.7 4.2-.2 5.2-.6 4.9-1.9-.2-.9-2.2-2.3-4.6-3.1-10.2-3.4-8.3-12.2 2.6-12.2 4.3 0 7.3 2.2 5 3.6-.7.4-2.9.7-5 .5-3.2-.2-3.8 0-3.8 1.8 0 1.5 1 2.3 4.1 3.1 4.2 1.2 7.9 4.1 7.9 6.3 0 4.3-8.8 7.7-14.3 5.6m22.7.1c-3.5-1.4-5.4-4.8-4.2-7.5 1.3-2.9 4.8-4.5 9.9-4.5 3.6 0 4-.2 3.7-2.2-.3-2.1-.9-2.3-5.5-2.3-5.6 0-7.7-1.7-4.3-3.5 3.5-1.9 9.5-1.2 12.4 1.5 2.4 2.2 2.6 3 2.6 10.4v8.1l-3.7-.2c-2.1-.1-4.9.1-6.3.5-1.4.3-3.5.2-4.6-.3M522 335.5V325h6v21h-6zm169.5 7.3c-4.2-10.4-6.5-16.3-6.5-17 0-.5 1-.8 2.1-.6 1.7.2 2.8 2 4.8 7.1 1.4 3.7 3.1 6.7 3.8 6.7.6 0 2.4-3.1 3.9-7 2.3-5.8 3.1-7 5-7 2.2 0 2.3.1 1 3.8-.8 2-2.8 6.7-4.5 10.5-2.6 5.8-3.4 6.7-5.6 6.7-2 0-2.9-.8-4-3.2m73.5-12.4v-15.5l2.3.3c2.2.3 2.2.6 2.5 15.6l.3 15.2H765zm18 14.6c0-.5-1.8-5-4-9.9s-4-9.2-4-9.5c0-.4 1.2-.6 2.6-.4 2.3.3 3 1.3 5.1 7.1 1.4 3.7 3 6.7 3.7 6.7.6 0 2.3-3 3.7-6.7 2.2-5.8 3-6.8 5.3-7.1l2.6-.3-2.6 5.8c-1.4 3.2-3.5 7.9-4.6 10.6-1.8 4-2.4 4.7-4.9 4.7-1.6 0-2.9-.4-2.9-1m-260.6-26.5c-.4-.9-.2-2.1.4-2.7 1.5-1.5 5.4.1 5 2-.4 2.3-4.6 2.8-5.4.7m-422.3-55.2L99 261h20l-1.2 2.4c-1 2.3-1.5 2.5-8.8 2.4-7.2-.1-7.9-.3-8.9-2.5m180.9-5.8c0-.8.9-1.5 2-1.5s2 .7 2 1.5-.9 1.5-2 1.5-2-.7-2-1.5m-8.9-.4c-1.4-.4-2.7-1.3-2.9-2-.4-1.1.3-1.3 2.8-.8 1.8.4 4.3.7 5.6.7 1.5 0 2.4.6 2.4 1.5 0 1.6-3.5 1.9-7.9.6m-8.1-2.7c0-.9.7-1.4 1.7-1.2 2.5.5 2.8 2.8.4 2.8-1.2 0-2.1-.6-2.1-1.6m-3-.9c0-.8.5-1.5 1-1.5.6 0 1 .7 1 1.5s-.4 1.5-1 1.5c-.5 0-1-.7-1-1.5m132.5-2.6c-1.7-.6-1.7-.8-.2-.8 2.1-.1 2.3-2.1.2-2.1-.9 0-1.5-.9-1.5-2.5 0-4.2 2.7-2.9 3.4 1.6.8 4.8.7 4.9-1.9 3.8m-2.2-10.7c-2.7-.3-3.3-.8-3.3-2.7 0-3.6-1-5.5-3.1-5.5-3.1 0-2.2-1.7 2.5-4.4 5-2.9 6-3.2 5.3-1.3-.2.7.1 4.1.9 7.7.7 3.5 1.2 6.5 1.1 6.5s-1.7-.1-3.4-.3M351 199.5c0-3.3.2-3.5 3.5-3.5 3 0 3.5.3 3.5 2.3 0 1.4-1 2.6-2.7 3.5-3.9 1.8-4.3 1.6-4.3-2.3m13-.5c0-.5-.9-1-2-1-1.7 0-2-.7-2-4 0-3.9.1-4 3.5-4 1.9 0 3.5.4 3.5.9s1 1.1 2.2 1.5c2.2.5 2.2.6.4 1.9-1.3.9-1.7 2.1-1.3 3.6.4 1.7.1 2.1-1.9 2.1-1.3 0-2.4-.4-2.4-1m-27.5-15c0-2.2.3-4 .8-4 .4 0 .7-.8.7-1.8 0-1.9 1.8-3.7 6.6-6.4 1.8-1 3.1-2.7 3.4-4.5.3-1.5.9-2.7 1.3-2.5 2.7.9 4.1-3.1 1.5-4.1-.8-.3-.6-.6.5-.6 1.3-.1 1.7.7 1.7 3.2 0 4.2 3.3 9.5 6.5 10.3 1.4.3 4.1.4 6 .2 3.1-.4 3.5-.1 3.5 1.9s-.5 2.3-4.4 2.3h-4.4l.5 4.4c.5 4.2.4 4.3-2.7 5-4.9.9-9 .7-12.8-.6-2.8-1-3.6-1-3.9 0-.3.6-1.4 1.2-2.6 1.2-1.9 0-2.2-.6-2.2-4m-66.5-5.9c0-1.1-.6-2.2-1.2-2.4-.7-.3.4-.6 2.5-.6 3.3-.1 3.7.2 3.7 2.4 0 2-.5 2.5-2.5 2.5-1.8 0-2.5-.5-2.5-1.9"/><path fill="#ffa62d" d="M417 372c0-.5.7-1 1.5-1s1.5.5 1.5 1c0 .6-.7 1-1.5 1s-1.5-.4-1.5-1m412-26c0-.5.7-1 1.5-1s1.5.5 1.5 1c0 .6-.7 1-1.5 1s-1.5-.4-1.5-1m16-1.1c0-.5-.4-.7-1-.4-.6.4-1-1.1-.9-3.7 0-2.4.3-3.7.6-3 .9 2.3 2.5 1.2 2-1.5-.2-1.6-.2-2.2 0-1.5.3.6 1.1 1.2 1.9 1.2 1 0 1.4 1.3 1.4 5 0 4.3-.3 5-2 5-1.1 0-2-.5-2-1.1m87-4.5c0-.8.5-2.4 1.1-3.5 1-1.9 1.2-1.9 2.8-.5 1 .9 2.1 1.3 2.4 1 .4-.4 1 .1 1.3 1.1.8 2.1-1.1 3.5-4.8 3.5-1.9 0-2.8-.5-2.8-1.6m46.5.6c-.8-1.2 1.6-5 3.2-5 .7 0 1.3.5 1.3 1.1 0 .5.4.8.8.5.4-.2 1.4-.1 2.2.4 1.1.7 1.1 1.1.1 2.4-1.5 1.7-6.6 2.2-7.6.6m-438.9-9.5c.4-.8.1-1.5-.6-1.5-.6 0-.8-.5-.5-1.1 1.5-2.3 10.5.6 10.5 3.3 0 .5-2.2.8-5 .8-4 0-4.8-.3-4.4-1.5m69.4.8c0-.5.8-1.7 1.6-2.8 1.1-1.4 1.8-1.6 2.1-.7.3.6 1.1 1.2 1.9 1.2s1.4.7 1.4 1.5c0 1-1.1 1.5-3.5 1.5-1.9 0-3.5-.3-3.5-.7m44.7-1.4c-.5-1.7-.2-2 1.6-1.5 1.2.3 2.9.1 3.7-.4.9-.6 1.8-.3 2.7.8 2 2.7 1.6 3.2-3.1 3.2-3.6 0-4.5-.4-4.9-2.1m90.3 1c0-.6 1.4-1.6 3-2.2 1.7-.6 3-1.5 3-2s.7-.4 1.5.3 1.5 2.1 1.5 3.1c0 1.6-.8 1.9-4.5 1.9-2.6 0-4.5-.5-4.5-1.1m63.4-1.4c.1-2.1.5-2.4 3.8-2.2 2.7.1 4 .8 4.7 2.5 1 2.1.9 2.2-3.8 2.2-4.6 0-4.9-.2-4.7-2.5M406 329c0-.5.7-1 1.5-1s1.5.5 1.5 1c0 .6-.7 1-1.5 1s-1.5-.4-1.5-1m-97.4-13.2c.4-1.3-.2-1.9-2.8-2.7l-3.3-.9 3-.1c4.5-.1 5.8 1.1 4 3.5-1.2 1.5-1.4 1.5-.9.2m17.4.2c0-.5.7-1 1.5-1s1.5.5 1.5 1c0 .6-.7 1-1.5 1s-1.5-.4-1.5-1m75-6c0-.5.7-1 1.5-1s1.5.5 1.5 1c0 .6-.7 1-1.5 1s-1.5-.4-1.5-1m-86.9-48.4c1.2-1 5.9-1.5 5.9-.6 0 .5-1.4 1-3.2 1-1.7 0-2.9-.2-2.7-.4m19.9-.6c0-.5.9-1 2-1s2 .5 2 1c0 .6-.9 1-2 1s-2-.4-2-1m-37.5-1c.3-.5 1.5-1 2.6-1 1 0 1.9.5 1.9 1 0 .6-1.2 1-2.6 1s-2.3-.4-1.9-1m55.5 0c0-1.1 1.4-1.1 5 0 2.2.7 2.1.8-1.2.9-2.1.1-3.8-.3-3.8-.9m11-1c0-1.3 2-1.3 4 0 1.2.8.9 1-1.2 1-1.6 0-2.8-.4-2.8-1m-80-1.1c0-.5-.4-.7-1-.4-.5.3-1 .1-1-.4 0-.6.9-1.1 2-1.1s2 .7 2 1.5-.4 1.5-1 1.5c-.5 0-1-.5-1-1.1m85.6-.4c-.6-1.6.3-1.9 2.8-.9 2.2.8 2 2.4-.3 2.4-1 0-2.1-.7-2.5-1.5m6.1-.2c.6-1.4 4.3-1.8 4.3-.4 0 .5-1.1 1.1-2.4 1.3-1.7.4-2.3.1-1.9-.9m-98.7-.2c0-.4-1.1-.6-2.5-.3-1.5.2-2.5 0-2.5-.7s-.4-.9-1-.6c-.5.3-1 .1-1-.6 0-.8 1-.9 3.1-.5 1.7.3 4.2.6 5.5.6 1.5 0 2.4.6 2.4 1.5 0 .8-.9 1.5-2 1.5s-2-.4-2-.9m104-.6c0-1.8.9-2.3 3.1-1.8 2.7.7 2.4 2-.6 2.5-1.5.3-2.5.1-2.5-.7m-114-1.6c0-.5-.4-.7-1-.4-.5.3-1 .1-1-.5 0-1.5 3.2-.9 3.8.8.2.6-.1 1.2-.7 1.2s-1.1-.5-1.1-1.1m123.7-.8c.3-1.2 1.1-1.7 1.9-1.4 1.9.7 1.8 1.9-.2 2.7-2.2.9-2.3.8-1.7-1.3m2.3-7.6c0-.8.7-1.5 1.5-1.5s1.5.7 1.5 1.5-.7 1.5-1.5 1.5-1.5-.7-1.5-1.5m-21.3-.2c-1.2-1.1-.8-2.3.8-2.3 2.6 0 1.6-2.5-1.6-3.9-6.6-2.9-3.9-7.6 3.9-6.7 2.8.3 4 .2 3.6-.6-.4-.6.1-.8 1.3-.4 1.3.4 2.6-.1 3.8-1.4 1-1.1 2.2-2 2.8-2 .5 0 2.2-.9 3.8-2.1l2.9-2v2c0 1.2-.4 2.1-1 2.1-.5 0-1 .5-1 1 0 .6.7 1 1.5 1s1.5.9 1.5 2-.4 2-1 2c-.5 0-1 .5-1 1 0 .6.6 1 1.4 1 .7 0 1.6.9 1.9 1.9.3 1.3 0 1.8-.8 1.5-.7-.3-5.3 1.1-10.2 3-9.1 3.6-11.4 4.2-12.6 2.9m-112.4-13.8c0-2.2.2-3 .4-1.7.2 1.2.2 3 0 4-.3.9-.5-.1-.4-2.3m102.6-18.2c0-1.1-.3-1.3-.6-.5-.7 1.8-4.3 1.5-4.3-.4 0-.9 1.1-3 2.5-4.6 2.9-3.4 2.9-5.5.3-7.2-1.9-1.2-2-1.1-8.2 3.8-4.4 3.5-13.6 5-13.6 2.3 0-.9-.9-2.1-2-2.7s-2.3-2.3-2.7-3.7c-.6-2.5-.7-2.5-1.4-.8-.6 1.5-.8 1.1-.8-1.7-.1-2.7.7-4.6 2.8-7 4.3-5.1 5.4-7.5 4.1-9.8-2.1-3.9-5.5-5.2-12.3-4.8-5.6.3-6.3.1-5.9-1.4.3-1.3.9-1.5 2.9-.7 1.3.5 3.4.9 4.5.9 2.4 0 5.8-3.5 5.8-6.1 0-2.1 3.6-4.9 6.4-4.9 1.1 0 3.5-.6 5.4-1.2 2.9-1.1 3.6-1 4.6.4.9 1.2 1.6 1.4 2.9.7 1.4-.8 1.7-.6 1.7 1.1 0 1.1-.4 2-.9 2s-.7.8-.4 1.9c.3 1.2-.5 2.5-2.5 4-1.7 1.1-3.3 2.1-3.6 2.1-1.2 0-4.6 3.5-4.6 4.7 0 .7 1.2 1.5 2.8 1.9 1.5.3 3.7 1 5 1.5 3.3 1.3 5.2 1.1 5.2-.6 0-1.2.4-1.3 1.9-.6 1.6.9 1.8.8 1.6-.7-.2-.9-.6-3.2-.9-5l-.6-3.3 4.6.5c2.5.3 5.3.2 6.2-.3 2.1-1.1 6.2.4 6.2 2.2 0 .9 1.5 1.7 3.8 2.1 5.4.9 6.2.8 6.2-.9 0-1.8 1.4-1.9 6.3-.1l3.9 1.3-8.1.7c-4.4.3-8.7.9-9.5 1.2-2 .8-2.8 3.4-1.6 4.9.9 1 .7 1.2-.7.9-1.2-.3-2.2.3-2.9 2-1.3 2.8-.7 4.2 2.1 4.9 1.7.4 1.6.5-.5.6-4.1.2-5.4 1.5-4.1 4 1 1.7 2.2 2.1 6.9 2.3l5.7.1-5 .7c-3.6.5-4.1.7-1.9.8 1.7.1 3.7.8 4.3 1.6.9 1.1.6 1.8-1.8 3.5-1.6 1.2-4.2 2.2-5.8 2.3-1.5.1-3.6.8-4.5 1.6-1.5 1.3-1.8 1.3-1.8.1-.1-1-.4-.8-1.1.4-.6 1-.8 2.5-.5 3.3s.1 1.4-.4 1.4c-.6 0-1-.8-1.1-1.7m-69.9-3.8c-2.1-2.5-.1-3.1 2.3-.7 1.7 1.8 1.8 2.2.5 2.2-.8 0-2.1-.7-2.8-1.5m13.1-2.9c-2.5-1.4-1.3-3.3 1.4-2.2.8.3 1.5.3 1.5 0 0-.2-1.1-.9-2.4-1.4-3.8-1.4-4.3-10-.5-10 1.4 0 1.9.7 1.9 2.8 0 1.5.5 3.4 1 4.2 1.1 1.7 1.3 1 1-3.7-.1-2.1.6-3.9 2-5.3l2.2-2.2 2.9 2.8c2.5 2.3 2.8 3.3 2.3 6.1-.5 2.6-.3 3.3 1 3.3 2.2 0 2 2.3-.4 4.5-1.1 1-2 1.3-2 .8 0-.6-.9-1.3-2-1.6-1.7-.4-2-.2-1.5 1.4s.1 1.9-2.7 1.9c-1.8-.1-4.4-.7-5.7-1.4m17-6.8c0-1-.5-1.8-1.1-1.8-.5 0-1-1.1-1-2.5 0-2.7 1.7-3.4 2.6-1.1.3.8.4 2.7.1 4.3-.2 1.5-.5 2-.6 1.1m61.7.5c1.2-.2 3.2-.2 4.5 0 1.2.2.2.4-2.3.4s-3.5-.2-2.2-.4m-91.3-1.3c-.3-.5-.4-1-.1-1 .2 0 1.1-.3 2-.6 1.1-.4 1.6-.1 1.6 1 0 1.8-2.5 2.2-3.5.6m-8-4.9c-.3-.6-2.5-1.2-4.8-1.2-2.8-.1-3.4-.3-1.7-.6 1.4-.3 3-.9 3.6-1.4 1.2-.9 5.2 2.6 4.2 3.7-.3.3-.9.1-1.3-.5m-9.2-14.8c-1.3-.2-2.3-.9-2.3-1.4 0-.6-.4-.7-1-.4-.5.3-1-.1-1-.9 0-.9-.8-1.6-1.9-1.6s-2.2-.4-2.5-.9c-.9-1.3 6.1-7.1 8.7-7.2 2.1 0 2.1-.1.2-.9-1.1-.5-1.4-.9-.7-.9.6-.1 1.3-1.1 1.3-2.3.1-2.1.2-2.1.6-.3 1 4.7 2.7 7.7 5.2 9 2.5 1.4 2.5 1.4.4 1.5-1.6 0-2.3.6-2.3 2 0 1.3-.5 1.7-1.4 1.4-1.1-.4-1.3 0-.9 1.5.3 1.2.4 2 .2 2-.2-.1-1.4-.4-2.6-.6m-16.8-2c1.1-.3 2.4-.9 2.9-1.3 1-1 3.6-.2 3.6 1.1 0 .5-1.9.8-4.2.8-2.4-.1-3.4-.3-2.3-.6m143.5-9.8c0-2.5.4-4.5.9-4.5s1.2-1 1.4-2.2c.2-1.3.5.7.6 4.5.1 5.3-.2 6.7-1.4 6.7-1.1 0-1.5-1.2-1.5-4.5m-49.7-7c-1.7-1.9-1.6-2.5.2-2.5.8 0 1.5.9 1.5 2 0 2.3-.1 2.4-1.7.5M395 133c0-1.1-.4-2-1-2-.5 0-1-.7-1-1.5s.7-1.5 1.5-1.5c1 0 1.5 1.1 1.5 3.5 0 1.9-.2 3.5-.5 3.5s-.5-.9-.5-2m0-58c0-.5.7-1 1.5-1s1.5.5 1.5 1c0 .6-.7 1-1.5 1s-1.5-.4-1.5-1"/><g fill="#fff"><path d="M292 398.5c-.9-1.1-1.3-10-1.3-36.2v-34.6l2.3-1.9c2.1-1.7 4.4-1.8 34.3-1.8 31.4.1 35 .4 36.9 3.4.4.6.8 16.3.8 34.9 0 32.4-.1 33.8-2 35.7s-3.3 2-35.9 2c-28.9 0-34-.2-35.1-1.5m25.5-15v-9l-4-.3c-2.2-.2-6.4-.1-9.2.3l-5.3.6v18l9.3-.3 9.2-.3zm20.5 7c0-.9.8-1.8 1.8-2.1 7.2-2.3 7.2-2.4 7.2-7.5 0-4.2-.3-4.9-2-4.9s-2 .7-2 3.9c0 4 0 4-4.2 4.3-3.5.2-4.2.6-4 2.1.2 1.2-.4 2.1-1.7 2.4-3.5.9-2.5 3.3 1.4 3.3 2.5 0 3.5-.4 3.5-1.5m12-.5c0-1.3-.7-2-2-2s-2 .7-2 2 .7 2 2 2 2-.7 2-2m-23.7-4.7c-.3-.7-1.4-1.3-2.4-1.3-1.3 0-1.9.7-1.9 2.4 0 2.2.2 2.3 2.4 1.3 1.3-.6 2.1-1.7 1.9-2.4m29.7 2.2c0-.9-.9-1.5-2.5-1.5-2.6 0-3.4 1.5-1.2 2.3 2.3 1 3.7.7 3.7-.8m.3-5.9c.8-1.9-.1-2.6-3.4-2.6-2.5 0-2.9.7-2 3.8.3.9 5-.1 5.4-1.2m-27.5-1.5c.3-.8-.3-1.1-1.4-.9-1.4.2-2-.4-2.2-2.2-.7-6.6-.8-6.7-7-7.4-7-.8-9.2-2.9-9.2-8.6 0-2.2-.3-4-.8-4-.7 0-4.5 6.9-5.6 10.3-.3.9-1.2 1.7-2.1 1.7-.8 0-1.5.5-1.5 1 0 .6 1.5 1 3.4 1 3 0 3.4-.4 4.1-3.2l.7-3.3 1.2 3.5c1.2 3.3 1.5 3.5 6.7 3.8 5.9.4 6.9 1.2 6.9 5.9 0 2.5.5 3.3 2.3 3.6 3 .6 4 .3 4.5-1.2m11.2-.5c0-.8-1-1.6-2.2-1.8-1.9-.2-2.4-1-2.6-4.5l-.3-4.3h4.5c2.6 0 4.6.5 5 1.3.3.8 1.1.5 2.4-1 2.5-2.9 2.8-2.9 3.6.2.4 1.7 1.3 2.5 2.9 2.5 2 0 2.2-.5 2.2-4s-.2-4-2-3.8c-1.5.2-2.1-.3-2.3-2.4-.3-2.3.1-2.7 2.5-3 1.7-.2 2.9-1 3.1-2 .3-1.5-.4-1.8-4.7-1.8-4.7 0-5.1.2-5.1 2.4 0 1.4-.4 3.6-1 5-.8 2.3-1.5 2.6-5.9 2.6-5.4 0-10.1-1.4-10.1-3 0-.5 1.6-1 3.5-1 2.2 0 3.8-.6 4.1-1.5.4-.8 1.2-1.5 2-1.5s1.4-.7 1.4-1.6c0-1.1-.8-1.5-2.7-1.2-2.6.3-2.8 0-3.1-3.4-.4-4.3-1.8-4.9-3.2-1.5-.8 2.1-.9 2-.9-.7-.1-3.6-3.6-7.6-6.8-7.6-1.6 0-2.3.6-2.3 2 0 1.1.5 2 1 2 2.5 0 4.8 3.8 5.5 8.8.7 5.2.6 5.4-1.6 5-2.1-.3-2.4-.9-2.7-5.6-.2-3.6-.7-5.2-1.5-4.9-.7.2-1.2 1.7-1.2 3.3 0 2.8-.2 2.9-5.3 3.2-7.2.4-6.3 2.4 1.6 3.6 5 .8 6.2 1.3 6.2 2.8 0 1.4-.8 1.8-4 1.8-2.9 0-4-.4-4-1.5 0-.8-.7-1.5-1.5-1.5s-1.5.7-1.5 1.5.6 1.5 1.4 1.5 1.6.7 2 1.5c.7 2 7.5 2 10.3 0 1.5-1.1 2.4-1.2 2.9-.4.3.6.1 1.5-.5 1.9-1.5.9-1.1 10.6.4 10.4.6-.1 1.6.7 2.3 1.7 1.6 2.3 8.2 2.7 8.2.5M304 358c0-1.5-.7-2-2.5-2-3.2 0-3.4 2.7-.2 3.3 1.2.2 2.3.5 2.5.6.1 0 .2-.8.2-1.9m14-14.8c0-4.9-.2-9.1-.4-9.3s-4.5-.3-9.5-.1l-9.1.3V352h19zm39 0c0-4.9-.2-9.1-.4-9.3s-4.3-.3-9-.1l-8.6.3V352h18zm-22.2-6c.4-3.6-.4-4.1-2.4-1.4-1.2 1.6-1.4 1.6-2.8-.3-1.5-1.9-1.5-1.9-1.6-.1 0 2.5 2.9 5.8 4.9 5.4 1-.2 1.7-1.6 1.9-3.6m-9.8-.7c0-1.6-.6-2.5-1.5-2.5s-1.5.9-1.5 2.5.6 2.5 1.5 2.5 1.5-.9 1.5-2.5"/><path d="M302 383.5v-6.6l6.2.3c7.1.3 7.5.8 6.3 8.4l-.6 4.4H302zm9 .5c0-2.7-.3-3-3-3s-3 .3-3 3 .3 3 3 3 3-.3 3-3m-9-41.5v-6.6l6.3.3 6.2.3.3 6.3.3 6.2H302zm9 .5c0-2.7-.3-3-3-3s-3 .3-3 3 .3 3 3 3 3-.3 3-3m31 .2v-5.9l5.2-.6c2.9-.4 5.6-.3 6.1.2.4.4.7 3.2.5 6.2l-.3 5.4-5.7.3-5.8.3zm8.8-.4c.3-2.5 0-2.8-2.7-2.8-2.8 0-3.1.3-3.1 3.1 0 2.7.3 3 2.8 2.7 2.1-.2 2.8-.9 3-3m-273 51.1c-1.7-.9-1.8-3.8-1.8-38.2 0-27.7.3-37.6 1.2-38.5s10.5-1.2 37-1.2c34.3 0 35.8.1 36.8 1.9.6 1.3 1 15 1 37.9 0 33.5-.1 36-1.8 37.5s-5.6 1.7-36.3 1.7c-21.5 0-35.1-.4-36.1-1.1m26.5-8.6c.2-.5.2-4.8-.1-9.6l-.5-8.8-9.6.4-9.6.4-.3 9.2-.3 9.1h10c5.5 0 10.2-.3 10.4-.7M125 384c.6-1.1 1.8-2 2.8-2 5.4-.1 9-8.4 5.7-13.4-2.4-3.6-3.7-2.3-3.4 3.2.3 4.6.3 4.6-3.2 5.4-4 .8-10.4 6.2-9.4 7.8 1.1 1.8 6.4 1.1 7.5-1m12 .1c0-1-.7-2.1-1.5-2.5-1.1-.4-1.5.1-1.5 1.9 0 1.6.6 2.5 1.5 2.5.8 0 1.5-.9 1.5-1.9m-27-2.1c0-.5.9-1 2.1-1 3.2 0 2-3.4-1.4-3.8-2.4-.3-2.7 0-2.7 2.7 0 1.7.5 3.1 1 3.1.6 0 1-.4 1-1m34-1.5q0-1.5-3-1.5t-3 1.5 3 1.5 3-1.5m0-6.4c0-1.3-.9-2-3-2.3-2.6-.4-3-.1-3 1.9 0 1.9.5 2.3 3 2.3 2.3 0 3-.5 3-1.9m-28-.1c0-.5-.7-1-1.5-1s-1.5.5-1.5 1c0 .6.7 1 1.5 1s1.5-.4 1.5-1m-4.9-5.6c-.1-2.7-.5-5.2-.7-5.6-.3-.5-3-.8-6-.8-3.9 0-5.6-.4-6-1.5-1.1-2.7-3.6-1.7-3.2 1.3.3 2.6.6 2.7 6.6 3l6.2.3v3.8c0 4 .7 5.4 2.4 4.8.6-.2.9-2.5.7-5.3m15.7 3.9c-.2-1-1.3-1.9-2.6-2.1-1.8-.3-2.2-1-2.2-4.3 0-3.1.4-3.9 1.8-3.9 1 0 2.3-.5 2.8-1 .8-.8 1.5-.6 2.4.5 1.9 2.3 4.8 1.8 6.4-1.2 1.5-2.9 2.1-2.4 2.8 2.2.2 1.2 1.2 2.1 2.7 2.3 2.1.3 2.3 0 1.9-2.2-.3-1.5-.1-2.9.4-3.2 1.3-.8-.1-2.4-2.3-2.4-1.5 0-1.9-.7-1.9-3.5 0-3.1.3-3.5 2.5-3.5 1.6 0 2.5-.6 2.5-1.5 0-1.1-1.2-1.5-5-1.5-5 0-5 0-5 3.3-.1 1.7-.9 4.2-2 5.5-1.8 2.1-2.2 2.2-8.2 1.3-4.5-.8-6.7-1.6-7.7-3.1-.7-1.1-2.3-2-3.6-2-2 0-2.1-.4-1.7-5.5.4-4.5.2-5.5-1.1-5.5-1 0-1.7 1.1-1.9 3.3-.3 3.1-.5 3.2-5 3.5-3.4.2-4.8.7-4.8 1.8 0 .7.8 1.4 1.9 1.4 1 0 2.4.7 3.1 1.5s2.3 1.5 3.7 1.5c1.3 0 2.6.6 2.9 1.4s1.6 1.7 3 2c2.2.6 2.4 1.1 2.4 6.3 0 5 .3 6 2.8 8 3.4 2.8 9.5 3.2 9 .6M92 361.6c0-1.3.7-2.9 1.6-3.6 1.7-1.5 1.6-7.1-.3-7.7-.6-.2-1.4 1-1.8 2.6-.4 1.7-1.1 3.1-1.6 3.1s-1.1 1.1-1.5 2.5c-.3 1.4-1.2 2.5-2 2.5-2.6 0-1.4 2.9 1.4 3.2 3.6.5 4.2.1 4.2-2.6m17-3.6c0-.5-1.3-1-3-1q-3 0-3-1.5c0-.8-.9-1.5-2-1.5s-2 .7-2 1.5.9 1.5 2 1.5 2 .5 2 1c0 .6 1.4 1 3 1 1.7 0 3-.4 3-1m15.8-6c.7-1.1 1.9-2 2.8-2 2.9 0 .8-2.5-2.4-2.8-2.8-.3-3.2-.7-3.2-3.2 0-4.1-1.6-4.6-2.6-.7l-.8 3.2-.4-4c-.4-4.9-3.7-8.7-7.1-8.3-2.5.3-4.3 2.8-2.1 2.8 2.6 0 6 4.5 6 8 .1 6.6 6.9 11.5 9.8 7M90 350c0-1.5-.7-2-2.5-2s-2.5.5-2.5 2 .7 2 2.5 2 2.5-.5 2.5-2m14-15.2V325H84v20.1l10-.3 10-.3zm40-.3V325h-18.6l-.1 9.5-.1 9.5H144zm-22.2-5.8c.3-4-1.6-5.3-2.5-1.7-.7 2.5-1.9 2.6-2.7.3-.6-1.5-.8-1.5-1.6-.3-.6 1-.2 2.2 1.3 3.8 3 3.2 5.1 2.5 5.5-2.1m-10.8-1.2c0-1.6-.6-2.5-1.5-2.5s-1.5.9-1.5 2.5.6 2.5 1.5 2.5 1.5-.9 1.5-2.5"/><path d="M88 377v-6h13v12H88zm10 .5c0-3.3-.2-3.5-3.5-3.5s-3.5.2-3.5 3.5.2 3.5 3.5 3.5 3.5-.2 3.5-3.5m-10-43V328h13v13H88zm9 .5c0-2.7-.3-3-3-3s-3 .3-3 3 .3 3 3 3 3-.3 3-3m32.7 5.3c-.4-.3-.7-3.3-.7-6.5V328h12v13h-5.3c-3 0-5.7-.3-6-.7m8.3-5.3c0-2.7-.3-3-3-3s-3 .3-3 3 .3 3 3 3 3-.3 3-3m472 5c-3.8-3.8-1.9-10 3-10 3.6 0 6 2.3 6 5.9 0 3-2.7 6.1-5.3 6.1-.9 0-2.6-.9-3.7-2m262.2.4c.3-1.9 6.3-4.2 7.5-3 1.4 1.4-1.5 4.1-4.6 4.4-2.7.3-3.2 0-2.9-1.4m60.3.6c-1-1.6.3-2.7 3.5-3.2 3.5-.5 4.7.6 3 2.7-1.4 1.7-5.6 2-6.5.5m46.5-.9c0-1.3.9-2 3-2.3 4.2-.6 6.1.8 3.6 2.7-2.9 2.2-6.6 1.9-6.6-.4m-438.8-8.3c.7-1.9 6.3-2.2 7.8-.4 1.1 1.4.7 1.6-3.5 1.6-3.3 0-4.5-.4-4.3-1.2m114.8-.4c1.5-1.8 7.1-1.5 7.8.4.2.8-1 1.2-4.3 1.2-4.2 0-4.6-.2-3.5-1.6m89 .6c0-1.6 4.2-2.9 6.4-2 3.9 1.4 2.9 3-1.8 3-2.5 0-4.6-.5-4.6-1m63 0c0-1.8 4.9-3.1 7.1-2 3.2 1.8 2.1 3-2.6 3-2.5 0-4.5-.5-4.5-1m-485.1-26.5c-5.5-3-6.2-11.6-1.2-15.5 9.4-7.4 20.8 5.7 12.4 14.1-3.3 3.2-7 3.7-11.2 1.4"/></g></svg>
