<svg xmlns="http://www.w3.org/2000/svg" viewBox="0 0 439 408"><g fill="#000c29"><path d="M77.3 401.3c-.7-.2-1.3-1.3-1.3-2.4 0-1.5.7-1.9 3.5-1.9 3.1 0 3.5.3 3.5 2.5 0 1.9-.5 2.5-2.2 2.4-1.3 0-2.9-.3-3.5-.6m18.7-1.8V397h28.5c27.2 0 28.5.1 28.5 1.9 0 1.1-.9 2.1-2.2 2.5-1.3.3-14.1.6-28.5.6H96zm216-14V380h-9v4c0 3.9-.1 4-3.5 4H296v-16h10v-4.5c0-2.5-.4-4.5-1-4.5-.5 0-1-1.8-1-4 0-3.3.3-4 2-4 1.1 0 2-.4 2-1 0-.5 2.5-1 5.5-1 5.2 0 5.5-.1 5.5-2.5s.2-2.5 7-2.5 7 .1 7 2.5.3 2.5 5.5 2.5h5.5v4c0 2.8-.4 4-1.4 4-.8 0-1.6.7-2 1.5-.4 1.1-2.1 1.5-6.1 1.5H329v-3.5c0-1.9.5-3.5 1-3.5.6 0 1-.4 1-1 0-.5-.9-1-2-1-1.5 0-2 .7-2 2.5s-.5 2.5-2 2.5c-1.1 0-2 .5-2 1 0 .6-1.2 1-2.6 1-2.1 0-2.5.4-2.2 2.3.2 1.6 1.1 2.3 3.1 2.5 2.4.3 2.7.8 2.7 3.8 0 2.4.5 3.4 1.5 3.4 1.1 0 1.5 1.2 1.5 4.5 0 4.3-.1 4.5-3 4.5-2.5 0-3.1.5-4.1 4-1.1 3.6-1.5 4-4.6 4H312zm-206.2-8.9c-.2-4.1-.6-7.7-.9-8s-3.3-.9-6.7-1.2c-4.2-.5-6.2-1.1-6.2-2s-1.1-1.4-3-1.4c-2.9 0-3-.1-3-5 0-3.1.5-5.2 1.4-5.7.8-.4 1.5-1.7 1.7-2.8.3-1.5 1.3-2.1 4.2-2.3l3.7-.3v5.5c0 5.2.2 5.6 2.4 5.6 1.7 0 2.5-.7 2.8-2.5.4-1.9.1-2.5-1.3-2.5-1.5 0-1.9-.8-1.9-4 0-3.9.1-4 3.5-4s3.5.1 3.6 4.3c.1 2.3.4 3.2.6 2 .4-1.9 1.1-2.3 4.4-2.3 2.1 0 3.9-.4 3.9-1 0-.5-.7-1-1.5-1-.9 0-1.5-.9-1.5-2.5s-.6-2.5-1.5-2.5-1.5-.9-1.5-2.5-.6-2.5-1.5-2.5c-1 0-1.5-1.1-1.5-3.5 0-3 .3-3.5 2.3-3.5 4.2 0 9.7 1.3 9.7 2.2 0 .5.9 1.8 2 3l2 2.2v-2.2c0-1.2.8-3.7 1.7-5.7 1.4-3 2.2-3.5 5-3.5 2.1 0 3.3.5 3.3 1.4 0 1 1.1 1.2 4.5.8l4.5-.5v4.2c0 2.7-.4 4.1-1.3 4.1s-1.2 1.1-.9 3.5c.4 3.1.8 3.5 3.3 3.5 2.6 0 2.9.4 2.9 3.1 0 3-1.9 5.9-3.9 5.9-.6 0-1.1 1.8-1.1 4.1v4.1l-4.7-.3c-7.8-.4-9.4-.1-10 2.1-.4 1.5-1.4 2-3.9 2-1.9 0-3.4-.4-3.4-1 0-.5-1.2-1-2.6-1-2 0-2.5.4-2 1.6.3.9.6 2.4.6 3.5 0 1.4.7 1.9 2.5 1.9 2.2 0 2.5.4 2.5 3.5 0 1.9-.4 3.5-1 3.5-.5 0-1 1.6-1 3.5v3.5h-10.8zm27.8-23.6c2 0 2.4-.5 2.4-3 0-2.3-.4-3-2-3-1.5 0-2 .7-2 2.5s-.5 2.5-2 2.5c-1.1 0-2 .5-2 1.1s.7.8 1.6.5 2.7-.6 4-.6"/><path d="M88 377v-6h12v12H88zm38 .5c0-1.9.5-3.5 1-3.5.6 0 1-.7 1-1.5s.7-1.5 1.5-1.5 1.5-.7 1.5-1.5c0-1 1.1-1.5 3.5-1.5 3.2 0 3.5.3 3.5 2.8 0 4.7-1.1 7.2-3.1 7.2-1.1 0-1.9.7-1.9 1.5 0 1-1.1 1.5-3.5 1.5-3.3 0-3.5-.2-3.5-3.5m224.3-16.2c-1.9-.4-2.3-1.1-2.3-4.2 0-3.7.2-3.9 3.8-4.5 8-1.3 8.3-1.1 8 4.2-.3 4.6-.4 4.7-3.8 4.8-1.9.1-4.5 0-5.7-.3M88.4 337.5c-.4-1.6-1.3-2.5-2.5-2.5-1.6 0-1.9-.8-1.9-4.5 0-3.3.4-4.5 1.5-4.5.8 0 1.5-.7 1.5-1.5 0-1.2 1.5-1.5 7.1-1.5h7.2l-.7 6.1c-.3 3.4-.6 7.3-.6 8.5 0 2.2-.4 2.4-5.5 2.4-5 0-5.5-.2-6.1-2.5m252.2-20.7c-1.7-6.5.2-9.8 5.6-9.8 6.3 0 7.8.9 7.8 4.6 0 3.1-.3 3.4-3 3.4-2.3 0-3 .4-3 2s-.7 2-3.4 2c-2.6 0-3.5-.5-4-2.2m-46.6-5.2c0-3 .4-3.4 3.1-4 7-1.4 7.9-1 7.9 3.4v4h-11zM95 259.7c0-3.2.2-3.4 5.1-4.5 5.4-1.3 22.6-1.6 27.8-.6 2.8.6 3.1 1 3.1 4.5v3.9H95zm77-4.8c0-4.6 1.6-6.9 5-6.9 4.9 0 6 .9 6 5 0 3.4-.3 3.8-3.1 4.4-6.6 1.3-7.9.9-7.9-2.5m180-50.8c0-4.9.9-6.1 4.6-6.1 3.1 0 3.4.3 3.4 2.9 0 4.9-.9 6.1-4.6 6.1-3.1 0-3.4-.3-3.4-2.9m-100-4.6V194h3.3c4.1 0 6.7 2.9 6.7 7.5v3.5h-10zm11 1.1c0-2.5.4-3.6 1.5-3.6.8 0 1.5-.9 1.5-2 0-1.7.7-2 4.8-2 2.6 0 7.1.3 10 .6l5.2.7v3.8c0 4.4.1 4.3-14.7 5.4l-8.3.6zm117-.5c0-6.3.7-7.1 5.6-7.1 4.2 0 4.4.2 4.4 2.8 0 1.5-.6 4-1.2 5.5-1.1 2.2-2 2.7-5 2.7-3.7 0-3.8-.1-3.8-3.9m-14.3 2.2c-.4-.3-.7-2.1-.7-3.9 0-3.8 2-4.8 8.1-4.2 3.2.3 3.4.5 3.7 4.6l.3 4.2h-5.4c-2.9 0-5.7-.3-6-.7M247 184.5c0-2.8.4-3.5 1.9-3.5 1.1 0 2.3-.4 2.6-1 .3-.5 2.2-1 4.1-1 3.4 0 3.4 0 3.4 4.5v4.5h-12zm142 2c0-1.3-1.2-1.4-8-.9l-8 .7v-3.6c0-3.5.2-3.7 4-4.3 2.2-.4 4-1 4-1.5s2.1-.9 4.6-.9c3.7 0 4.7.4 5.1 2 .4 1.4 1.4 2 3.2 2 5.6 0 7.1 1 7.1 4.6v3.4h-6c-4.7 0-6-.3-6-1.5m-121.7-.2c-.7-.2-1.3-1.1-1.3-1.9s-.9-1.4-2-1.4c-1.6 0-2-.7-2-3.6v-3.7l5.3.7c2.8.3 6.7.6 8.5.6 2.9 0 3.2.3 3.2 3 0 4.3-2.7 7-7 6.9-1.9 0-4.1-.3-4.7-.6m71.9-73c-2-.4-2.3-1-2-4.1.3-3.5.5-3.7 4.1-4 2.1-.2 3.7.1 3.7.7s.9 1.1 2 1.1c1.6 0 2 .7 2 3.5 0 3.4-.1 3.5-3.7 3.4-2.1-.1-4.8-.4-6.1-.6M302 109c0-4 0-4 3.9-4 5.9 0 7.1.8 7.1 4.6v3.4h-11z"/></g><g fill="#000f33"><path d="M290 405.1c-2-1-3.6-2.7-3.8-4-.2-1.1-.8-2.1-1.3-2.1s-.9-14.5-.9-36v-36h8.8l.6 9.3c.4 5 .6 20.3.4 33.9-.1 15.4.1 25.1.7 25.7s13.1 1.1 32 1.1c29.7.2 31.1.1 33.2-1.8 2.3-2 2.3-2.1 2.3-32.9 0-24.6-.3-31.3-1.4-32.8-1-1.3-3-2-7.5-2.3l-6.1-.4v-3.9c0-2.1.3-4 .8-4.2.4-.3 6.1-.6 12.7-.8l12-.4 1.7 3.5c1.6 3.1 1.8 6.9 1.8 32.8 0 28-.1 29.2-1.9 29.2-1.7 0-1.9.9-2.2 8.4-.3 6.6-.8 8.9-2.4 10.6-4.2 4.8-6.2 5-42.2 5-31.1 0-34.1-.2-37.3-1.9m-215-4.9c-4.2-2.3-7-7.4-7-12.9 0-2.8-.5-4.3-1.2-4.3s-.5-.5.5-1.1c1.6-.9 1.7-3.6 1.7-32.9 0-20.7-.4-32-1-32-.5 0-1-1.6-1-3.5 0-3.3.2-3.5 3.5-3.5 2.8 0 3.5.4 3.5 2 0 1.1.5 2 1 2 .6 0 1-.4 1-1 0-.5 1.6-1 3.5-1 3.3 0 3.5.2 3.5 3.5 0 2.8-.4 3.5-2 3.5-1.9 0-2 .7-2.1 21.8-.1 42.1.1 48.5 1.8 50.4 1.4 1.6 4.4 1.7 33.3 1.5 31.6-.2 31.8-.2 33.8-2.4 2.3-2.7 8.2-3.1 10.5-.8 2 1.9 1.1 4.8-2.4 8.6-2.4 2.5-3.4 3-5.6 2.4-1.7-.4-2.9-.2-3.4.7-.7 1-.9 1-.9.1 0-1-2.8-1.3-10.4-1.3-7.4 0-10.6.4-10.9 1.3q-.6 1.5-.6 0c-.1-1.5-5.1-1.8-5.1-.3 0 .6-.9 1-2 1s-2-.4-2-1-3.3-1-8-1-8 .4-8 1-3.8 1-9.5 1c-6.9 0-9.5-.3-9.5-1.2 0-1-.2-1-.8-.1-.6 1-1.6.8-4.2-.5"/><path d="M296 387.8c0-4.6.3-10 .6-12 .6-3.7.8-3.8 5-3.8 3.2 0 4.4.4 4.4 1.5 0 .8-.7 1.5-1.5 1.5s-1.5.4-1.5.9c0 1.4 4.8 2.2 8.6 1.5l3.4-.6.1 5.8.1 5.9 1.5-4.6c1.9-5.6 1.1-9.4-1.9-10.4-2-.6-1.7-.8 2.2-1.9l4.5-1.2-4.5-.8c-2.4-.4-5.2-1.4-6.2-2.3-1.7-1.5-1.8-1.4-1.8 1 0 3-.9 3.2-5.7 1.5-2.8-1-3.3-1.7-3.3-4.5 0-2.6-.4-3.3-2-3.3-1.9 0-2-.7-2-15.5V331h6.8c3.7 0 9.1-.3 12-.7 4.9-.5 5.4-.4 5.9 1.6.6 2.3 4.3 3 4.3.7 0-1.1 3.5-1.4 16.8-1.8 9.2-.3 16.8-.4 17-.2.2.1.6 4.5.9 9.6.7 11.1-.2 18.8-2.2 18.8-.8 0-1.1-.7-.8-1.8.4-1.6 0-1.8-2.6-1.4-3.4.5-4.3 2.2-1.1 2.2 1.3 0 1.8.5 1.4 1.5-.5 1.1.1 1.5 2 1.5 2.2 0 2.6.4 2.6 3.1 0 1.8-.5 4.9-1.1 7-1.1 3.4-1.6 3.8-4.8 4.2-3.2.3-3 .4 1.1.5 2.6.1 5 .7 5.3 1.2.3.6.3 4.2-.1 8l-.7 7h-3.3c-2.4 0-3.4.5-3.4 1.5 0 1.1-1.1 1.5-4.1 1.5-3.2 0-4.2-.4-4.6-2-.3-1.1-.9-2-1.3-2s-1 .9-1.3 2c-.4 1.7-1.4 2-6.6 2H328v-4.5c0-3.8.3-4.5 2-4.5 1.1 0 2-.6 2-1.2 0-.9-1.8-1.3-5.5-1.3h-5.4l-.3 6-.3 6-12.2.3-12.3.3zm43.9-15.7c-1.5-.5-2.2.6-1.4 1.9.6.9 1 .9 1.6-.1.5-.8.4-1.5-.2-1.8m4-11.1c.3 0 .5-1.8.3-4-.3-2.5 0-4 .7-4 .6 0 1.1-.9 1.1-2s-.4-2-.9-2-1.1.9-1.4 2c-.3 1.4-1.4 2-3.1 2-2.7 0-3.5 1.5-1.3 2.3.6.3-.4.6-2.3.7-3.1.1-3.3.2-1.7 1.4 2.4 1.8 2.2 2.4-1 2.9l-2.8.4 2.8.2c1.6 0 3-.5 3.3-1.4.9-2.2 2.4-1.8 2.4.6 0 1.5.4 1.9 1.6 1.5.9-.3 1.9-.6 2.3-.6m-23.9-3c0-.5.9-1 2-1 1.6 0 2-.7 2-3 0-1.6-.4-3-1-3-.5 0-1 1.1-1 2.5 0 2.4-.3 2.5-5.7 2.6-3.2.1-5 .3-4 .6.9.2 1.7.9 1.7 1.4s1.4.9 3 .9c1.7 0 3-.4 3-1M81.7 388.3c-.4-.3-.7-3-.7-6V377h3.5c2.8 0 3.5.4 3.5 2 0 2.1 2.3 2.6 6.8 1.4 1.6-.5 2.2-1.4 2.2-3.5 0-1.9-.5-2.9-1.5-2.9-.8 0-1.5-.4-1.5-1s-2.7-1-6-1h-6v-7c0-5.6.3-7 1.5-7 1.9 0 1.9-1.7.1-3.6-2.6-2.5-3.5-27.6-1.1-31.3.4-.8 10.7-1.1 32.6-1l31.9.2V353l-2.7.1c-2.1.1-2.3.2-.8.6 3.4.8 3.7 1.9 3 8.2-.6 5.1-1 6-2.8 6.4-1.8.3-1.7.5.6.6 2.6.1 2.7.3 2.7 5.1 0 4.3-.3 5-2 5-1.6 0-2 .7-2 3v3h-9.1c-8.2 0-9.1.2-9.6 2-.6 2.1-3.5 2.6-8 1.4-1.9-.5-2.3-1.3-2.3-4.4 0-2.7.5-4 1.8-4.5 1.5-.7 1.4-.9-.8-1.5-4.4-1.4-6-1.1-6 1 0 1.3.7 2 2 2 1.5 0 2 .7 2 2.5 0 2-.5 2.5-2.4 2.5-1.3 0-2.6.7-3 1.5-.4 1.2-2.8 1.5-12.9 1.5-6.8 0-12.7-.3-13-.7m29.1-17.5c-.2-1.7-.8-3.3-1.4-3.5s-.8 1-.6 3.2c.5 4.4 2.4 4.7 2 .3m-5-7.6c.2-.8-1-1.2-3.7-1.2-4.6 0-5.6 1.6-1.3 2.3 3.6.5 4.5.3 5-1.1M92 358.4c0-3.1-2.3-2.8-2.8.4-.2 1.5.2 2.2 1.2 2.2 1.1 0 1.6-.9 1.6-2.6m29.2.2c1.2.3 1.8.2 1.5-.3s-2.4-1.5-4.6-2.3c-2.2-.7-3.8-1.7-3.5-2.1.3-.5-.6-.9-2-.9-3.4 0-3.4 2.7-.1 4 1.4.5 2.5 1.4 2.5 2 0 .7.6.7 2 0 1.2-.6 3-.8 4.2-.4M94 352.9c0-1.1-.4-1.7-1-1.4-.5.3-1 1.3-1 2.1s.5 1.4 1 1.4c.6 0 1-.9 1-2.1m30.6-1.4c.4-1-.5-2.7-2.4-4.5-3.3-3.1-4.2-2.5-4.2 3.1 0 2.6.3 2.9 3 2.9 1.8 0 3.3-.6 3.6-1.5m-6.6-8.7c0-2.8-.8-3.9-3.7-5.6-2.1-1.1-2.3-1-2.3.8 0 1.1.7 2 1.5 2 .9 0 1.5.9 1.5 2.5s.6 2.5 1.5 2.5 1.5-.9 1.5-2.2m15 .2c0-.5.8-1.1 1.8-1.3.9-.3 0-.5-2-.6-3.4-.1-3.8-.4-4.3-3.5-.4-1.9-.4-4.5 0-5.8.3-1.3-.4-.6-1.8 1.7-1.8 3-2.2 4.6-1.5 6.3.4 1.3.6 2.7.3 3.2-.6 1 3.2 1.7 5.8 1.2.9-.3 1.7-.8 1.7-1.2m2-7c0-1.1.7-2 1.5-2s1.5-.4 1.5-.9-1.2-.6-2.7-.2c-3.1.8-4.7 5.1-1.9 5.1.9 0 1.6-.8 1.6-2m-38-.9c0-1.2-.9-2.1-2.6-2.5-3.2-.8-3.8-.4-2.9 2.3.9 2.8 5.5 2.9 5.5.2m1-8.1c0-.5-1.8-1-4-1s-4 .5-4 1c0 .6 1.8 1 4 1s4-.4 4-1"/><path d="M219.9 379.8c-1.7-2.4-3.3-4.9-3.6-5.6-.3-.8-1.4-1.1-2.4-.9-1.4.4-1.9 0-1.9-1.3 0-1.1-.4-2.2-1-2.5-.5-.3-1-1.9-1-3.5 0-1.5-.4-3-.8-3.2-1-.4-5-14.3-5.8-20.3-.4-2.5-1-4.5-1.4-4.5-.5 0-1.4-3.1-2.1-7-.7-3.8-1.6-7-2.2-7-.5 0-.7-1.8-.5-4 .2-2.8 0-4-.9-4-.8 0-1.3-1.3-1.3-3.5 0-3.2.2-3.5 3-3.5 3.1 0 3.7-1.3 2-4-.6-1-1-1.1-1-.2 0 .7-1.4 1.2-3.4 1.2-3.2 0-3.5-.2-4.1-4-.6-3.3-1.1-4-3-4-3.1 0-17.5 2.9-20 4-2.3 1-16 2.6-31.3 3.6-7.7.5-10.5 1-11.1 2.2-.6 1-.4 2.1.5 3 .8.7 1.4 2.9 1.4 4.8v3.4h-25v-3.5c0-1.9.4-3.5.9-3.5s1.3-.9 1.6-2.1c.5-1.4 0-2.6-1.5-3.9-1.9-1.6-2.2-2.7-1.7-6 .3-2.2.1-4-.4-4s-.9 1.4-.9 3.1c0 5.8-1.5 6.3-16.8 5.5-14.1-.7-30.7-3-44.7-6.4-8.1-1.9-13.3-5.3-14.8-9.4-.8-2.2-2.3-2.3-3.1-.2-.4 1.1-.9 1.2-1.8.4-.7-.6-2.8-2-4.7-3.3-7.2-4.7-7.6-5.9-7.6-24.7v-16.9l3.5-3.6c2.1-2.2 5.2-4.1 7.8-4.8l4.2-1.1v-52.8c0-33.2.4-55.5 1.1-60.1l1.1-7.4-3.1-4.3c-7.1-9.8-10.4-25.3-10.4-49 0-16.5 1-25.5 4-36.2 1.8-6.6 4.3-7.9 4.3-2.3 0 2.4.5 3.5 1.5 3.5 1.6 0 1.3-4-.7-9.2-.8-2.2-.6-3.2 1.1-5.7C26.6 4.6 33.2 1 40.5 1c9.2.1 22.3 12.1 32.2 29.6C81.1 45.4 81 45 76.6 45c-2.5 0-3.6.4-3.6 1.5 0 1-1.1 1.5-3.5 1.5-3.9 0-7.1-2.7-8-7.1-.3-1.5-1.3-3-2.1-3.3S58 36.1 58 35s-.4-2-.8-2c-.9 0-7.5-8.7-8.4-11.1-.8-2.1-9.1-6.1-11-5.4-.8.3-2.1 1.7-2.8 3.1-.8 1.3-2.2 2.4-3.4 2.4-1.8 0-2.1.6-2.2 4.8-.1 2.6-.8 9-1.7 14.2S26 51.1 26 51.8c0 .6-.7 1.2-1.5 1.2-1.1 0-1.5 1.2-1.5 5s.4 5 1.5 5 1.5 1.2 1.5 4.5c0 5.3 3.4 23.5 4.9 26.4.6 1.1 1.1 2.9 1.1 4 0 1.8.6 2.1 3.9 2.1 2.3 0 4.6.7 5.5 1.6 2.4 2.3 2 8.8-1.1 17.3l-2.8 7.6-.3 54.3c-.2 38 0 54.7.7 55.6.6.7 3.6 1.6 6.6 2 3.1.3 7.4 1.3 9.8 2.1 2.3.8 6.7 1.7 9.7 2 13.9 1.4 14 1.5 14 3.9 0 5.1 10.4 7 36.1 6.7 10.1-.1 17.7-.7 21.3-1.6 3.2-.8 6.6-1.5 7.6-1.5 1.6 0 2-.7 2-3 0-2.7.3-3 3.3-3 1.7 0 5.6-.3 8.5-.6 4.9-.6 5.2-.6 5.2 1.6s.1 2.3 8.3 1.6c14.7-1.1 19.7-1.8 19.7-2.7 0-.5-.8-.9-1.9-.9-1.7 0-1.9-1.8-2.6-37.9-.4-20.9-.5-38.3-.2-38.8 1.2-1.9-1.4-36.1-3.3-43.5-2.4-9.4-2.6-13.8-.5-13.8.9 0 1.7-1.4 2.1-3.9.6-3.6 1-4 5-5.1 2.3-.7 5.1-2.1 6-3.1 1.6-1.8 1.6-1.9-1.6-1.9h-3.3l.7-5.7c.4-3.2 1.1-9.8 1.6-14.8.5-4.9.9-9.1.9-9.2.1-.2 1.6-.3 3.5-.3 3.1 0 3.5.3 4 3.3.2 1.7.2-2.6 0-9.8-.3-7.1-.7-13.1-.9-13.3-.2-.3-2.4-.7-5-.9-4.2-.5-4.5-.8-4.5-3.5 0-4.4-5.7-18.3-9-21.8-2.4-2.5-3.4-3-5.7-2.4-1.5.4-3 1-3.3 1.4-2.5 3.3-8.7 10.6-9.2 10.8s-.8 1-.8 1.8c0 .9-1.1 1.4-3 1.4-2.1 0-4.1-1.2-7-4l-4.1-4 3.2-4.6c4.9-7.2 8.6-11 13.9-14.4 12.9-8.3 26-3.1 33.6 13.5 6.4 14 9.3 36.6 7.4 58.6-1.3 16-3.2 24.4-7.2 32.1-2.9 5.4-2.9 5.9-1.8 11 1.3 5.7 2.8 52.9 2.9 91.9l.1 23.6 3.6.6c5.6.9 10.4 5.1 10.4 9 0 1.8-.7 4-1.5 5.1-1.5 1.9-3.6 1.9-12.2.1-2.6-.6-3.3-.4-3.3.8 0 1.8-7.4 4.2-15.9 5.1-2.9.3-5.8.9-6.5 1.4-1.2 1-11.2 2.5-28.4 4.2-8.9.9-12.8.9-18.5-.2-6.2-1.1-6.7-1.3-3.4-1.6 2-.2 3.7-.7 3.7-1.1 0-2.4-18-2.7-26-.5l-4.5 1.2 7 .2c6.5.2 6.7.3 3 1.1-6.6 1.3-27.6 1-40.1-.6-12.2-1.6-27.3-4.9-38.3-8.4-3.6-1.1-6.8-1.8-7.3-1.5-.4.3-.8 5.2-.8 11 0 9.3.2 10.5 2 11.6 1.1.7 2 1.8 2 2.4 0 1.7 4.1 3.1 11.3 3.9 3.7.4 7 1.1 7.3 1.6s2.5.9 4.9.9 4.5.5 4.7 1.2c.2.6 3.1 1.3 6.6 1.6 5.5.4 6.2.7 6.3 2.6 0 1.1.3 1.5.6.9.6-1.7 12.6-1.7 15.2-.2 1.1.7 3.2.9 5.4.5l3.7-.7v-12l4.3.3c3.3.2 4.6-.2 6.2-1.9 2.5-2.8 9-6.3 11.5-6.3 1.2 0 2-.7 2-1.6 0-1.7 2.1-1.6 10.8.2 5.8 1.2 11.2 10.3 11.2 18.8v2.6l10.5-.7 10.5-.6v3.1c0 1.8.5 3.2 1 3.2.6 0 1-.4 1-1 0-.5 1.1-1 2.4-1 1.6 0 2.7-.7 3.1-2 .9-2.8 6.9-5.5 21.5-9.6 6.9-2 13.3-4.3 14.3-5.1 1.1-1.1 1.7-3.1 1.7-6.2 0-7.7.8-9.1 4.6-9.1 1.9 0 3.4-.4 3.4-1 0-.5 1.4-1 3-1h3v9.7c0 12-2.1 17.2-8.2 20.6-3.9 2.2-3.9 2.3-3.4 6.7.3 2.5 2.7 11.9 5.4 21s6.7 23.1 8.7 31.3c4 15.3 5.8 18.1 7 10.6 1.2-6.8 7-10.6 12.9-8.3 2.5 1 2.9 6.7 1.2 15.1-.9 4.3-1.9 8.8-2.2 10.1-.2 1.3-1.2 2.2-2.3 2.2-1 0-2.9 1.7-4.2 3.8-1.8 2.8-3.2 3.8-5.6 4-2.8.3-3.6-.3-6.4-4m-101.7-90.3c2.1-3.8 1.5-6.6-1.9-8.2-4.7-2.2-9.3 2.1-8.5 8 .4 3.8.5 3.8 4.5 3.5 3.4-.2 4.4-.9 5.9-3.3M180 253c0-1.7-3-1.8-3.9-.1-.9 1.6-.7 1.7 1.4 1.3 1.4-.2 2.5-.8 2.5-1.2M3 375c-1.1-1.1-2-2.4-2-3 0-.9 12.1-52.5 15.1-64.3 1.2-5 3.1-6 4.9-2.7.6 1.1 1.7 2 2.5 2s1.7 1.1 2.1 2.4c.3 1.4 1.2 2.7 2 3 1.5.6 2 7.6.5 7.6-.9 0-3.1 9.8-3.1 14.2 0 1.5-.4 2.8-1 2.8-.5 0-1 1.4-1 3.2 0 3.6-2.5 13.7-4.6 18.5-.8 1.7-1.4 4.6-1.4 6.5 0 5.2-1 7.8-3.1 7.8-1.1 0-2.8.9-3.9 2s-2.7 2-3.5 2-2.4-.9-3.5-2"/><path d="M149 348.7c0-19.9-.3-27.6-1.2-28.5-.7-.7-4-1.2-8-1.2H133v-3.1c0-3 3-6.9 5.2-6.9.4 0 .8-.7.8-1.5 0-1.2 1.6-1.5 8.8-1.5 7.9 0 9 .2 10.8 2.3 4.2 4.9 4.4 5.9 4.4 28.7v22h-7v17h-7zm266.3 16.8c-.7-.8-1.3-2.8-1.3-4.5 0-1.6-.4-3-.8-3-.9 0-4.2-13.2-4.2-16.8 0-1.2-.8-3.4-1.7-4.9-1.2-1.7-1.8-5.3-2.1-11.2l-.4-8.7 3.6-3.7c6.6-6.8 6.5-7 14 23.6 3.6 14.9 6.6 27.7 6.6 28.3s-2.1 1.4-4.6 1.8c-6.5.8-7.7.7-9.1-.9m-181.8-24.7c-1.3-9.3-1-13 2.3-28.3l3.3-15-3-2.5c-4.7-4-5.1-5.8-5.1-21.5 0-15.2.7-18.5 4-18.5 1 0 2.2-.4 2.5-1 .3-.5 2.6-1 5.1-1 2.4 0 4.4.5 4.4 1 0 .6 1.4 1 3 1 1.7 0 3-.4 3-1 0-.5 1.6-1 3.5-1 2.9 0 3.6.4 4.1 2.6.6 2.2 3.7 4.4 6.5 4.4.5 0 .9-1.1.9-2.5s.7-2.8 1.5-3.2c2.1-.7 20.5 1.8 20.5 2.9 0 .4 1.1.8 2.5.8 1.6 0 2.5.6 2.5 1.5s.8 1.8 1.8 2.2c.9.3 2.3 1.1 3.1 1.7s4.4 1.6 8 2.1c8.3 1.3 32.9.4 33.9-1.1.5-.8 5.3-1.1 14.4-1.1 9.5.1 14.2-.3 15-1.1.7-.7 2.2-1.2 3.5-1.2 1.9 0 2.3-.5 2.3-3s.4-3 2.5-3c1.4 0 2.5-.4 2.5-.9 0-.6 2.4-1.1 5.3-1.3l5.2-.3-.1-4.5c-.2-4-2.2-16-2.9-16.8-.1-.1-2.4.9-5 2.3-4.9 2.5-14.4 3.5-17.3 1.7-.7-.5-1.5-3.2-1.9-6.2l-.6-5.3 5.4.5c7.9.8 9.9-.2 9.9-5.2 0-3.6.2-4 2.5-4 1.6 0 2.5-.6 2.5-1.6 0-.8 1.2-3 2.6-4.9l2.5-3.4-4.8-.6c-2.6-.3-8.2-1.1-12.3-1.8l-7.5-1.2v-10l7-.3c9.9-.5 30.5 1.8 30.5 3.3s2.2 2.5 5.6 2.5c1.7 0 2.4.5 2.4 2 0 1.1.8 2.3 1.8 2.7 7.4 2.7 20.2 9.4 20.2 10.7 0 2.8-1.9 2.7-9.2-.8-4-1.9-9.3-4-11.7-4.7-4.1-1.2-4.4-1.2-6.2 1.2-5.4 7.1-5.5 7.6-2.5 20.5 4.7 20.3 4 18.6 9.6 21.2 7.7 3.5 8.6 5.7 9.4 22.7.7 13.1.5 14.7-1.2 18.2-1.1 2.1-3.4 4.6-5.1 5.6s-3.1 2.5-3.1 3.3c0 1.6-1.4 1.8-4 .4-1.6-.8-1.9-.4-2.5 3.6l-.6 4.5-4.7-.1c-9.4-.2-21.2 1.2-21.2 2.5 0 1.7-16.5 3.9-30 3.9l-10.5.1V310c0-4 .3-4.5 2.5-4.9 1.4-.1 2.8-.8 3.2-1.4.5-.8 6.6-1.4 17.4-1.8 10-.4 16.9-1 17.2-1.7.4-.5 2.6-1.8 5-2.7 3.5-1.4 4.2-2.2 4.2-4.4 0-2.5.5-2.8 7.2-4.4 3.9-.9 7.4-2 7.7-2.4.3-.5 1.5-1.3 2.6-1.9 1.6-.9 2.1-2.3 2.3-7.5.4-8.1-.5-12.9-2.3-12.9-.8 0-1.5.5-1.5 1.1 0 .8-1.5 1-4.5.7-3.8-.5-4.5-.3-4.5 1.1s-2.3 2.2-12.2 4c-19.5 3.6-18.7 3.6-20.3 1.5-1.4-1.8-1.4-1.8-1.5.4 0 1.9-.5 2.2-3.8 2.2-2.2 0-7.3.3-11.5.6l-7.7.7 3.5 3c2.2 1.8 3.5 3.9 3.5 5.3 0 1.3.5 2.4 1 2.4.6 0 1 1.8 1 4 0 3.6-.3 4-3.2 4.8-2.3.6-3.4 1.5-3.6 3-.3 1.8-1 2.2-3.7 2.2-2.6 0-3.4-.5-3.9-2.3-.3-1.2-1.8-3.4-3.3-4.9-3.8-3.6-7.9-2.9-8.8 1.4-.7 2.9-.9 3-5 2.6-4.3-.5-4.3-.5-4.7 3-.5 3.9 1.1 8.4 2.7 7.9.6-.2 1.1-1.8 1.3-3.5.3-2.9.6-3.2 3.7-3.2 4.6 0 6.5.9 6.5 3 0 1.1.5 2.2 1 2.5.6.3 1 2.4 1 4.6 0 3.5-.2 3.9-2.6 3.9-1.7 0-2.8.6-3.1 2-.4 1.5-1.4 2-3.9 2-2.8 0-3.4-.4-3.5-2.2 0-1.3-.3-1.7-.6-1-.7 1.7-7.3 1.6-7.3-.2 0-1-2.4-1.5-9.7-2-15.8-1.1-16.3-1.3-16.3-5 0-4.3 1-5.4 5-5.8 3-.3 3.6-.7 4-3.3.5-2.8.8-3 5-2.9 2.5 0 5.3.4 6.2.8 2 .9 2.4.3 3.3-6.6.5-3.9 1-4.8 2.6-4.8 1.5 0 1.9-.7 1.9-3.1 0-2.2.8-3.9 2.8-5.5 1.5-1.3 2.5-2.4 2.2-2.4-24.1-1.6-52.7-5.7-56.5-8.2-.6-.3-2.7-.9-4.8-1.3s-3.7-1.3-3.7-2.1-1-1.4-2.5-1.4c-2.5 0-2.5.1-2.5 8.6 0 8.2 1.3 15.8 3.2 17.8.5.6.8.3.8-.7 0-1.3.9-1.7 3.5-1.7 2.4 0 3.5.5 3.5 1.5 0 .9.9 1.5 2.5 1.5 2.2 0 2.5.4 2.5 3.3s.5 3.5 3.5 4.7c1.9.8 3.5 2 3.5 2.7s.5 1.3 1 1.3c.6 0 1 1.6 1 3.5 0 3.3-.2 3.5-3.3 3.5-1.9 0-5.6-.7-8.2-1.5-2.7-.8-5-1.3-5.1-1.2-.2.1-1.9 8.1-3.8 17.8-2 9.7-3.8 18.3-4.1 19.2-.7 1.6-3.5 2.7-7.6 2.7-2.4 0-2.7-.4-3.4-5.2m116-29.8c-2.8-1.2-4.5-1.2-4.5 0 0 .6 1.5 1 3.3.9 2.7 0 2.9-.2 1.2-.9M374 199c0-1.6-3.3-2.6-3.8-1.2-.2.7-.9.9-1.4.6-.7-.4-.8-.2-.4.4.9 1.5 5.6 1.6 5.6.2"/><path d="M254 241c0-1.1-.6-2-1.4-2s-1.6-.7-2-1.5c-.3-.8-1.2-1.5-2.1-1.5-1.8 0-1.8-.6-.5-8.4.6-3.8 1.8-6.8 3.2-8.4 2.1-2.1 2.9-2.3 7.8-1.8 3 .3 8.7 1 12.5 1.4 4.1.4 8.5 1.6 10.5 2.8 3.3 1.9 3.5 2.4 3.8 7.6.3 5 0 5.8-1.9 6.9-3.2 1.7-12.2.5-18-2.4l-4.9-2.4V243h-3.5c-2.8 0-3.5-.4-3.5-2M86 219.4c-4.5-1.5-12-6-12.5-7.6-.4-1-1.2-1.8-1.8-1.8-1.5 0-4.7-5.5-4.7-8.1 0-1-.4-1.9-1-1.9-1.8 0-1.1-6.6 1-8.8 3.3-3.5 13-2.3 13 1.6 0 .9.9 2.4 2 3.2 2.9 2.1 2.8 8-.1 8-1.8 0-1.9.2-.5 1.5.8.8 1.9 1.5 2.5 1.5.5 0 1.7.7 2.5 1.6 1.5 1.4 1.6 1.3 1.6-1.5V204h6.3c4 0 7 .5 8.3 1.5 2.9 2.2 7.1 1.9 7.7-.6.5-1.7 1.2-2 4.4-1.7 3.7.3 3.8.4 4.1 4.6.3 4.1.2 4.2-2.7 4.2-2.4 0-3.1.4-3.1 2 0 1.5-.7 2-2.5 2-1.4 0-2.5.6-2.5 1.4 0 1.9-17.3 3.4-22 2"/><path d="M125.6 219.3c-1.7-.3-3-1.2-3.3-2.4-.3-1-.9-1.9-1.4-1.9s-.9-2.9-.9-6.4v-6.4l-6-1.3-6-1.3v-7.3c0-6.7.2-7.3 2.1-7.3 3.4 0 4.5-2.1 5.2-9.8l.7-7.2h-15l.7 6.1.6 6-3.9-.3-3.9-.3-.8-6.9c-1-7.7.1-11 3.7-12 3.1-.8 33.9-.7 35.2.2 3 2 4.3 9.9 2.6 16-1.1 3.6-6.3 9.2-8.7 9.2-2.7 0-4.5 5.3-3.8 11 .4 3 1 4 2.4 4 1.1 0 1.9.7 1.9 1.5 0 2 9.5 2 13.4 0 3.2-1.7 9.6-2 9.6-.5 0 .6 2 1 4.5 1 4.3 0 4.5.1 4.5 3 0 3.5-4.1 8-7.1 8-1.1 0-1.9.7-1.9 1.5 0 .9-1.2 2-2.7 2.6-3.1 1.2-17.3 2-21.7 1.2m170.9-2.2c-6.6-3.8-8.6-6.1-9.2-11-.8-5.8.7-7.1 7.7-7.1 4.5 0 6.1.4 7.6 2.1 3.4 3.7 6.8 5 10.3 3.8 1.7-.6 3.1-1.5 3.1-2s1.6-.9 3.5-.9c2.4 0 3.5.5 3.5 1.5 0 .9.9 1.5 2.5 1.5 1.8 0 2.5-.5 2.5-2 0-1.3-.9-2.2-2.5-2.6s-2.5-1.3-2.5-2.5c0-1.5-.7-1.9-3.2-1.9-4.6-.1-8.8-5.6-8.8-11.7 0-2.3.5-4.3 1-4.3.6 0 1-.6 1-1.4 0-3.5 2.9-4.6 12.4-4.6 7.9 0 9.7.3 12 2.1 2.2 1.7 2.6 2.8 2.6 7 0 5.9-1.3 8.9-3.9 8.9-1.4 0-2 1-2.4 4.3-.3 2.3-.2 4.4.4 4.5.5.2.9.9.9 1.6 0 .6 1.4 1.7 3.2 2.4 2.6.9 3.7.9 6.7-.5 2-1 4.4-2.8 5.5-4.1 2.4-3 8.9-2.8 9.5.3.2 1.1.9 2.4 1.7 2.8s1.4 2.2 1.4 4c-.1 3.9-3.7 7.8-10 10.6-5.5 2.5-18.3 2.9-23.5.7-3.1-1.3-3.9-1.3-7 0-2.1.8-6.8 1.4-12.2 1.4-7.9 0-9.3-.3-13.8-2.9m-76.4-3c-2.4-1.5.3-3.8 10-8.7 7.2-3.6 8.8-4.1 9.3-2.8 1 2.5.7 4.4-.7 4.4-.7 0-4.8 1.8-9.2 4l-8 4s-.6-.4-1.4-.9m31.3-6.8c-.3-1-1-2.6-1.5-3.5-.5-1-.9-2.5-.9-3.4 0-.8-.7-2.2-1.5-3-.8-.9-1.5-3.1-1.5-5 0-3.2.2-3.4 3.4-3.4 1.9 0 3.6.6 3.9 1.3.3.9 4.5 1.2 16.8 1.2h16.4l.3 4.3c.4 5.2-1.3 7.2-6.2 7.2-4.5 0-4.9-2.6-.6-3.5 4-.9 3.8-2.5-.2-2.6-1.8-.1-4.9-.3-6.9-.4-3.1-.2-3.6.1-3.2 1.6.3 1.1 1.2 1.9 1.9 1.9.8 0 1.4.6 1.4 1.4s-1.5 1.6-3.7 1.9c-8.7 1.3-10.3 1.9-10.3 3.8 0 2.6-6.8 2.8-7.6.2m7.6-5.8c0-.3-.9-1.5-2-2.7l-2-2.2v2.7c0 2 .5 2.7 2 2.7 1.1 0 2-.2 2-.5"/><path d="M154 197.5c0-.8-.4-1.5-1-1.5-.5 0-1-1.6-1-3.5 0-3.3.2-3.5 3.5-3.5 4.6 0 7.5 2.6 7.5 6.7 0 3.2-.1 3.3-4.5 3.3-3.3 0-4.5-.4-4.5-1.5m110-8.5c-3-.5-8.5-.8-12.2-.9l-6.7-.1-1.2-4c-.7-2.2-1.8-4-2.4-4-.7 0-1.5-1.4-1.9-3.1-.4-2-1.3-3.3-2.7-3.6-2.1-.6-2.1-1-1.6-9.7.6-11.6 2.4-18.6 4.6-18.6.9 0 3-2 4.5-4.5 2.7-4.2 3.2-4.5 7.2-4.5h4.4v4.5c0 2.5-.3 4.5-.7 4.5-.9 0-3.3 4.8-3.3 6.6 0 .7-.5 1.4-1.1 1.6s-1.3 3.2-1.6 6.6c-.4 4.3-1 6.2-1.9 6.2-.8 0-1.4.7-1.4 1.5s.7 1.5 1.5 1.5c.9 0 1.5.9 1.5 2.4 0 1.4.5 2.8 1 3.1.6.4 5.9 1 11.8 1.5 12.8 1.1 17.5 1.9 18.4 3.4.9 1.3 1 6.8.2 9-.7 1.8-6.3 1.9-16.4.6m-8-5.6c0-1.2-.3-1.4-1.2-.6-.7.5-2.2 1.2-3.3 1.5-1.3.3-.9.5 1.3.6 2.3.1 3.2-.3 3.2-1.5m17-.9c-.1-.5.7-1.2 1.7-1.6 1.5-.6 1.4-.8-.7-.8-1.4 0-3.2.4-4 .9-1.3.9-1.3 1.1 0 2 1.7 1.1 3.2.9 3-.5m98.3 6.4c-1.5-1.5-1.7-7.7-.4-9.8 1.1-1.7 7.7-2.8 22.1-3.7 12.4-.8 13-.4 13 7.9v4.4l-10.7.7c-6 .3-13.5.9-16.8 1.2-4.2.4-6.4.2-7.2-.7M395 184c0-.5-.7-1-1.5-1s-1.5.5-1.5 1c0 .6.7 1 1.5 1s1.5-.4 1.5-1m-14.5-2c.7-1.2-.2-1.2-3 0-1.9.8-1.9.9.2.9 1.2.1 2.5-.3 2.8-.9m6.5-1c1.2-.8 1.2-1-.3-1.5-.9-.4-2.3 0-3.2.9-1.5 1.5-1.5 1.6.2 1.6 1 0 2.5-.4 3.3-1m-172.3 3.7c-.9-2.5 1.3-3.4 10.8-4.6 4.9-.6 9.1-1.5 9.3-2.1.9-2.5 2.2-.6 2.2 3v4h-5.7c-3.2 0-8.1.3-10.9.6-4.1.5-5.2.3-5.7-.9m204.6.6-9.3-.4V182c0-1.5.3-3.5.6-4.4.7-1.9 4.4-2.1 4.4-.2 0 .9 2.8 1.6 10.2 2.5 10.4 1.2 13.1 2.2 12.1 4.7-.3.9-1.8 1.3-4.7 1.2-2.2-.1-8.3-.4-13.3-.5"/><path d="M278.8 176c-1.2-.8-1.8-2.4-1.8-5.1 0-3.3.4-4.1 2.6-4.9 2.5-1 2.6-1.1 1.9-8.4l-.7-7.3 3.2-.7c5.4-1 7.2-.7 9.4 1.7 1.2 1.3 2.9 2.6 3.8 2.9 3.6 1.4 3.5 15.5-.2 20-1.5 1.9-2.9 2.3-9.1 2.5-4.1.2-8.2-.1-9.1-.7m75.6-.5c-3.3-2.2-4.7-6.8-4.2-13.7.5-8.4 3.3-11.4 11.6-12.4 7.6-.8 12.2 1.1 14.5 5.9 3.2 6.7 1.5 16.6-3.4 20.1-3.1 2.1-15.6 2.2-18.5.1m-210.1-23.7c-1.3-.6-2.3-1.5-2.3-2 0-.4-.5-.8-1.1-.8-3.5 0-5.6-6.7-4.5-14.4.7-4.4.8-4.6 4.2-4.6h3.4v5.4c0 5.1.2 5.5 3.1 6.5 4 1.4 6.9-.3 6.9-4.2 0-2-.7-3.1-2.5-3.9-2.2-1-2.6-1.7-2.3-4.7.3-3.4.5-3.6 4.1-3.9 2-.2 3.7.1 3.7.6s.9 1.2 2 1.5 2 1.2 2 2 .7 1.7 1.5 2.1c1.1.4 1.5 2.2 1.5 7.1 0 3.7-.4 6.5-1 6.5-.5 0-1 .7-1 1.6 0 2.2-2.5 4.4-4.9 4.4-1.2 0-2.1.5-2.1 1 0 1.3-7.9 1.2-10.7-.2m-75.5-.5c-1-.2-1.8-1.1-1.8-1.9s-.6-1.4-1.4-1.4c-1.7 0-2.6-2.2-2.6-6.1 0-2.6.3-2.9 3.4-2.9 1.9 0 3.6.6 3.9 1.4.8 1.9 6.4 2.8 8.7 1.3 2.6-1.6 2.5-3.9-.3-6.5-3.2-3-6.5-2.9-7.3.3-.5 2.1-1.2 2.5-4 2.5-3 0-3.4-.3-3.4-2.7 0-4.8 1.1-7.3 3.1-7.3 1.1 0 1.9-.4 1.9-1s3.2-1 7.8-1c8.7.1 11.1 1.3 13 6.9 1.7 4.9 1.6 11.1-.2 11.1-.9 0-1.6 1.2-1.8 2.8-.3 2.5-.6 2.7-5.3 2.8-2.7.1-5.1.6-5.3 1.3-.4 1.1-5 1.3-8.4.4m328.2-2.7c0-.9-.4-1.6-1-1.6-.5 0-1-.6-1-1.4s-.4-1.6-1-1.8c-.5-.1-1.2-2.9-1.6-6l-.7-5.8h3.6c3.1 0 3.6.4 4.2 3 .4 1.7 1.2 3 2 3 1.7 0 3.7 5.1 3.3 8.6-.3 2.6-.8 2.9-4 3.2-2.9.2-3.8 0-3.8-1.2m-151.4-23.3c-.3-2.7-.8-7.9-1.2-11.8-.8-9.2-1.2-10.5-3.5-10.5-1.8 0-1.9-.8-1.9-13.1 0-7.3.5-14.9 1.2-17 1.1-3.7 1.3-3.9 4.3-3.3 3.5.6 5.1-.6 5.7-4.5.1-1.3 1.5-3.3 3-4.4 2.4-1.8 3.1-1.8 7.8-.7 10 2.4 22 12.2 40 32.8l5.5 6.3 5.4-1c10.2-2 29.3-.7 31.4 2.1.7 1 1 1 1.4 0 .6-1.6 7.9-10.2 12.8-15.2 1.9-1.9 3.5-4.4 3.5-5.6C361 77 371 67 373.4 67c.8 0 5.1-1.9 9.6-4.1 7.7-3.9 8.4-4.1 12.1-3 2.2.7 5.5 2.5 7.3 4.2 5.4 4.7 6.9 9.6 7.4 24.7l.4 13.2H404l-.1-5.7c0-3.2-.3-5.2-.6-4.5-.2.6-2 1.2-3.9 1.2-3.4 0-3.4 0-3.4-4.7-.1-5.7-1.4-12.1-2.9-13.6-.7-.7-2.2-.6-5 .3-4.8 1.6-20.1 16.6-29.9 29.5l-6.8 9-8-.5c-11.9-.7-27.9-.6-37.6.3l-8.8.8v-3c0-2.6-.4-3.1-2.5-3.1-1.6 0-2.5-.6-2.5-1.5 0-.8-.4-1.5-1-1.5-.5 0-1-1.1-1-2.5 0-1.8-.5-2.5-2-2.5-1.3 0-2-.7-2-2 0-1-1-2.4-2.1-3.1-1.2-.6-5.3-4.2-9-7.9-6.5-6.6-13.5-12-17.1-13.3-1.2-.4-2.1.4-3.4 3.1-1.6 3.2-1.8 5.9-1.5 19.2.1 8.5.7 16.2 1.2 17.1.5 1 .9 5.2.9 9.3v7.6h-8.8zM309 109c-2-1.3-4-1.3-4 0 0 .6 1.2 1 2.8 1 2.1 0 2.4-.2 1.2-1m-9.5-10.1c.8-2.3.1-3.4-1.4-2.4-1.3.8-1.5 4.5-.2 4.5.5 0 1.3-.9 1.6-2.1M140.2 81.4c-1.2-.8-2.2-2.2-2.2-2.9 0-1.5-.4-1.6-10-3.5-11.1-2.3-16.6-2.7-22.5-1.9-3.3.5-7.9 1.2-10.2 1.5-2.4.4-4.3 1.1-4.3 1.5 0 .5-.9.9-2.1.9-1.1 0-2.7.7-3.5 1.5-.9.8-3.1 1.5-5 1.5-3 0-3.5-.4-4-3-.5-2.3-1.2-3-3-3-2.1 0-2.4-.5-2.4-3.5 0-1.9.5-3.5 1-3.5.6 0 1-2 1-4.5 0-4.3.1-4.5 2.9-4.5 2.6 0 3-.4 3.3-3.2.2-2.5.8-3.4 2.4-3.6 1.8-.3 2.5.6 3.9 4.3 1 2.5 2.1 4.8 2.6 5 .4.3 3.6-.2 7.1-1 8.3-1.9 22.5-1.9 30.1.1 4.2 1.1 6.3 1.2 6.5.5.2-.6.8-1.1 1.4-1.1.7 0 .8 1.6.5 4.5-.6 4-.5 4.5 1.3 4.5 1.1 0 2 .5 2 1 0 .6.7 1 1.5 1 .9 0 1.5-.9 1.5-2.5 0-2.1.5-2.5 3-2.5 3.2 0 4.1.5 9.6 5.7 2.8 2.5 3.4 3.8 3.4 7.1 0 3.9 0 3.9-4.6 4.6-6.9.9-8.7.8-11.2-1m-4.7-24.8c-1.9-1.3-1.8-1.6.9-8.7 1.6-4.1 4-9.5 5.3-12.1 2.3-4.7 4.3-6.2 4.3-3.3 0 1.2 1.3 1.5 5.5 1.5h5.5v3.5c0 1.9-.4 3.5-1 3.5-.5 0-1 .5-1 1 0 .6-1.2 4.1-2.7 7.9-2.3 6-3.1 7-5.6 7.5-4.9 1-9.2.7-11.2-.8"/></g><g fill="#001a41"><path d="M285.2 401.2c-1.1-1.7-1.8-5.2-2.1-10.4-.2-5.8-.7-7.8-1.7-7.8-1.2 0-1.4-5.2-1.4-31v-31l2.9-3.2c2.9-3.2 3.1-3.3 12.8-3.6 5.4-.2 10.4-.9 11-1.4.7-.6 1.9-.8 2.7-.5 2 .8.9-2.7-1.8-5.6-2.3-2.5-1.6-2.5-17.8-.1-4.7.6-7.7 3.4-3.8 3.4 2.4 0 2.6 1.8.4 2.7-2 .8-21.1-2.5-23.6-4-2.9-1.9-2.3-4 1-3.3 1.5.3 2.1.3 1.5 0-.7-.3-1.3-1.1-1.3-1.7 0-1.2-4.5-3.7-6.6-3.7-.7 0-1.9-.6-2.6-1.4-.8-.7-3.4-2.4-5.9-3.6-2.4-1.3-5.7-3.4-7.3-4.7-2-1.7-3.9-2.3-6-2.1l-3.1.3-.1-12c-.2-10.5-.1-11.2.7-6 1.1 7.7 1.6 8.8 3.4 8.1 1.2-.4 1.5.3 1.5 3.3 0 2.6.5 4.1 1.6 4.5 2.4.9 2.6.8 1.9-1.4-.6-1.9-.3-2 2.2-1.4 1.5.4 3.5 1 4.3 1.4 8.5 4.2 32.5 10 51.3 12.5l4.7.6v-3.3c0-7.2 4.3-14.9 9.5-17l3-1.2-4.2-.4c-3.4-.2-4.3-.7-4.3-2.2 0-1.7.7-1.8 8.8-1.6 11.9.5 16.2 1.4 16.2 3.6 0 1.5-1 1.8-5.9 1.9-5.6 0-11.1 1.4-11.1 2.7 0 .3.7.3 1.6 0 1.2-.5 1.5-.2.9 1.1-.4 1-1.1 3.1-1.6 4.7-.7 2.3-.6 2.7.3 1.8 1.4-1.4 4.8-1.6 4.8-.2 0 .5.7.7 1.5.4 2.6-1 1.7 3.3-1.1 5.3-2.6 1.9-2.6 2-1 5.1 2.4 4.6 6.3 5.3 9.3 1.8 1.3-1.5 2.3-4 2.3-5.7 0-3.9 1.7-3.7 3.5.4 1.1 2.5 1.4 2.7 1.5 1.1 0-1.2.7-2.7 1.6-3.5.8-.7 1.3-2.1 1.1-3.1-.3-1 .2-2.2 1.1-2.7 1.5-.9 1.5-1.1-.2-3-1.1-1.2-2.9-2.1-4-2.2-1.3 0-1.6-.3-.7-.6 1-.4.8-.9-1-1.9-2.3-1.3-2.2-1.3 1.8-1.4 3.8 0 4.2.2 4.5 2.8.2 1.9.9 2.8 2.4 3 2.7.4 4.4 4.1 4.4 9.8v4.5l3.3-.6c1.7-.3 7.5-1.2 12.8-2 11.8-1.8 23.7-4.6 35.1-8.2 8.6-2.8 8.8-2.8 8.8-6 0-4 2.5-4.5 3.4-.7.5 2-.2 3.9-3 8.1-2 3-3.4 5.6-3.2 5.7.1.1 1.7.8 3.4 1.5 2.7 1.1 3.2 2 4.7 8.2l1.7 7-4 4.1c-3.7 3.6-4.1 4.4-3.9 8.4.2 2.4.7 4.4 1.2 4.4s.7.9.4 2c-.3 1 .1 2.7.9 3.7 2 2.7 1.8 8.3-.3 8.3-1.5 0-2.6-3.1-6-16.3-5.5-20.8-5.9-22.7-4.4-22.7 1.9 0 4.1-2.6 4.1-4.9 0-3.1-4-2.7-13 1-4.1 1.7-7.7 3.3-7.9 3.5s.2 1.1.9 1.9c.9 1.1 2.3 1.4 4.7 1 2.7-.4 3.3-.2 3.3 1.3 0 1.3-1.3 2.1-4.7 3.1-6.8 1.8-18.3 2.6-18.3 1.4 0-.6.7-1.3 1.5-1.7.8-.3 1.5-1.2 1.5-2.1 0-2 1.9-1.9 3.7.3 1.3 1.5 1.3 1.5.3-.5-1-2.2-1.5-2.3-14.2-2-9.4.1-13.3.6-13.6 1.5-.2.6-1.4 1.2-2.7 1.2-2.7 0-3.8 1.2-2.9 3.3.3.8 1.3 1.3 2.4 1 1-.3 2.1 0 2.4.6.4.7 4.3 1.1 9.6 1.1 11.4 0 14 .9 14 5.1 0 2.6-.2 3-1.5 1.9-.8-.6-2-.8-2.7-.4s-4.6.8-8.7.8c-5 .1-7.6.5-7.8 1.4-.3.7.4 1.2 1.6 1.2q2.1 0 1.5 1.5c-.5 1.3-4.6 1.5-28.1 1.5h-27.4l-2.4 2.5c-1.4 1.3-2.5 3.6-2.5 5 0 1.6-.6 2.5-1.5 2.5-.8 0-1.5-.7-1.5-1.5s-.7-1.5-1.5-1.5c-1.3 0-1.5 4.1-1.5 31s.2 31 1.5 31c.8 0 1.5-.7 1.5-1.5 0-2.2 2.9-1.8 5 .8l1.8 2.2 33.1-.3c18.7-.2 33.1.1 33.1.6 0 1.9-4.9 3.4-9.9 3-2.9-.3-5.4-.1-5.7.4-.3.4 1.2.8 3.3.8s4.5.5 5.3 1c1 .7-10.1 1-33.8.9l-35.3-.1zm36.1-.9c-3.4-.2-9.3-.2-13 0s-.9.3 6.2.3c7.2 0 10.2-.1 6.8-.3M290 331c0-.5-.7-1-1.5-1s-1.5.5-1.5 1c0 .6.7 1 1.5 1s1.5-.4 1.5-1m34.7-19.4c-.2-.6-1.7-.9-3.3-.7-3.7.4-4.9 1.2-3.5 2 1.7 1.1 7.2 0 6.8-1.3m-1.7-4.5c0-.5-.7-1.2-1.6-1.5-2.1-.8-2.4-.8-2.4.5 0 .5.5.7 1 .4.6-.3 1-.1 1 .4 0 .6.5 1.1 1 1.1.6 0 1-.4 1-.9m-26.3-6.2c-1.4-.8-2.2-.8-3 0s-.3 1.1 1.9 1.1c2.5-.1 2.7-.2 1.1-1.1m12.3-5.1c0-3.2-.3-3.9-1-2.8-1.3 2-1.3 7 0 7 .6 0 1-1.9 1-4.2m9.9-5c.1-.5-.9-.8-2.1-.7-2.2 0-2.2.1-.3.9s1.9.9-.2.9c-2.7.1-3.1 1.8-.5 2.3 1.5.3 2.9-1.2 3.1-3.4m26.1.1c0-.5-.7-.9-1.5-.9s-1.5.7-1.5 1.5c0 .9.6 1.2 1.5.9.8-.4 1.5-1 1.5-1.5M77.7 394.2c-.9-1-1.7-2-1.7-2.3 0-.2 15.7-.3 34.8-.1 40.5.4 38.2 1 38.2-9.1 0-3.4.3-16.5.6-29.2.5-16.2.3-24.7-.5-28.7l-1.2-5.8h-33.4c-21.2 0-33.6.4-34 1-1.2 1.9-4.5 1.1-4.5-1.1 0-1.4-.5-1.9-1.7-1.7-1.7.3-1.8 2.8-2.1 33.3-.2 26.9-.5 33.2-1.6 34-.8.6-1.6 2.2-1.9 3.5-.3 1.8-.5 1.5-.6-1.2s-.6-3.8-1.6-3.8c-1.3 0-1.5-4.5-1.5-34.3v-34.2l2.5-3.8c1.4-2 3.7-4 5-4.3 3.5-.9 2.1-2.4-2.1-2.4-3.7 0-25.8-3.6-28.4-4.6-.8-.4-2.9-1-4.6-1.4l-3.2-.7-3.1 12.1c-1.7 6.6-3.6 14.7-4.3 17.9-.7 3.1-1.6 5.7-2 5.7s-.8 1.8-.8 4c0 3.3-.3 4-2 4-1.5 0-2-.7-2-2.5 0-1.4-.4-2.5-1-2.5-.5 0-1-.4-1-1 0-.5.9-1 2-1 1.6 0 2-.7 2-3.4 0-1.9-.6-3.7-1.2-3.9-.8-.3-.6-.6.5-.6 1.8-.1 2.5-3.1.7-3.1-.5 0-1-.4-1-1 0-.5.7-1 1.5-1s1.5-.4 1.5-1c0-.5-.4-1-1-1-.5 0-1-.7-1-1.6 0-1.2.6-1.5 2.3-1.1 1.9.5 2 .4.6-.6-.9-.7-1.9-2.2-2.3-3.5-.4-1.2-1.4-2.2-2.1-2.2-3.2 0-3.8-3.9-1.9-12.7 1.3-6.5 1.5-8.6.5-9.2-1.7-1.1-.2-4 2.4-4.7 2.6-.6 6.5 1.1 6.5 2.9 0 .6 1.7 2.6 3.7 4.4 2.7 2.4 3.9 3 4.5 2.1.6-1 .8-1 .8.1 0 .7.6 1.1 1.5.7.8-.3 1.5 0 1.5.5 0 .6.9.9 2 .6s2-.1 2 .4.7.9 1.5.9 1.5-.5 1.5-1.2c0-.6 1-.1 2.1 1.1 1.6 1.7 2.4 2 2.9 1.1.6-.9.9-.9 1.4.1.5 1.1.7 1.1 1.2.2.8-1.9 3.4-1.6 3.4.3 0 1.2.7 1.5 3 1.2 1.7-.3 3 0 3 .5s1.6.7 3.5.5 3.5 0 3.5.5 2.7.7 6 .5 6-.1 6 .4c0 .4.7.8 1.5.8s1.5.7 1.5 1.5.7 1.5 1.5 1.5 1.5-.7 1.5-1.5c0-1 1-1.5 3.1-1.5 3.3 0 6.7-2.4 4.9-3.5-.6-.4-1.1-3-1-5.8.1-13.5-1.6-19.4-2.2-7.4l-.3 6.2-6.8.3c-3.7.2-7.3 0-8-.5-1.3-1-2.2-1-4.7-.1-.8.3-4.1 1-7.3 1.6-6.2 1.2-10.2.1-9.3-2.5.3-.8-1-1.7-3.4-2.4-2.2-.7-4-1.5-4-1.8s-1.8-.7-4-.8c-2.2 0-4.6-.5-5.3-1.1-.7-.5-4.1-1.3-7.7-1.7-5.8-.7-15.8-4.3-12.1-4.5 1.1 0 .9-.4-.5-1.5-1.8-1.3-1.7-1.4 1.7-1.5 2 0 5.6.7 8 1.6 12 4.2 48 11.4 57.4 11.4 2.2 0 2.5-.4 2.5-4 0-2.2.5-4 1-4 .6 0 1-1.4 1-3.2 0-4.4 7-11.1 13.3-12.6 6.7-1.7 13.6-1.4 18.5.8 3.4 1.5 4.2 2.4 4.2 4.6 0 2.1-.3 2.4-1.3 1.5-.8-.6-1.6-.8-1.9-.5-.4.3-1.9-.1-3.5-1-2.6-1.3-3-1.3-3 0 0 .8.4 1.4.9 1.4.4 0 .8.4.8 1s-1 .6-2.7-.1c-2.2-.8-3.5-.6-7 1.2-5 2.6-8.4 5.8-6.2 6 .8.1.3.4-1.1.8-1.8.5-2.6 1.5-2.8 3.4-.2 1.5-.8 2.7-1.3 2.7-1.7 0-.9 2.7 1.7 5.1 2.1 2 2.4 2 1.8.5-.6-1.6-.4-1.8.9-1.3 1.4.5 1.6.3.8-1.1-1.3-2.5-.3-6.7 2.3-9.2l2.3-2.1-.7 4.8c-.8 4.8-.1 6.8 2.8 8.6 2.2 1.4 1.4 4.7-1.1 4.7-2.8 0-5.1 4.9-3.1 6.7.6.7 1.5.9 1.8.5.4-.3 1.1-.1 1.5.6.5.9 1.5 1 3.2.4 1.3-.5 3.2-.8 4.2-.7.9.2 1.7-.3 1.7-1.1s.7-1.4 1.5-1.4c1 0 1.5 1 1.5 2.8.1 2.3.2 2.4 1.1 1 .8-1.4 2.3-1.8 6.4-1.8 3 0 5.5.5 5.5 1 0 .6 1.4 1 3 1q3 0 3-1.5c0-.8.7-1.5 1.5-1.5s1.5-.7 1.5-1.6c0-1.4.3-1.5 2.3-.2 2.6 1.7 5.7 1.3 5.7-.8 0-.8-.3-1.4-.7-1.4-.5 0-.9-1.6-1-3.4-.1-3.1.2-3.5 2.5-3.9 1.8-.3 1.3-.4-1.5-.6-4.2-.1-6.3-2.1-2.3-2.1 1.1 0 2.8-.4 3.8-.9 1.8-1 23.6-5.1 27.1-5.1 1.2 0 2.1.6 2.1 1.5 0 .8-.5 1.5-1.1 1.5-2.2 0-11.7 4.9-12.2 6.4-.4.9.1 2 1.1 2.6 1.3.9.7 1-2.8.7-2.5-.3-3.6-.2-2.5.1 1.2.4-.9 1-5.5 1.7l-7.5 1.1 3 1.5c3.3 1.8 5.5 1.5 5.5-.7 0-2 2.7-1.7 3.9.4 1 1.5 1.1 1.5 1.7-.5.7-2.5 2.4-2.9 4.2-1.1.9.9 1.2.9 1.2-.1 0-.9.9-1.2 2.5-.9 1.4.3 2.5.1 2.5-.5 0-.5 1.1-.7 2.5-.5 1.4.3 2.5.1 2.5-.5 0-.5.9-.7 2-.4s2 .1 2-.4c0-1.4 2.8-1.1 3.3.4.3.7.6.5.6-.5.2-3.8 5.1-1.5 5.1 2.3 0 1.6.5 2.9 1 2.9.6 0 1-.4 1-1 0-3.1 6.3 2 8 6.4 1.2 3.2.3 10.6-1.4 12.1-1.7 1.4-2.7 4.3-1.7 4.7.5.2 1.2 2.2 1.6 4.6.6 3.7.5 4.2-1.3 4.2-1.5 0-2.2-1.3-3.6-6.7-1-3.8-2.1-7.9-2.6-9.3s-1.6-5.2-2.6-8.5c-.9-3.3-2-6.3-2.3-6.7-.3-.3-4.7.2-9.7 1.3-5 1-13.8 2.5-19.5 3.3s-9.6 1.4-8.6 1.5c.9.1 1.7.8 1.7 1.7 0 2.1 2.9 4.3 5.6 4.4 1.6 0 2.3.8 2.8 3.1 1.1 5.5.7 8.9-.9 8.9-.8 0-1.5-.7-1.5-1.5s-.7-1.5-1.5-1.5c-1.2 0-1.5 1.4-1.5 6.5s.3 6.5 1.5 6.5c.8 0 1.5-.7 1.5-1.5s.7-1.5 1.5-1.5c1.3 0 1.5 3.6 1.5 26s-.2 26-1.5 26c-1.1 0-1.5 1.2-1.6 4.8 0 2.6-.4 5.5-.8 6.5-.6 1.7-.8 1.7-3-.2-3-2.6-2.9-2.6-5.3.2-2 2.2-2.1 2.2-36.7 2.5-32.7.2-34.9.1-36.4-1.6m75-26.4c-.2-1.3-.4-.5-.4 1.7-.1 2.2.1 3.2.4 2.3.2-1 .2-2.8 0-4m.5-28.5c.2-10.5 0-18.6-.4-18-.3.6-.6 10.3-.6 21.6.1 24.8.6 22.9 1-3.6M160 355c0-.5-.7-1-1.5-1s-1.5.5-1.5 1c0 .6.7 1 1.5 1s1.5-.4 1.5-1m0-13.5c0-1.6-.6-2.5-1.5-2.5s-1.5.9-1.5 2.5.6 2.5 1.5 2.5 1.5-.9 1.5-2.5m-9-27.7c-2.9-2.4-10-2.4-12.7 0-2 1.6-1.8 1.7 4.4 1.8 4.6 0 6.8.5 8.1 1.8 1.6 1.6 1.7 1.6 2.1-.1.2-.9-.7-2.5-1.9-3.5m-26.7.5c-.3-.7-1.4-1.5-2.5-1.8-2.8-.9-12.8.4-14.3 1.9-1 1 .5 1.2 8 1.2 6.8-.1 9.1-.4 8.8-1.3m33.7 0c0-.4-1-1.7-2.2-3-1.8-1.9-3.1-2.3-8.2-2.2l-6.1.1 4.5.9c2.5.5 5.6 1.8 7 2.8 2.5 2 5 2.7 5 1.4m-43.2-6c-1-.2-2.8-.2-4 0-1.3.2-.5.4 1.7.4 2.2.1 3.2-.1 2.3-.4"/><path d="M334 393.6c0-.7.9-1.6 2-1.9 1.4-.3 2-1.4 2-3.1 0-2.7 2.4-3.7 3.3-1.3.4 1 .7 1 1.8 0 2-2-.2-3.3-4.4-2.6-2.7.4-3.7 1-3.7 2.4 0 2.8-3.8 2.5-4.3-.3-.4-2.2-.4-2.2-.6.2-.1 2.8-3.8 5-8.3 5H319v-7.5c0-6 .3-7.5 1.5-7.5.8 0 1.5.7 1.5 1.5s.7 1.5 1.5 1.5c1.2 0 1.5-1.3 1.5-5.5 0-3-.4-5.5-1-5.5-1.9 0-1-1.6 1.9-3.3 3.2-1.9 4.2-1.4 3.7 1.7-.2 1.2-.1 1.6.1.9s1-1 1.6-.7c1 .3 4.8.9 9.5 1.3 2 .2 1.3 3.1-.8 3.1-1.5 0-2 .7-2 2.5 0 2 .5 2.5 2.5 2.5 2.1 0 2.5.5 2.5 2.8 0 1.5.9 3.5 2 4.5 1.9 1.6 2 1.6 2-.4 0-1.1.7-2.7 1.5-3.5 1.5-1.5 1.6-1.5 1.9.9.1.6 1 1.1 2.1.9 3.5-.5 4.6-1.2 4-2.2-.3-.5.1-1 .9-1 1.8 0 1.9 1.4 1 8.4-.6 4-1 4.6-3 4.6-1.5 0-2.4.6-2.4 1.5 0 1.1-1.2 1.5-4.9 1.5-4.3 0-5-.3-5.4-2.2l-.4-2.3-.8 2.3c-.6 1.7-1.5 2.2-4.1 2.2-2.2 0-3.4-.5-3.4-1.4m15-3.6c0-1.1-.4-2-.9-2-1.4 0-2.3 1.8-1.6 3 1 1.7 2.5 1.1 2.5-1m7-2.5c0-.8-.7-1.5-1.5-1.5-2.6 0-1.8 2 1.3 2.9.1.1.2-.6.2-1.4m-16.2-8.2c.2-.8-.5-1.3-1.7-1.3s-2.4-.7-2.7-1.5c-1-2.4-3.4-1.8-3.4.9 0 1.8.7 2.6 2.3 2.9 3.3.7 5 .3 5.5-1m-263.9 9.5c-.4-4-.5-31.6-.1-33 .2-1 1.1-1.8 1.8-1.8 1.1 0 1.4 3.3 1.4 18 0 15.3-.2 18-1.5 18-.8 0-1.6-.6-1.6-1.2m5.3-12 .3-12.3 5.5-.1c3-.1 8.5.1 12.3.4 6.6.5 6.7.5 6.7 3.3 0 1.6-.4 2.9-1 2.9-.5 0-1-.8-1-1.8 0-1.6-.8-1.8-7.1-1.6-8.1.3-10.7 1.4-3.3 1.4 2.8 0 5.5.5 6.2 1.2s1.2 3.9 1.2 7.5v6.3h-7c-10.3 0-8.7 2 1.8 2.2l8.7.2-7.2.3c-4 .2-7.3.8-7.3 1.3 0 .6-2 1-4.5 1h-4.6zm3.9 5.6c-.9-2.8-.9-2.9-1-.3-.1 1.4.2 2.9.6 3.2 1.1 1.2 1.3.2.4-2.9m12.7-5.1c-.2-2.3-.8-2.9-3.5-3.1-3.1-.3-3.3-.1-3.3 2.7 0 2.9.3 3.1 3.6 3.1s3.5-.2 3.2-2.7M115 384c0-4.1.3-5 1.8-5.1.9-.1-.2-.5-2.5-1.1-4.1-.9-5.6-2.9-3.3-4.3.5-.3.7-1.2.3-2-.3-.8-.1-1.5.5-1.5.5 0 1.3-1 1.7-2.2l.8-2.3.4 2.3c.3 1.5 1 2.2 1.9 1.8.8-.3 1.4.1 1.4.8 0 1.6 2.7 2.9 3.5 1.7.3-.5 1.5-.7 2.8-.5l2.2.5-2.2-1.2c-3.1-1.6-2.9-3.9.2-3.9 1.4 0 2.5-.4 2.5-1 0-.5 1.6-1 3.5-1 2.9 0 3.5.4 3.5 2.2 0 2.1 0 2.1-1.5.2-1.6-2.1-1.8-1.7-1.5 4.3.2 4.6-1.6 6.3-6.4 6.3-1.4 0-2.6.5-2.6 1.1 0 .7-.8 1.8-1.7 2.5-1.5 1.1-1 1.2 3.7.7 3-.3 5.7-.9 6-1.3s1.5-1 2.8-1.4c1.7-.6 2.2-1.5 2.2-4.2 0-3.8 2.4-4.8 3.3-1.4.4 1.6 1.4 2 4.6 2h4.1v4.5c0 4.5 0 4.5-3.5 4.5-2.8 0-3.5.4-3.5 2 0 1.7-.7 2-4.5 2-4.1 0-4.5-.2-4.5-2.5 0-1.4-.4-2.5-.8-2.5-.5 0-1.4 1.1-2 2.5-1 2.3-1.7 2.5-7.2 2.5h-6zm309-6.5c-.7-.8-2.5-1.5-4-1.5-2.5 0-2.8-.5-4.9-8.1-2.8-10.2-3.8-17.9-2.3-17.9 1.3 0 3.7 4 2.5 4-.4 0-.2.4.6.9s1.4 2.3 1.5 3.9c.1 2.7.4 3 2.4 2.5 1.2-.3 3 .1 3.9.8 1.3 1.1 1.7 1.1 2 .2 1.1-3.2 3-.8 4.5 5.5 1.5 5.9 1.5 7 .2 9-1.7 2.5-4.6 2.9-6.4.7m-133.6-3c-.3-1.9-.4-5.9 0-8.8.3-2.8.6-5.3.6-5.4 0-.2.7-.3 1.5-.3 1.2 0 1.5 1.7 1.5 9 0 7.2-.3 9-1.5 9-.8 0-1.7-1.4-2.1-3.5m14.4 2.8c1.8-.2 4.5-.2 6 0s0 .4-3.3.4-4.5-.2-2.7-.4m-6-3c-2.5-.4-2.8-.9-2.8-4.2 0-3 .4-4 2-4.4 1.2-.3 2-1.4 2-2.5q0-3.3 4.2-3.9c2-.3 2 2.5 0 5-1 1.2-.9 1.5.7 2 1.1.3 2.2 0 2.4-.7.2-.6.7.4 1.2 2.3.4 2 1.4 3.5 2.6 3.8 1 .3 1.9.9 1.9 1.3 0 1.7-7.1 2.4-14.2 1.3"/><path d="M349.3 373.8c-2.4-1.2-2.7-2.9-1.3-6.3.8-1.8 1-1.7 2.1 1.3.8 1.7 2 3.2 2.9 3.1q1.5 0 .3-.6c-1.8-.7-1.6-2.3.2-2.3.8 0 1.5-.4 1.5-.9s.3-1.7.6-2.6c.5-1.3.2-1.5-2-.9-2 .5-2.6.2-2.6-1 0-1.7-2.6-2.3-3.2-.7-.1.4-1.3 1.2-2.5 1.5-2 .7-2.3.4-2.3-2.3s-.4-3.1-2.7-3.2c-1.7-.1-2.1-.3-1-.6 2.8-.7 1.9-2.3-1.4-2.3-3.1 0-3.1 0-2.4-4.2.4-2.4 1.1-4.7 1.6-5.3 2.1-2.2.8-3.1-3.3-2.5-2.6.3-5.3.1-6.8-.7-1.4-.7-3.7-1.5-5.2-1.8-2.6-.5-2.8-.9-2.8-5.6v-5.1l8.8.7c4.8.4 9 .9 9.3 1.1.4.2 1 4.2 1.4 8.9s1 8.3 1.5 8c1.1-.7 2.5-7.4 2.2-10.6-.3-2.6-.2-2.6 5.8-2.5 4.2.1 6-.3 6-1.1 0-.9-2.3-1.4-7.7-1.5-7.7-.2-7.7-.2-1.5-.5 3.4-.2 6.2-.8 6.2-1.3 0-.6 2-1 4.5-1h4.5v5.5c0 4.2-.3 5.5-1.5 5.5-.8 0-1.5-.7-1.5-1.5s-.7-1.5-1.5-1.5c-1.1 0-1.5 1.2-1.5 5 0 4.8-.1 5-2.7 5.1-1.7.1-2.1.3-1 .6.9.2 1.7.9 1.7 1.4s1.1.9 2.4.9c2.9 0 4.1 3.9 3.1 9.9-.4 2.4-.2 4.2.4 4.6.6.3 1.1 2.4 1.1 4.6 0 3.9 0 3.9-3.7 3.8-2.1 0-4.8-.5-6-1.1m7.7-17.5c0-1.1-.6-1.4-2.2-.9-1.3.3-3.6.6-5.3.7-2.7.1-2.5.2 1.5 1.3 5 1.4 6 1.2 6-1.1m-7-12.3c0-.5.3-1.5.6-2.4.4-1.2 0-1.6-1.5-1.6-1.2 0-2.1.6-2.1 1.3 0 .8-.4.7-1-.3-.8-1.2-1-1-1 1.1 0 1.4.3 2.8.6 3.1.7.8 4.4-.2 4.4-1.2m-16-5c0-.5-.9-1-2-1s-2 .5-2 1c0 .6.9 1 2 1s2-.4 2-1m-124.3 28.1c-1.9-7.7-2.2-14.1-.7-14.1.6 0 1 .7 1 1.5s.5 1.5 1.1 1.5.9.9.6 2-.1 2 .4 2 .9 1.3.9 2.9c0 1.7.5 3.3 1 3.6 1.6 1 1.2 6.2-.6 6.9-.9.3-1.7.6-1.8.6-.2 0-1-3.1-1.9-6.9m-197.7 5c0-.6-.7-1.1-1.5-1.1-.9 0-1.8-.7-2.1-1.5-.4-.8-1.7-1.5-3-1.5-2.1 0-2.4-.5-2.4-3.5 0-3.2.2-3.5 1.9-2.5 1.1.5 2.3 1.5 2.6 2 .4.6 1.1.8 1.6.5.5-.4.9-.2.9.3s.9 1.2 2 1.5c2.3.6 2.7-1.1.5-1.9-.8-.4-1.5-1-1.5-1.5s.7-.9 1.5-.9 1.5-.4 1.5-1c0-.5-.4-1-1-1-.5 0-1-.4-1-1 0-.5.7-1 1.5-1 1.8 0 2-2 .3-2.1-.7 0-.2-.5 1.2-1.1l2.5-1-2.2-1.5c-2.8-1.9-3-3.3-.3-2.6 1.2.3 2.2-.1 2.6-1.1.3-.9 1-1.6 1.5-1.6 3 0-2.3 25.2-5.4 25.8-.9.2-1.7-.1-1.7-.7m122.8-7.9c-.6-2.2.8-6.2 2.1-6.2 1.1 0 2.3 3.2 1.9 5.1-.2.8.7 1.5 2 1.7 1.2.2 2.2-.1 2.2-.7s-.8-1.1-1.7-1.2c-1.1 0-1.3-.3-.5-.6.6-.2 1.2-1.1 1.2-1.9s.5-1.4 1.1-1.4c.5 0 .7-.5.4-1-.4-.6-1.4-.9-2.3-.8-.9.2-1.8-.5-2-1.4-.2-1.3.3-1.8 1.8-1.8 3.4 0 5 2.4 5 7.4v4.6h-5.4c-4.3 0-5.5-.4-5.8-1.8m195.5-1.2c-.1-1.6.4-2 3.3-2 2.7 0 3.4.4 3.4 2s-.7 2-3.3 2-3.3-.4-3.4-2m-230.8-2.9c-.4-1.3-1.5-2.1-3-2.1-1.2 0-2.3-.6-2.2-1.2.2-6-1.5-9.3-2.6-5-.3 1-.5.6-.6-1.1-.1-2.4-.5-2.7-3.1-2.5-2.1.2-2.9.7-2.5 1.6.3.7.5 1.6.5 1.8s.7.4 1.5.4 1.5.7 1.5 1.5c0 1-1 1.5-3.4 1.5-3.3 0-3.3-.1-4-5.2-.3-2.9-.6-10.4-.6-16.5V322h4c2.9 0 4 .4 4 1.5 0 .8-.6 1.5-1.4 1.5s-1.8.5-2.1 1.1c-.9 1.4-1.3 15.6-.5 16.9.3.5 3.7 1 7.6 1.1 10.6.1 11.4 0 11.4-1.6 0-.8.7-1.5 1.5-1.5 1 0 1.5 1 1.5 3.4 0 3.2-.3 3.5-3.2 3.8-3.1.3-5.3 2.8-2.4 2.8.8 0 2 .8 2.5 1.8.9 1.5 1.2 1.5 2 .2.9-1.3 1.2-1.2 2.6.5 1.7 2.2 3 6.3 2.3 7.1-.3.2-2.8.7-5.6 1.1-4.5.5-5.1.3-5.7-1.6m9.5-1.9c0-1.1-3.9-1.2-4.5-.1-.4.5.5.9 1.9.9s2.6-.4 2.6-.8m-6.7-2.6c.4-1 0-1.2-1.4-.9-2.2.6-2.6 2.3-.5 2.3.8 0 1.6-.6 1.9-1.4m27.7.1c0-4.6 1.2-8.7 2.6-8.7.8 0 1.4.3 1.4.8 0 .4.3 1.6.6 2.7.3 1.4-.4 3-2 4.8l-2.6 2.8zm108.1 1.1c.7-5.3-1.8-6.7-5.8-3.2-2.7 2.3-5.3 3.2-5.3 1.7 0-1.7 6-29.7 6.5-30.1.2-.3.6.1.8.9 2 7 2.9 11.8 2.8 14.1-.1 2.2.2 2.5 1.9 2.1 1.1-.3 2.3-1.6 2.6-2.9.8-3 3.4-3.1 3.4-.1 0 1.2-.8 5.9-1.7 10.5-1.4 6.7-2.1 8.2-3.5 8.2-1.1 0-1.8-.6-1.7-1.2M6 350.3c0-1 .4-2.5 1-3.3.8-1.2 1-1.2 1.5.3.4.9 0 2.3-.9 3.2C6.1 352 6 352 6 350.3m292.2-2.3c-.1-1.9-.5-6.5-.9-10.2l-.6-6.8h3.5c2.3 0 3.8.6 4.2 1.5.4 1-.1 1.5-1.4 1.5-1.1 0-2 .4-2 .9 0 1 4.9 2.1 9.6 2.1h3.4v12.1l-6.2-.3-6.3-.3-.1-5c-.1-2.7-.6-6.1-1-7.5-.7-1.9-1-.3-1.5 6.5-.3 5-.6 7.4-.7 5.5m12.8-5c0-1.1-.7-2-1.5-2s-1.5.5-1.5 1.1c0 .5-.4.7-1 .4-.5-.3-1 .1-1 .9 0 1 .9 1.6 2.5 1.6 1.8 0 2.5-.5 2.5-2m-108.4-.2c-.9-3.7-.7-10.8.4-10.8.6 0 1 .6 1 1.4s.4 1.6.9 1.8c.4.2 1.1 2.4 1.5 5.1.7 4.2.5 4.7-1.2 4.7-1.2 0-2.2-.9-2.6-2.2m-126.8-2.5c-.6-2.8.2-5.3 1.8-5.3.9 0 1.4 1.1 1.4 3.5 0 3.7-2.4 5-3.2 1.8"/><path d="M86.6 340.2c.7-.4 1.1-3 1-6.4-.1-5 .1-5.8 1.6-5.8 1.4 0 1.8.8 1.8 3.4 0 4.4.9 6.6 2.6 6.6.8 0 1.4.7 1.4 1.5 0 1.1-1.2 1.5-4.7 1.5-2.7 0-4.3-.4-3.7-.8m51.4-7.3c0-1.9-2.7-3.7-6.1-4.2-2.5-.3-2-.4 1.9-.5 6.2-.2 7.1-2.2 1-2.3-2.4 0-5.3-.2-6.5-.5-2.1-.3-2.3 0-2.3 3.6 0 3.3-.3 4-2 4-1.8 0-2-.7-2-5.5V322h11c9.1 0 11 .3 11 1.5 0 .8-.6 1.5-1.4 1.5-2 0-3 1.8-1.7 3.3 1.3 1.7.3 5.7-1.5 5.7-.8 0-1.4-.5-1.4-1.1m6.3-2.9c0-2.5.2-3.5.4-2.2.2 1.2.2 3.2 0 4.5-.2 1.2-.4.2-.4-2.3m213-1.7c-1.5-.3-2.3-1.2-2.3-2.4 0-1.7.5-2 3.7-1.7 2.3.3 4.1 1.1 5.1 2.6 1.4 2.1 1.3 2.2-1.4 2.1-1.6-.1-3.9-.4-5.1-.6m-110.1-17.5c0-1.8-.6-3.4-1.1-3.6-2-.7-1.1-2.4.9-1.9 1.5.4 2 0 2-1.4 0-2.3 1.8-2.5 2.6-.4.4.8.3 3.5 0 6-.6 3.4-1.2 4.5-2.5 4.5s-1.8-.8-1.9-3.2M115 294c0-1.3.7-2 1.9-2 2.6 0 3.4-4.7 1.3-8.2-.9-1.6-2.2-2.8-2.9-2.8s-1.3-.9-1.3-2c0-2.1 3.4-2.9 4.5-1 .4.6 1.4.9 2.3.8 1.1-.2 1.6.3 1.4 1.5-.2.9.1 1.7.5 1.7 1 0 1 6.1 0 7.8-.5.6-.6 1.2-.3 1.2s-.4 1.1-1.6 2.5c-2.6 3.1-5.8 3.3-5.8.5m226-19.5c0-.8.7-1.6 1.5-1.6.8-.1 2-.3 2.5-.4.6-.1 1.9-.3 3-.4 1.1 0 2-.8 2-1.6 0-1.9 3.9-2 4.6-.1.8 2.1 4.4 1.6 4.4-.6 0-1.8-1.4-2.3-6.2-1.9-1.6.1-2.8-.3-2.8-.8 0-1.5-4.7-1.4-5.2.2-1.1 3.1-43.5 2.5-47.8-.8-.8-.6-2.7-1.7-4.3-2.5-2-1-2.4-1.6-1.5-2.2.8-.5.1-.8-2-.8-2 0-3.1-.4-2.7-1 .4-.7-.8-.8-3.6-.4-2.7.5-4 .4-3.6-.3.4-.6-.3-.8-1.8-.5-1.4.2-2.3.8-2 1.2.3.5-.5 1-1.7 1.2-1.3.2-2.2.9-2 1.6.1.7-.9 1.2-2.3 1.2-1.6 0-2.5.6-2.5 1.5 0 .8.7 1.5 1.5 1.5s1.5-.4 1.5-1c0-.5.5-1 1-1 .6 0 1 .7 1 1.5s.7 1.5 1.5 1.5 1.5-.5 1.5-1.2c0-.6.9-.2 2 1 2.4 2.6 4 2.8 4 .7 0-.8.5-1.5 1-1.5.6 0 1 .7 1 1.5 0 1.8 5 2.1 5 .3.1-.9.5-.7 1.3.3 1.5 2 7.7 3.1 7 1.2-.4-.9.5-1.3 3.1-1.3 2.5 0 3.6.4 3.6 1.5 0 .8.7 1.5 1.5 1.5s1.5.7 1.5 1.6c0 1.5-1.2 1.6-10.7 1-15.4-1-41.9-6.3-43.4-8.7-.3-.6-2.9-1-5.7-1.1-5 0-5.2-.1-5.2-2.8 0-2.8-1.5-4-5.1-4-1 0-1.9.6-1.9 1.3s-.5.4-1.1-.5c-1.5-2.7 1.5-6.4 7.6-9.2l5.2-2.5.8-6.8c.4-3.7.9-7.7 1.2-8.8s.8-5.1 1.3-9c.8-6.7.7-7.2-2.2-11.8-2.8-4.4-3.3-4.7-6.7-4.5-3 .3-3.6 0-3.9-1.9-.2-1.4.3-2.3 1.7-2.8 2.5-.8 2.6-1.9.4-10.1-1.4-5-2.1-6.4-3.6-6.4s-1.8-.5-1.3-2.2c1.5-5 2.6-16.6 2-20.7-.5-3.3-.4-4.2.6-3.6.8.5 1.1-.2.9-2.8-.2-2 0-3.9.4-4.3s.7-1.8.7-3.1 1.1-4.6 2.5-7.4l2.6-5-1.7-9.7c-1.7-9.7-1.9-21.8-.8-39 .4-6.2.2-9.2-.5-9.2-.6 0-1.1-.8-1.1-1.7 0-1.5.2-1.6 1-.3.7 1.1 1 .5 1-2.3 0-5.2 2.9-9 9.2-12.1 8.6-4.3 11.6-3.1 5.6 2.3-3 2.6-3.1 3-1.6 4.5.9.9 2.1 1.6 2.7 1.6 2 0 1.1 2.8-1.4 4.4s-2.5 1.9-2.5 15.1c0 11.3-.2 13.5-1.5 13.5-.8 0-1.5-.7-1.5-1.5s-.7-1.5-1.5-1.5q-1.5 0-1.5-3c0-1.7.5-3 1.3-3s1.2-2.3 1.2-8c0-6.4-.3-8-1.5-8.1-1.1 0-1-.2.3-.7 1-.4 2.4-2.1 3.3-3.7.9-1.8 1-2.5.3-1.8s-2.1 1.3-3 1.3c-2.2 0-2.9 2-2.9 8.1 0 2.7-.4 4.9-1 4.9-.5 0-1 .7-1 1.5s.5 1.5 1 1.5c.6 0 1 1.9 1 4.3 0 9.3 1.3 17.7 2.6 17.7.9 0 1.4-1.2 1.4-3.5 0-2.8.4-3.5 2-3.5 1.7 0 2 .7 2 4.3 0 2.3.7 8.5 1.5 13.7 2.8 17.9 2.9 18.5 1.1 20.2-.9.9-1.6 2.1-1.6 2.7s-.4 1.1-1 1.1c-.5 0-1 .9-1 2s-.4 2-.8 2c-1.1 0-3.2 14.6-3.2 21.7 0 4.5.3 5.2 2.3 5.6 1.2.3.6.4-1.3.4-3-.2-3.5-.6-3.8-2.9-.2-1.6-.9-2.8-1.8-2.8-1 0-1.4-1.3-1.4-4.5 0-3.3.4-4.5 1.5-4.5 1 0 1.5-1.1 1.5-3.5 0-1.9-.4-3.5-1-3.5-.5 0-1-.4-1-1 0-.5.7-1 1.5-1s1.5-.7 1.5-1.5-.4-1.5-1-1.5c-.5 0-1-.5-1-1.1s.9-.9 2-.6c1.5.4 2 0 2-1.3 0-1.1.5-2.2 1-2.5 1.7-1 1.1-3.5-.7-3.5-1.5 0-1.6.2-.3 1 1.3.9 1.3 1-.1 1-3.2 0-9.9 10.5-9.9 15.7 0 4.3 4.3 17.3 5.7 17.3.7 0 1.3.7 1.3 1.5 0 .9 1 1.5 2.3 1.6 1.8.1 1.8.2.4.6-1.1.3-1.6 1-1.3 2 .3.8.6 1.7.6 1.9s.9.4 2 .4c1.5 0 2 .7 2 2.5 0 1.4.9 3.4 2 4.5 2.5 2.5 2.5 3.6.1 4.3-2 .5-2.1 1.6-.6 5 .4 1.1 1.4 1.6 2.4 1.2 1.1-.3 3.8 1.6 8.1 6.1 3.6 3.6 8 7.4 9.8 8.5 1.7 1.2 3.2 2.9 3.2 3.8 0 2.4-7.6 2.6-14.7.4-5.2-1.7-5.3-1.7-7.8.7-1.3 1.3-2.7 3.2-3.1 4.3-.7 2.3 2.4 9.7 4.2 9.7.7 0 1.4.8 1.7 1.8.3 1.4.4 1.3.4-.3.1-4.7.4-5.5 1.8-5.5s1.5 1.3.9 9c-.7 8.9-.7 9 1.8 9.9 15.5 5.9 57.1 9.4 85.8 7.2 15.4-1.2 37.1-4.4 41.8-6.2 2.5-.9 2.5-1.1 1.7-8.7-1.4-13.6-1.3-17.6.8-18 1.6-.3 1.8.2 1.6 3.5-.2 2.1 0 4.4.4 5s.7 2.2.7 3.4c0 1.3.4 5.5 1 9.3.8 6 .7 7.2-.6 8.8-.9.9-2 1.5-2.5 1.2-.4-.2-.3.9.2 2.6.6 1.6 1.5 3 2.1 3 .5 0 .7-.4.4-.9-.3-.4.5-.6 1.8-.4 1.3.3 2.7 0 3-.6.4-.6 1.8-1.1 3.2-1.1 1.3 0 2.4-.4 2.4-1 0-1.8 2.9-1.1 4 .9.5 1.1 1 2.4 1 2.9 0 1.3-12.3 6.2-15.4 6.2-1.4 0-2.6.4-2.8.9-.4 1.2-22.4 4.8-37.3 6.1-15.2 1.2-14.5 1.3-14.5-.5m30-5.7c0-.6 1.1-.7 2.5-.4 1.8.5 2.5.2 2.5-.9 0-1.8 2.1-2 3.8-.3 1 1 1.4 1 2 .1.4-.7 1.9-1.2 3.2-1.1 6.1.4 8-.2 8-2.3 0-1.3-.6-2-1.7-1.8-3.3.3-4.2-.1-3.7-1.6.4-.8.1-1.5-.6-1.5-.6 0-.9-.4-.5-.9.3-.5.1-1.2-.5-1.6-.5-.3-1-.1-1 .4 0 .6-1.1 1.1-2.5 1.1s-2.5.5-2.5 1c0 .6.5 1 1 1 .6 0 .5.8-.2 2-.7 1.1-2.3 2-3.5 2s-2.5.5-2.8 1c-.3.6-2.5 1-4.8 1.1s-5.3.5-6.7.9l-2.5.8 2.8.1c1.5.1 3 .7 3.3 1.5.6 1.5 4.4 1 4.4-.6m-113.2-7.9c-.6-.4-.8-1.1-.5-1.6s.2-1.5-.4-2.3c-.7-1.3-.9-1.2-.9.3 0 1.6-1 2.1-3.7 1.8-2.1-.3-.1 3.8 2.1 4.1 2.4.4 4.9-1.3 3.4-2.3m-14.4-4.8c-.2-.2-1-.1-1.9.3-1.3.5-1.4.8-.3 2s1.4 1.2 1.9-.3c.4-.9.5-1.8.3-2m9.6-115.6c0-.8-.6-1.5-1.4-1.5-2 0-2.9 1.7-1.4 2.3 2.2.9 2.8.7 2.8-.8m-1.4-18.7c-.3-2.9-.5-5.6-.5-6-.2-2-3.1-.6-3.1 1.5 0 5 1.3 9.7 2.7 9.7 1.1 0 1.3-1.2.9-5.2M203 260.1c0-4.4-.4-8.2-.9-8.6-.5-.3-2.9.1-5.3 1-4.9 1.7-11.8 2-11.8.5 0-.5.7-1 1.5-1s1.5-.6 1.5-1.4.6-1.7 1.3-1.9c2.2-.9-2.9-.7-8.3.3-2.9.5-10.2 1.2-16.2 1.4-10.4.5-17.2 1.5-24.3 3.8-1.6.6-10 1.4-18.5 1.8-8.5.5-16.5 1.1-17.7 1.4-1.3.3-2.5.1-2.8-.5-.4-.5-2.7-.9-5.3-.9-9-.1-16.8-1.7-21.3-4.6-4.3-2.7-4.3-2.8-1.9-3.5 1.4-.4 1.8-.8 1-.8-.8-.1-3.1-.4-5-.6s-6-.7-9-1-6.2-1-7-1.5c-.9-.5-2.7-.3-4.7.5-3 1.3-3.9 1.2-7.5-.2-2.3-.9-3.6-1.9-2.9-2.1.8-.3.4-.9-1.1-1.6-2.9-1.5-3.7-4.6-1.1-4.6 1.1 0 3.9.7 6.4 1.5 5.5 1.8 24.1 5 37.9 6.6 15.5 1.8 56.7 1.5 73-.5 16.2-1.9 28.5-4.3 32.2-6.2 3.5-1.8 3.8-1.8 3.8.4 0 1.6.6 1.8 4.8 1.2 2.6-.4 5.9-1.2 7.4-1.8 4.7-1.9 11 1.8 13.9 8.2 2.3 5.2 2.6 14.6.4 14.6-.8 0-1.5.9-1.5 2 0 1.5-.7 2-2.9 2-1.6 0-3.1-.6-3.4-1.2-.2-.7-.7.2-1.1 2-.4 1.7-1.4 3.2-2.2 3.2-1.1 0-1.4-1.7-1.4-7.9m8-16.9c0-1.4-.8-2.6-2.2-3.1-2.5-.9-5.8-.3-5.8 1.1 0 .5-1.4 1.4-3 2-2.5.8-2.8 1.3-1.9 2.4 1.5 1.8 2.9 1.8 2.9-.1 0-2.2 1.7-1.8 2.3.5.3 1.3 1.1 1.8 2.6 1.5 1.2-.2 2.1.1 2.1.7 0 .7.7.3 1.5-.8.8-1 1.5-2.9 1.5-4.2M82.8 262.3c-7.1-.4-7.8-.6-7.8-2.5 0-1.8.4-1.9 3.5-1.4 2.9.6 3.4.4 2.9-.9-.5-1.1.1-1.5 2.5-1.5 2 0 3.1.5 3.1 1.4 0 1 2.7 1.6 10.8 2.2 5.9.5 9 1 7 1.2-2.1.2-3.8.7-3.8 1.3 0 .9-1.6.9-18.2.2"/><path d="M125 261.7c0-2 4.7-3 9.4-2.1 3.3.6 3.6.4 3.7-1.7q.15-2.55.6-.6c.5 1.8 5.3 2.5 5.3.7 0-.5.7-1 1.5-1s1.5.4 1.5.8c0 .5 1.4.7 3 .4 2.5-.4 3-.1 3 1.7s-.6 2.1-4.8 2.1c-2.7 0-9 .3-14 .6-8 .6-9.2.5-9.2-.9m40-4.1c0-.9.8-1.7 1.8-1.8.9 0 2.3-.2 3.1-.2.8-.1 1.6-.7 1.9-1.4.4-1.4 3.2-1.7 3.2-.3 0 .6 1.2.6 3.2 0 4.7-1.3 5.8-1.1 5.8 1s-1.9 2.6-12.5 3.7c-5.6.6-6.5.5-6.5-1m201.3-23.1c-.7-.8-1.3-3.1-1.3-5.3 0-4.9 1.1-6.2 9-10.3 3.6-1.9 7.4-4.2 8.4-5.1 1.1-1 3.2-1.8 4.8-1.8 2.4 0 2.7.3 1.9 1.8-.6.9-1.2 2.9-1.5 4.4-1.4 6.6-11.4 12.6-16.4 9.9-2.8-1.5-3-1.4-2.4 1.4.2 1.4.8 2.2 1.3 1.9s.9 0 .9.5c0 .6 1.5 1.2 3.3 1.2 1.7.1 2.4.3 1.5.6-1 .2-1.8.9-1.8 1.4 0 1.4-6.4 1-7.7-.6m13.7-2.4c0-.5 1.9-1.8 4.3-3l4.2-2.1.3 2.1c.2 1.2-.2 2.6-1 3-1.7 1.2-7.8 1.1-7.8 0M86.5 219.3c-1.1-.3-2.4-.9-2.9-1.4-.6-.5-1.8-.9-2.8-.9-1.1 0-1.8-.7-1.8-2 0-1.5-.7-2-2.9-2-2.9 0-8.1-4.9-8.1-7.8 0-.7-.7-2.1-1.6-3-2-1.9-1.4-9.3.9-11.6 2.1-2.1 9.7-2.2 9.7-.1 0 .8.8 1.5 1.9 1.5s2.3 1.2 3.1 2.9c1.5 3.7 4.6 6.5 9.1 8.4 3 1.2 4.1 1.3 7.5.1 5.2-1.7 8.4-5.6 8.4-10 0-1.9-.3-3.4-.8-3.4-1.8 0-11.2-9.3-11.2-11.1 0-1-.5-1.9-1-1.9-.7 0-1-2.7-.8-7.2.3-7.1.4-7.3 3.1-7.6 1.5-.2 2.7-.8 2.7-1.3s5.2-.9 11.9-.9c9.6 0 12 .3 12.5 1.5.6 1.7.7 1.7-14.1 1.9-5.6.1-10.5.4-10.9.9-.4.4 4.6.7 11.2.7 6.5 0 11.4.4 10.8.8-1.6 1-2.8 15.2-1.3 15.2.8 0 .7.5-.2 1.6-1 1.3-1 1.7.1 2.4.8.5 1.7.7 1.9.4.3-.3-.1-.9-.9-1.4-1.2-.8-1.2-1 .3-1.6.9-.3 2.5-.3 3.4 0 1.1.5 2.6-.4 4.5-2.4l2.8-3.1v3.5c0 2.9-.4 3.6-2 3.6-1.1 0-2 .6-2 1.4s-1.1 2.3-2.5 3.4-2.5 3-2.5 4.2c0 3.4 3.8 8.9 6.6 9.6 3.5.9 3.3 4.4-.3 4.4-1.4 0-2.4.3-2 .6.3.4-.4 1.5-1.6 2.5s-1.6 1.8-.9 1.9c.6 0 1.2.7 1.2 1.5 0 .9.7 1.8 1.5 2.1.8.4 1.5 1 1.5 1.5 0 1.4-6.8 1-9.9-.5-2.6-1.4-3.3-1.3-8.7.9-4.6 1.9-7.6 2.4-13.4 2.4-4.1-.1-8.4-.3-9.5-.6m6.1-5.3c.8 0 1.4.7 1.4 1.5s.5 1.5 1 1.5c.6 0 1-.5 1-1.1 0-.7 1-.9 2.5-.5 1.4.4 2.5.2 2.5-.4 0-.5.7-1 1.5-1s1.5-.4 1.5-1c0-.5-.5-1-1.2-1-.6 0-.8-.3-.5-.7 1.2-1.1-3.3-3.4-7.3-3.7-2.2-.2-3.7.1-3.4.5.3.5 1.7.9 3.2.9h2.6l-3.4 2.5c-1.8 1.3-3.8 2.6-4.3 2.8-.7.2-.7.9-.2 1.8.8 1.2 1 1.1 1.3-.3.2-1 1-1.8 1.8-1.8m-6.2.5c-.4-.8-1-1.2-1.5-.9s-.9-.3-1-1.3c0-1.3-.2-1.4-.6-.4-.3.8.2 2 1.3 2.8 2.3 1.7 2.5 1.6 1.8-.2m-4.4-3c0-.8-.6-1.5-1.2-1.5-1.2 0-2.8-1.7-8-8.3-.9-1.2-1.9-1.9-2.3-1.6-1 1 2.9 6.9 4.3 6.4.6-.2 1.2.2 1.2 1 0 1.5 3.8 5.5 5.2 5.5.4 0 .8-.7.8-1.5m28 .7c0-1.3-1.2-2.2-2.2-1.6s-.1 2.4 1.3 2.4c.5 0 .9-.4.9-.8m6-4c0-1.3-1.2-2.2-2.2-1.6s-.1 2.4 1.3 2.4c.5 0 .9-.4.9-.8m3.4-10.7c-.4-.8-1.2-1.5-2-1.5-2 0-1.7 1.8.4 2.3.9.3 1.8.5 1.9.6.1 0 0-.6-.3-1.4m-7.7-7.2c-.2-1.6-.4-.5-.4 2.2 0 2.8.2 4 .4 2.8.2-1.3.2-3.5 0-5m-35.2 3.8c-1.1-1-3.2-1.5-5.5-1.1-.8.1-.4.5 1 1 3.6 1.1 5.6 1.2 4.5.1m43.3-6.3c-.7-1.9-3.8-2.2-3.8-.4 0 1 .9 1.6 2.1 1.6s1.9-.5 1.7-1.2M98 173l-.8-3.5-.1 3.1c-.1 1.7.2 3.4.6 3.7 1.1 1.2 1.2.3.3-3.3m38 45c0-.6.7-1.3 1.5-1.6.8-.4 1.5-1.2 1.5-2s.7-1.4 1.5-1.4 1.5.7 1.5 1.5c0 1.1.6 1.2 2.3.6 1.2-.5 2.2-1.7 2.2-2.7 0-1.4.8-1.9 2.9-2 2.5-.1 4.5-1.7 4.6-3.6 0-1.2-2.5-.9-3.8.4-1.2 1.2-2.4.4-3.4-2.5-.2-.4-2.2.2-4.5 1.3-5.6 2.7-9.3 2.7-9.3 0 0-1.5.7-2 2.9-2 3.4 0 8.5-4.4 12.1-10.3l2.2-3.8 6.2.3 6.1.3.3 5.7c.4 6.9-1.1 10.1-7.5 16.3-3.3 3.2-5.4 4.5-7.4 4.5-1.6 0-2.9.5-2.9 1 0 .6-2 1-4.5 1s-4.5-.5-4.5-1m220.1-6.7c.8-1 2-2.2 2.7-2.6 2-1.3.4-2.7-3-2.7h-3l2.3-1.9c1.3-1.1 2-2.3 1.6-2.8-.5-.4-1.9.4-3.1 1.8-3.3 3.8-5.6 4.4-5.6 1.4 0-1.8.5-2.5 2-2.5 1.1 0 2.5-.9 3.2-2 1.5-2.3 7.6-2.8 9.6-.8 1.8 1.8 1.5 9.7-.3 10.4-.8.4-1.5 1.2-1.5 2 0 .9-1.1 1.4-3.1 1.4-2.9 0-3-.2-1.8-1.7m-33.3-3c-3-.3-3.6-.7-3.1-2.1.6-1.5.5-1.5-1.1.1-2.4 2.4-3.6 2.1-3.6-.8 0-1.4.4-2.5.8-2.5 1.4 0 3.3-4.8 2.2-5.5-.6-.4-1-2.3-1-4.3.1-3.3.2-3.5 1.4-1.9 1.6 2.1 2.6 2.2 2.6.2 0-1.8 5-2.1 6.6-.5.8.8 1.5.6 2.4-.5.7-.8 2.1-1.5 3.2-1.5 1.3 0 2.4-1.1 3.1-3 1.6-4.2 3.7-3.9 3.7.5 0 2.6-.9 4.5-3.5 7.4-3 3.3-3.4 4.2-2.6 6.4.5 1.4 1.5 2.8 2 3.2 1.8 1.1 1.3 4.4-.6 4.3-1-.1-3.4.1-5.3.4s-5.2.3-7.2.1m7-14.1c-1.3-.6-3.8.6-3.8 1.7 0 1.6 3.5 1.8 4.1.1.4-.8.2-1.7-.3-1.8m-41.6 8.1.3-3.8 5.3-.3c4.9-.3 5.2-.2 5.2 2.1 0 2.1-.4 2.3-3 1.9-3.1-.4-6.4 1.3-5.4 2.9.3.5-.2.9-1.1.9-1.3 0-1.6-.8-1.3-3.7m-28.2.9c0-1 3.8-4.2 5-4.2.6 0 1 .4 1 .9 0 .4 1.1.6 2.5.3 2-.3 2.5 0 2.5 1.7 0 1.9-.6 2.1-5.5 2.1-3 0-5.5-.3-5.5-.8m138.8-5.4c-3.5-2-4.9-3.8-3-3.8.4 0 1.4-2 2.1-4.5 1-3.3 1.8-4.5 3.2-4.5 1.1 0 1.9-.7 1.9-1.7 0-3.5-1.7-4.7-6.4-4.6-3.9.1-4.6-.2-4.6-1.8s.7-1.9 4.5-1.9h4.5v-6.3c0-8.4-5-24.6-8.3-26.8-.6-.4-.1-9.4 1.2-23 1.1-12.3 2.3-24.6 2.5-27.4.2-2.7.8-6.6 1.4-8.5 1-3.4 1-3.4 1.1 2 .1 3.9.4 5.1 1.1 4 .5-.8 1-2.5 1-3.7 0-1.7.6-2.3 2.4-2.3 2.7 0 3.6 2.8 3.6 11.1 0 3.8.4 4.9 1.6 4.9s1.4.8 1 4.3c-.3 2.3-1.1 10.5-1.7 18.2l-1.2 14.1 3 6.4c1.7 3.6 3.6 8.9 4.2 11.8 1.4 6.7 1.4 23.7.1 26.3-.9 1.6-.7 1.9 1 1.9 1.1 0 2 .7 2 1.5s-.6 1.5-1.3 1.5c-.9 0-2.1 2.9-3.2 7.5l-1.9 7.5h-4.1c-2.3 0-5.6-1-7.7-2.2m-16-3.5c-3.3-.8-2-3.3 1.7-3.3 2.8 0 3.5.4 3.5 2 0 2-1.4 2.3-5.2 1.3M311 183.9c0-6 1.4-7.9 5.7-7.9h3.7l-2.3 2.1c-1.2 1.2-2 2.7-1.7 3.5s-.1 1.4-.9 1.4c-.9 0-1.2.8-.9 2.5.3 2 0 2.5-1.6 2.5-1.7 0-2-.7-2-4.1M197 180c0-.5.7-1 1.5-1s1.5.5 1.5 1c0 .6-.7 1-1.5 1s-1.5-.4-1.5-1m-12-14.5c0-8.5.3-10.5 1.5-10.5 1.9 0 2.8 5.3 2.1 13.1-.3 3.5-.5 6.7-.6 7.2 0 .4-.7.7-1.5.7-1.2 0-1.5-1.8-1.5-10.5m89.5 6.5c-.9-1.7-1.5-5.5-1.5-9.6 0-6.2.2-6.8 3.5-10.1 3.6-3.6 3.6-3.6 10.7-3.1 6.5.5 7.5.9 10 3.7s2.8 3.9 2.8 10c0 8.8-.5 10.1-4.1 10.1h-2.8l1.7-3c1.5-2.7 1.5-3.2.2-4s-1.2-1 .3-1c.9 0 1.7-.7 1.7-1.5s-.7-1.5-1.5-1.5c-1.8 0-2-2.6-.2-3.3.7-.4.4-.8-1-1.2-1.2-.4-2.4-1.3-2.7-2.1s-1.3-1.4-2.1-1.4c-.9 0-1.4-.4-1.1-.9.3-.4-.6-.6-1.9-.3-2.6.5-3.2 1.6-1.4 2.7.6.4.8 1.3.5 2.1s0 1.4.6 1.4c.9 0 .9.3 0 1.2-.7.7-1.2 2.4-1.2 3.9 0 3.9-.9 5.9-2.5 5.3-2.1-.8-3 1.8-1.2 3.1 2.5 1.8 2.1 2.5-1.8 2.5-2.8 0-3.7-.5-5-3m77.5-15.3c0-3.7 1.5-5.7 4.2-5.7 1 0 1.8-.4 1.8-1s2.7-1 6-1c5.7 0 6 .1 6 2.5 0 2.1-.3 2.3-2.2 1.6-3.5-1.3-8.7-.1-11.4 2.6-1.3 1.3-2.4 2.8-2.4 3.3 0 .6-.4 1-1 1-.5 0-1-1.5-1-3.3m-281.4-4.4C65.7 151 63 146 63 138c0-5.7.3-6.5 3.4-9.6 3.2-3.2 3.8-3.4 10-3.4 3.7 0 6.6.4 6.6 1s.9 1 2 1 2.4.8 2.7 1.8c.4.9 1.1 2 1.7 2.4 1.6 1.1 1.3 13-.3 16.1-2.5 4.6-11 6.9-18.5 5m14.1-7.9c-.3-.4-1.4-.3-2.4 0-1.5.6-1.5.8-.3 1.6 1.6 1 3.9-.4 2.7-1.6m2.8-5.1c-.2-1-.4-2.4-.4-3-.1-.7-.8-1.3-1.6-1.3-2.2 0-1.9 4.7.3 5.3.9.3 1.8.5 1.9.6.1 0 0-.7-.2-1.6m-1.5-5.9c0-1.4-4.7-4.3-7-4.3s-2.3.1-.5.9c1.2.4 2.7 1.5 3.4 2.4 1.3 1.5 4.1 2.2 4.1 1m59 18.9c-3.2-.6-7-4.6-7-7.3 0-1.1-.4-2-1-2-.5 0-1-2.2-1-5 0-2.7.5-5 1-5 .6 0 1-.9 1-1.9 0-3.5 4.7-6.1 10.9-6.1 7 0 10.1.8 10.1 2.6 0 .8.7 1.4 1.5 1.4 2.3 0 3.7 4.9 3.2 11.1-.5 6-1.8 8.9-4.9 10.8-2.2 1.4-10 2.2-13.8 1.4m6.3-4.4c-.6-2.2-6.3-3.2-6.3-1.1 0 .9.3 1.3.6.9.4-.3 1.2 0 1.9.7 1.9 1.9 4.3 1.6 3.8-.5m6.7-3.3c-.5-.5-1.6-.6-2.5-.2-1.3.5-1.4.8-.3 1.9.9 1 1.6 1.1 2.4.3.7-.6.9-1.5.4-2m-17-6.3c0-6-.9-7-1.1-1.2-.2 4.7 0 6.9.6 6.9.3 0 .5-2.5.5-5.7m18.7 1.3c-2.1-1.6-2.2-3.6-.1-3.6.8 0 1.2-.4.9-1-.3-.5-1.3-1-2.1-1-2.2 0-1.9 6.7.4 7.2 2.5.6 3-.2.9-1.6m24.3-8.1c0-3.6.4-6.5 1-6.5 1.7 0 2.8 3.4 2.7 8.3-.2 3.8-.5 4.7-1.9 4.7-1.5 0-1.8-1-1.8-6.5m-4.9-17.2c-.7-2.1-1.1-5.8-.9-8.3.3-4.4.4-4.5 4.5-5.4 3.1-.7 4.5-1.6 5.2-3.5 2-4.9 4.1-14.5 4.1-18.6 0-2.3.4-4.5.9-5.1 1-1.2-1.5-27-3.4-34.7-.8-3.2-1.5-7-1.5-8.3 0-3.8 2.6-2.8 3.9 1.6.8 2.8 1.6 3.8 2.6 3.4.8-.4 1.5-.2 1.5.3 0 .6 1 2.2 2.3 3.6 1.6 1.9 2.8 2.5 4.5 2.1 1.9-.5 2.2-.2 2.2 2 0 1.4-.4 2.6-1 2.6-.5 0-1 1.6-1 3.5 0 2.4.5 3.5 1.5 3.5.8 0 1.5.7 1.5 1.5s-.4 1.5-1 1.5-1 3-1 7 .4 7 1 7 1 1.2 1 2.6c0 2.1-.4 2.5-1.8 2.2-1.5-.4-2.1.4-3.1 4.3-1.4 5.4-1 6.9 2.2 7 1.5 0 1.7.2.7.6-.8.3-1.8 1.1-2.2 1.7-1.2 1.8-.9 7.4.5 7.9.8.4.7.6-.4.6-.8.1-2.6 1.2-3.8 2.5s-4.3 2.9-6.7 3.6c-2.5.7-4.1 1.6-3.5 2 .8.4.6 1.2-.4 2.6-.8 1-1.5 2.7-1.5 3.8q0 1.8-1.5 1.2c-.8-.3-1.5-.1-1.5.4 0 .6.4 1 .9 1s.7.9.4 2c-.9 3.4-3.9 2.4-5.2-1.7m17.8-42.6c0-3.3-.2-3.8-.9-2.2-1.2 2.8-1.2 7.8 0 7 .6-.3 1-2.5.9-4.8m98.8 39.9c-1.3-1.3-2.9-3.7-3.7-5.2s-3.4-4.8-5.7-7.3c-2.8-3-4.3-5.5-4.3-7.3v-2.6l5.6 3c4.1 2.2 5.9 2.7 6.7 1.9 1.9-1.9 6.2-1.2 8.7 1.4 1.3 1.4 1.8 2.5 1.2 2.5s-1.4 2-1.8 4.5c-.3 2.5-1 4.5-1.5 4.5s-.9.8-.9 1.8c0 1.4.7 1.7 4 1.4 3.5-.4 4-.2 4 1.7s-.6 2.1-5 2.1c-4.1 0-5.5-.5-7.3-2.4m40.3-.6c0-1.5.5-1.9 2.3-1.6 1.2.3 2.8.5 3.5.5.6.1 1.2.8 1.2 1.6 0 1-1.1 1.5-3.5 1.5-2.8 0-3.5-.4-3.5-2m10 1.7c0-.6 7.1-7.7 7.7-7.7.2 0 .3 1.7.1 3.8-.3 3.5-.5 3.7-4 4-2.1.2-3.8.1-3.8-.1m-326.2-6.2c-.9-1.7-1.9-5.7-2.3-9s-1.3-8.4-2-11.2c-.7-2.9-1.1-5.3-.9-5.3 1.3 0 5.4 5.5 5.4 7.1 0 1.1.5 1.9 1 1.9.6 0 1 1.7 1 3.8 0 2.6.7 4.4 2.5 6 2.1 2 2.2 2.6 1.2 4.3-.6 1-1.7 1.9-2.4 1.9-.6 0-1.3.8-1.5 1.8-.3 1.3-.7 1.1-2-1.3m20.2 1c0-.8-.8-1.5-1.7-1.5-1.5 0-1.6-.2-.3-1 1.7-1.1 1.2-1.3-5.5-1.4-2.5-.1-4-.6-3.9-1.3.3-3.8.5-4.3 1.7-4.3 1.8 0 6.7 2.4 6.7 3.3 0 .4 1.4.7 3 .7 2.8 0 3 .3 3 3.5 0 2.4-.5 3.5-1.5 3.5-.8 0-1.5-.7-1.5-1.5m299.9-3.8c-3-1.8-3.4-2.4-2.3-3.5.7-.6 2.2-1.2 3.2-1.2 1.2 0 5-3.8 10.1-9.9 15.6-18.9 27.5-28 39.1-29.7 4.2-.7 4.4-.6 2.7 1-.9 1-1.7 2.1-1.7 2.5 0 .9-11.7 6.4-17 8-4.8 1.5-10 7.7-10 12 0 .9-1.5 3.2-3.4 5.1-6.9 7-11.5 12.7-12.5 15.3-1.3 3.2-3.3 3.3-8.2.4m-30.6-1.4c-.7-.2-1.3-1.1-1.3-1.9 0-1 1.5-1.4 6-1.4 6.3 0 7.8 1.3 3.4 3-2.7 1.1-6.1 1.2-8.1.3m47.6-3c1.1-1.6 3.3-4.4 5-6.3l3-3.5.1 3.8c0 3-.3 3.7-2 3.7-1.5 0-2 .7-2 2.5 0 2.1-.5 2.5-3.1 2.5h-3zm-331-7.8c-.1-.8-.3-1.9-.4-2.5-.1-.5-.3-1.4-.4-2 0-.5-.8-1-1.6-1s-1.5-.5-1.5-1.1.7-.8 1.6-.5c1.2.5 1.5.2 1-1-.3-.8-.6-2-.6-2.5s-.7-.9-1.5-.9-1.5-.4-1.5-1c0-.5.6-1 1.4-1 .9 0 1.2-.8.8-2.5-.3-2 0-2.5 1.6-2.5s2 .9 2.5 5.3c.3 2.8.9 7.3 1.3 10 .6 4 .4 4.7-1 4.7-.9 0-1.7-.7-1.7-1.5m40.3-8.7c-.7-.7-1.2-3.1-1.2-5.4 0-3.8.5-4.7 4.8-8.3 3.2-2.8 4.3-4.4 3.5-4.9-1.5-1-7.8-14.6-8.7-19-.4-1.7-1.4-3.2-2.1-3.2-1.4 0-2.5-2.1-2.5-5 0-1-.9-2-2-2.3-1.5-.4-2-1.4-2-4.1 0-3.7 1.3-4.8 2.4-2 .3.8 1 1.3 1.5.9.5-.3 1.1.7 1.3 2.2.2 1.6.8 2.7 1.6 2.5.6-.1 1.2.5 1.2 1.4 0 2.6 3.1 8.4 4.2 7.8.7-.4.6-.9-.1-1.3-.7-.5.2-2 2.5-4.1l3.7-3.3 1.9 2.4c1.2 1.4 1.6 2.5.9 2.7-1.6.5-1.3 2.2.4 2.2.8 0 2.8 2.7 4.5 5.9 2.3 4.7 2.6 6 1.5 6.5-.9.3-1.2 1.5-.9 3.8.3 1.8 0 4-.5 4.8-.8 1.2-1.2 1.2-2.9-.3-2.3-2.1-3.2-2.2-3.2-.2 0 .8.5 1.5 1.1 1.5.7 0 .9 1 .7 2.4-.3 1.5.2 2.7 1.4 3.5 1.3.8 1.6 1.6 1 2.9-.5.9-.7 2.2-.5 2.9.7 1.8 3.1.4 2.6-1.5-.3-1.2.6-2.1 2.8-2.9 1.8-.7 3.6-1 4-.7.5.3.9 0 .9-.5 0-1.8 2.8-1.2 3.3.7.4 1.6.5 1.6.6 0 .1-2 4.1-2.5 4.1-.5.1.7.6.5 1.4-.5 1.4-1.9 4.6-2.5 4.6-.9 0 .5 1.1.8 2.5.5 1.9-.3 2.5 0 2.5 1.4 0 1.6-1 2-5.9 2.5-3.3.4-8.4 1.6-11.3 2.7s-6.1 2-7 2c-1 0-1.8.4-1.8.9s-1.5 1.9-3.4 3c-3.7 2.3-11.5 2.8-13.4.9m77.8-.3c0-1-1-1.5-2.8-1.5-1.5 0-3.2-.4-3.7-.9-2.3-2.2-14.5-6.2-20.7-6.8-5.9-.5-6.8-.9-6.8-2.6 0-1.6.5-1.9 3.5-1.5 2.4.3 3.5 0 3.5-.9 0-.7.5-1.3 1-1.3.6 0 1 .7 1 1.6 0 1.2.7 1.5 3 1.2 1.7-.3 3 0 3 .6s.4.5.9-.3 1.5-1.1 2.3-.8c1.1.4 1.3-.2 1-2.4-.3-1.7.2-3.7 1-4.7.8-.9 2.1-3.3 2.8-5.2 1.8-4.7 2.6-5.5 4.4-4.1 1.9 1.6 5.6 2.2 5.6.9 0-.6.9-.8 1.9-.5 1.3.3 2.2-.2 2.7-1.7.6-1.7.8-1.4 1.1 1.7.2 2.1-.2 5.9-1.1 8.3-.8 2.4-1.1 4.4-.5 4.4.5 0 .9 1.1.9 2.5 0 2.2-.3 2.5-2.6 1.9-1.8-.5-2.5-.3-2.1.3s0 1.6-.8 2.3c-2.2 1.8-1.8 3.7 1.1 5.6 2.1 1.4 2.7 1.5 3.4.4.5-.7 1.8-1.1 3.4-.8 3 .6 3.2.1 1-3-1.5-2.1-1.4-2.2 1.5-2.2 2.8 0 3.1.3 3.1 2.9 0 1.6-.4 4.1-1 5.5-.8 2.3-1.5 2.6-6 2.6-3.8 0-5-.4-5-1.5M282.5 75c-1-1.1-1.4-2-.8-2 .5 0 1.8.9 2.8 2s1.4 2 .8 2c-.5 0-1.8-.9-2.8-2m96.9.1c1-1 2.6-2.1 3.7-2.4 1.5-.4 1.9 0 1.9 1.9 0 2.1-.5 2.4-3.7 2.4-3.5 0-3.6-.1-1.9-1.9M23 67.5c0-.8-.7-1.5-1.5-1.5-1.2 0-1.5-1.6-1.5-8 0-6.1.3-8 1.4-8 2 0 3-7.2 1.1-8.6-2.2-1.6-1.9-4.4.5-4.4 1.1 0 2-.3 2-.7 0-1.4-4.7-5.3-6.3-5.3-3.5 0-2.7-9.6 1.3-16.8l2.4-4.2 1.3 3.1c.7 1.7 1.3 3.8 1.3 4.5 0 .8.5 1.4 1 1.4.6 0 1-.4 1-1 0-.5.7-1 1.5-1s1.5.6 1.5 1.2c0 .7.7.2 1.6-1.1 1.4-1.9 1.4-2.5.3-3.1-.9-.6-.3-.8 1.7-.8 1.7.1 3.6-.2 4.3-.6.7-.5 1.1.2 1.1 1.9 0 2-.6 2.7-3 3.2-1.9.3-3 1.2-3 2.3 0 .9-1.1 4.4-2.5 7.8-2.7 6.7-4.5 19.4-4.5 33 0 6.6-.3 8.2-1.5 8.2-.8 0-1.5-.7-1.5-1.5m2.3-37c.1-.5-.6-1.1-1.5-1.3-1.1-.2-1.8.3-1.8 1.3 0 1.7 3 1.8 3.3 0M151 42.4c1.5-3.9 1.3-4.2-4-4.9-4.6-.6-5-.9-4.4-2.8.9-2.9 6.4-12.6 7.4-13.2.5-.3 2.7 1.2 4.9 3.4 2.4 2.4 4.1 3.4 4.1 2.6s-.4-1.5-1-1.5c-.5 0-1-.4-1-1 0-.5.7-1 1.5-1s1.5.5 1.5 1.2c0 .6.7.3 1.5-.8 1.3-1.8 1.4-1.7 1.5 1.8 0 2-.3 3.8-.7 4-.5.2-2.4 3.6-4.3 7.5-2.8 5.8-4 7.3-5.7 7.3-2 0-2.1-.3-1.3-2.6M46.7 21.2c-2.3-2.5-2.2-6.3.1-5.9 2.7.4 3.9 1.5 5.6 4.7 1.4 3 1.4 3-1.3 3-1.5 0-3.5-.8-4.4-1.8m121.2-4.6c.6-.7.9-2.1.5-3-.4-1.2 0-1.6 1.5-1.6 1.2 0 2.1-.4 2.1-1 0-.5.7-1 1.5-1s1.5.6 1.5 1.3.9 1.3 2 1.3 2-.4 2-.8.9.1 2 1.2c2.7 2.7 2.6 3-1.9 3-2.2 0-4.3.5-4.6 1-.3.6-2.2 1-4.2 1-2.9 0-3.3-.3-2.4-1.4m4.9-11.4c-1-.2-1.8-.7-1.8-1.2 0-1 1.9-1.6 7.5-2.4 2.2-.3 3.3-.3 2.5.1-.8.3-1.9 1.2-2.5 1.8-1.3 1.6-3.5 2.2-5.7 1.7"/></g><path fill="#ff8205" d="M279 380.5c0-1.8.5-2.5 2-2.5s2 .7 2 2.5-.5 2.5-2 2.5-2-.7-2-2.5M87.5 291.2c-17.6-.9-54.9-8.7-64.3-13.4l-4.7-2.3-.3-13.6c-.3-17.6-.7-17.3 13.1-13.1 28.6 8.8 43 10.6 83.2 10.6 28.3 0 33.7-.2 46.5-2.2 16.7-2.6 19-3.2 32.2-7.4 13-4.2 12.8-4.4 12.8 12.7 0 11.3-.2 13.4-1.8 14.8-2.1 1.9-19.7 7-34.1 9.7-12 2.4-35.1 5.1-36.4 4.3-.4-.2-.5-1.4-.2-2.4 1.2-3.8-1.5-11.9-5.4-15.8-8.3-8.7-20-9-28.6-.8-4.6 4.5-7 10.6-6.3 15.9.5 3.4.6 3.4-5.7 3M389 229c0-1.6.2-3 .4-3s1.1-.3 2-.6c1.3-.5 1.6.1 1.6 3s-.4 3.6-2 3.6-2-.7-2-3m6-142c0-7.3.2-8 2-8s2 .7 2 8-.2 8-2 8-2-.7-2-8"/><path fill="#0f94ea" d="M53 381.4c-15.2-1.7-22.9-3.1-32.5-6.1-4.4-1.4-8.1-2.6-8.3-2.8s.1-2 .7-4.2c.6-2.1 5-19.5 9.7-38.8 4.6-19.2 8.8-35.3 9.3-35.8.7-.7 10.8 1.4 12.9 2.6 1.8 1.1 27 4.8 38.6 5.6 7 .6 13 1.2 13.3 1.5.3.2.2 1.4-.2 2.5-.6 1.9-1.4 2.1-9.1 2.1-10.1 0-14.6 1.6-17.4 6.2-1.9 3.1-2 5-2 36.1 0 30.5-.1 32.7-1.7 32.6-1-.1-7-.7-13.3-1.5m106.8-32.7-.3-33.7-3.3-3.2c-3.2-3.2-3.4-3.3-13.6-3.6-9.7-.4-10.4-.5-11.4-2.7-1.2-2.6-1.3-2.6 17.3-4.1 9.4-.7 21.4-2.6 34.3-5.5 5.1-1.2 9.6-1.9 9.8-1.6.6.5 7.5 24.5 15.8 54.7 3.1 11.3 5.9 21.3 6.2 22.2.4 1.3-.9 2.1-6.2 3.8-9.3 2.8-27 5.9-38.6 6.7l-9.7.6zm-53.6-42.9c1.2-1.8 2.4-2.1 8.2-2.1 5.7 0 6.9.3 8.2 2.1l1.5 2.2h-19.3zm182.5-6.4c-18.9-2.9-44.9-10.5-46.9-13.6-1.1-1.8-1-22.5.2-24.7.9-1.7 1.5-1.6 10.6 1.6 38.8 13.5 108.4 13.8 146.6.6 5.9-2 11.1-3.3 11.5-2.9s1 6.3 1.1 13c.4 13.8.7 13.2-8 16.4-12.5 4.6-44.4 11.2-54.5 11.2-3.2 0-3.3-.1-3.3-4.5 0-15.4-17.8-24.7-30.3-15.8-4.9 3.4-7.9 8.9-8.5 15.4l-.5 4.9-4.6-.1c-2.5-.1-8.5-.7-13.4-1.5m-194.2-51c-21-1.3-42.8-4.5-55.3-8l-5.3-1.5.3-57.7.3-57.7 2.8-7.6c1.5-4.1 2.7-8.3 2.7-9.2 0-2-3.6-4-6-3.4-7.9 2-13.5-33.5-9.9-62.6 1.9-15.3 6.4-25 12.8-27.6 2.5-1.1 3.5-1 6.5.4 5.1 2.4 12.4 10.8 18.9 21.7C68.4 45.4 77 63.7 77 66.5c0 .9-2.1 3.6-4.7 5.9-3.3 3-4.5 4.7-4 5.9 1.2 3.2 3.7 2.9 12.9-1.6 10.9-5.3 18.1-7 29.8-7 10.5 0 19.1 2.2 29.6 7.5 8.3 4.1 10.9 4.4 12.1 1.1.5-1.2-.9-3-5.1-6.7l-5.7-5.1 2.6-7.5c4.3-11.9 14-31 19-37.3 3.1-3.9 6.2-6.6 9.1-7.8 3.9-1.8 4.6-1.8 7.8-.5 5.8 2.4 10.9 13.7 13.7 30.6 1.9 10.9 1.5 35.6-.6 46-2.3 11.3-3.7 13.9-7.3 13.8-6-.2-6.3 1.3-2.7 11.5 3.6 9.9 4.3 19.7 5 75.4.7 56.6 2.1 50.1-11 52.7-18.8 3.8-61.4 6.3-83 5m8.6-32.4c2-.6 5.3-2.1 7.3-3.5 4.5-3.1 4.7-3.1 9.1-.1 8.2 5.6 22 5.4 30-.3 8.3-5.8 13.1-16.6 8.6-19.1-2.9-1.5-4.7-.3-8 5-3.9 6.3-8.8 9.3-15.5 9.3-10.1 0-15.6-5.1-15.6-14.3 0-3.8.6-4.7 6.4-10.4 4.7-4.6 6.5-7.2 7-9.9.7-3.6-.5-7.4-2.8-8.9-.6-.4-7.2-.8-14.6-.8-16.3 0-18.4.8-18.8 6.5-.3 5.1 2.2 9.2 8.7 14.2l5 3.8v6c.1 6.7-1.3 9.7-5.7 11.9-4.7 2.4-9.5 2.7-15 1.1-4.3-1.3-5.8-2.4-8-5.7-6-9.1-8.9-10.6-11.7-6.4-1.5 2.3-1.5 2.8.9 7.4 5.9 11.6 20 17.7 32.7 14.2m-21.6-67.6c4.8-2.2 7.1-7.5 5.6-12.6-2.7-9-16.2-10.4-20-2.1-3.5 7.7 1.1 15.3 9.7 16.2.8 0 2.9-.6 4.7-1.5m73 .2c3.8-1.6 6.5-6 6.5-10.7 0-2.2-1-4.1-3.4-6.5-4.6-4.6-10.1-4.8-14.8-.5-2.8 2.5-3.3 3.6-3.3 7.5 0 3.6.6 5.1 2.9 7.5 2.5 2.6 3.8 3.3 7.9 4 .4 0 2.3-.5 4.2-1.3"/><g fill="#ffa701"><path d="M268.8 381.5c-17-2.1-33.8-5.6-33.8-7.2 0-1.3 3.4-18.5 10.9-54.3 2.9-14.1 4.1-18.4 5.2-18.1.8.2 5 1.4 9.4 2.6 11 3.2 28.2 6.3 39 7.1 11.4.7 11.9.9 10.6 3.3-.9 1.7-2.4 2-11.2 2.3-9.9.3-10.1.3-13 3.6L283 324v27.9c0 15.4-.3 28.6-.6 29.5s-1.1 1.6-1.8 1.5c-.6-.1-5.9-.7-11.8-1.4M373 355.4c0-29.2-.4-31.8-5-35.9-1.8-1.7-3.9-2.1-12.3-2.4-7.9-.2-10.4-.7-11.3-1.9-.7-.9-1-2-.8-2.3s4.3-.9 9.1-1.3c12.9-1 21.2-2.4 35.6-5.8 7-1.7 13.1-2.8 13.4-2.4.6.6 19.3 71.9 19 72.2-.5.4-29.6 5.4-33.9 5.9-2.7.3-6.8.7-9.3 1l-4.5.5zm-54-39.1c.1-2.4 2-3 8.4-2.8 5.1.2 7.1.7 7.8 1.9.8 1.4 0 1.6-7.7 1.6-4.7 0-8.5-.3-8.5-.7m-207.5-20.2c-7.7-2.2-10.1-10.7-4.6-16.2 8.2-8.2 20 1.7 14.6 12.1-.9 1.7-1.7 3-1.8 3s-1.6.4-3.2.8c-1.7.5-3.9.6-5 .3m194-34.7c-27.8-2.4-50.3-6.9-49.1-10 .3-.7.8-6.9 1.2-13.8.4-7 .8-12.6 1-12.6.1 0 2.9 1.5 6.1 3.4 11 6.5 18.8 6.8 18.1.8-.2-2.2-1.6-3.4-7.3-6.4-8.3-4.5-22.7-18.5-20.4-19.8 2.1-1.2 15.1-3 21.2-3 5.8 0 8.4-1.7 7.3-4.6-.6-1.5-2.1-1.6-13.4-1-7 .3-14.1.9-15.8 1.2-2.7.5-3.2.2-4.2-2.3-.6-1.5-1.3-4-1.6-5.5l-.6-2.8h5.8c3.1 0 9.5.5 14.1 1.1 6.7.8 8.6.7 9.2-.3 1.1-1.7 1.1-2.1-.3-4.1-1-1.3-4.1-1.9-15.1-2.7-7.6-.5-14.2-1.2-14.7-1.5-1.3-.8-1.3-13.3 0-21 .5-3.3 2.4-8.9 4.3-12.5 2.8-5.4 3.2-7.1 2.6-10-2.1-9.1-4-33.8-3.7-46.3.3-11.8.5-13.8 2.3-15.7 2.7-3 7.8-2.2 14.1 2.1 6.7 4.6 19.5 17.9 27.2 28.2l6.5 8.8 5.6-.8c7.2-1 31.2-1 37.3 0 5.4.9 4.5 1.7 14.7-11.8 17.5-23.1 34.5-34 39.3-25.2 1.8 3.3 1.5 36.3-.5 52.1l-1.6 12.8 2.9 5.2c4.3 7.7 6 14.8 6 25.1v9.2l-13.5 1.2c-14.9 1.3-16.1 1.5-17 3.9-1.2 3.3 1.7 4.4 8.6 3.3 3.5-.6 9.6-1.1 13.5-1.1h7.2l-.8 3.3c-1.5 6.5-2.9 8.9-4.8 8.3-7.8-2.4-27.6-3.4-28.7-1.6-1.1 1.9-3.5-1-3.5-4.2 0-3.4 2.6-8.8 4.1-8.8.8 0 .7-.5-.1-1.5-.7-.8-2.8-1.5-4.6-1.5-3 0-3.4-.3-3.4-2.5s.4-2.5 3.4-2.5c4.4 0 8.3-3.2 9.7-7.9 3.2-10.6-10.5-18.7-18-10.7-2.7 2.8-3.8 9.4-2.2 12.5 1.1 2 1 2.1-4.8 2.1-7.6 0-10.1 2.2-10.1 8.7 0 2.4-.2 4.3-.4 4.3-.3 0-1.8-1.3-3.4-3-2.8-2.7-3.6-3-9.7-3-5.7 0-6.9.3-9 2.5-3.4 3.3-3.1 5.4 1.5 11.3 4.9 6.1 5.2 9.8 1.3 14.2-3 3.2-8.2 4.7-12.6 3.6-1.4-.3-4.4-2.2-6.7-4.1-4.6-3.9-7.4-4.4-8.8-1.7-1.9 3.5 2.1 8.3 10.7 12.7 4.9 2.5 15.9 1.8 20.1-1.3l3.1-2.3 5.1 2.5c6.7 3.4 13.5 3.4 20.3.2 5.1-2.3 10.5-7.6 10.5-10.2 0-.8.4-1.4.9-1.4s1.4-1.3 2-3c1-3.1 3.5-4 4.4-1.7.4 1 3.5 1.6 9.9 2.1 9.2.7 17.8 2.3 17.8 3.4 0 .3-1.8 2.9-4 5.9-4 5.2-9.5 9.4-19 14.4-4.7 2.5-6 5-4 7.4 2.1 2.6 7.5 1.7 15.6-2.5 8.6-4.5 8.8-4.5 8.1-2.7-.2.7.1 3.9.8 7.2.6 3.3 1.5 9.2 1.9 13.2l.7 7.1-3.3 1c-6 1.9-20.1 4.2-33.3 5.6-11.8 1.2-44 1.8-54 1m-10.8-90.9c1.7-1.9 2.3-3.9 2.3-7 0-6.1-3.8-10.4-9.7-11.2-3.9-.5-4.6-.2-7.8 3-2.8 2.8-3.5 4.3-3.5 7.4.1 7.6 4.5 11.6 12 10.9 3.2-.3 5-1.1 6.7-3.1"/><path d="M335.1 207.6c-3.1-1.7-5-5.3-5.1-9.4 0-2.3.9-4.3 3.5-7l3.4-3.7.1 3.7c0 2-.5 4-1 4.3-1.8 1.1.9 4.5 3.5 4.5 1.4 0 2.5.4 2.5.9s1.8 1.1 4.1 1.5c3.1.5 4 1 3.7 2.3-.7 3.8-9.8 5.6-14.7 2.9"/></g><path fill="#ffa433" d="M109 265c0-.5-.7-1-1.6-1-.8 0-1.3-.4-.9-.9.3-.5-.3-1.2-1.2-1.4-1-.3 1.1-.5 4.7-.6 4.5 0 6 .2 5 .9-1 .6-1.1 1-.2 1 .6 0 1.2.7 1.2 1.5 0 1-1.1 1.5-3.5 1.5-1.9 0-3.5-.4-3.5-1m171.1-6.3c.2-.1 1.2-.9 2.2-1.6 1.4-1.2 1.7-1.1 1.7.3 0 1-.8 1.6-2.2 1.6-1.2 0-1.9-.1-1.7-.3m89.9-.7c0-.5.7-1 1.5-1s1.5.5 1.5 1c0 .6-.7 1-1.5 1s-1.5-.4-1.5-1m-95-1.5c.7-.8 1.6-1.5 2.1-1.5s.9.7.9 1.5c0 .9-.9 1.5-2.1 1.5-1.8 0-1.9-.2-.9-1.5m-6 .1c0-.2.7-.9 1.5-1.6 1.2-1 1.5-1 1.5.4 0 .9-.7 1.6-1.5 1.6s-1.5-.2-1.5-.4m123-12.1c0-.8.7-1.5 1.5-1.5s1.5.7 1.5 1.5-.7 1.5-1.5 1.5-1.5-.7-1.5-1.5m-1-8c0-.8.5-1.5 1-1.5.6 0 1-.4 1-1 0-.5-.7-1-1.5-1s-1.5-.9-1.5-2c0-3.2 2.7-2.3 3.4 1.1.9 4.7.7 5.9-.9 5.9-.8 0-1.5-.7-1.5-1.5m-8-2.4c0-1.7 1.8-3.1 4.1-3.1 1.6 0 1 3.8-.7 4.4-2.6 1-3.4.7-3.4-1.3M258.2 232c0-1.9.2-2.7.5-1.7.2.9.2 2.5 0 3.5-.3.9-.5.1-.5-1.8m112.1 1.3c.9-.2 2.5-.2 3.5 0 .9.3.1.5-1.8.5s-2.7-.2-1.7-.5m19.2-6.9c2.2-1.6 3.5-1.8 3.5-.5 0 .5-1.2 1.1-2.7 1.4-2.6.5-2.6.4-.8-.9M291 209.5c-.7-.8-.8-1.5-.2-1.5.5 0 1.5.7 2.2 1.5s.8 1.5.2 1.5c-.5 0-1.5-.7-2.2-1.5m15-.9c0-.2.7-.9 1.5-1.6 1.2-1 1.5-1 1.5.4 0 .9-.7 1.6-1.5 1.6s-1.5-.2-1.5-.4m4-1.1c0-.9.6-1.2 1.5-.9.8.4 1.5 1 1.5 1.5s-.7.9-1.5.9-1.5-.7-1.5-1.5m27.6 0c.4-.8 1.3-1.5 2.1-1.5 1.2 0 1.2-.2-.1-1.5-.8-.8-2.4-1.5-3.5-1.5-4.6 0-5.4-7.1-1.5-13 2.3-3.4 2.5-4.5 1.9-9-.4-2.7-1.1-5-1.6-5-1.8 0-.8-2.6 2.2-5.7 2.3-2.5 3.9-3.3 6.7-3.4 6.5-.2 9.7.3 10.1 1.4 1.1 2.9 5.2 5.7 8.6 5.7 1.9 0 3.5.5 3.5 1.1 0 .5.4.7 1 .4 1-.6 3.1.3 6.3 2.9 1.5 1.2 1.7 1.8.7 3.6-.9 1.6-.8 2.5.1 3.8 1.1 1.4 1.1 1.5-.1.5-2.1-1.9-2.8-1.6-4.4 1.6-1.7 3.2-.7 5 2.9 5.2 1.3.1 1 .4-1 .8-2.3.5-3 1.2-3.1 3.1-.3 5.5-4.1 11-8.1 11.6-.9.2-.9-.4-.1-2.2.8-1.7.8-2.7-.2-3.9-1.9-2.3-3.8-1.8-8.3 2-2.2 1.9-4.3 3.1-4.6 2.7-.3-.5-1.4-1.1-2.4-1.5-1.5-.6-1.7-.3-1.2 1.3.6 1.7.2 2-2.9 2-2.7 0-3.4-.3-3-1.5m-21.9-.9c-.3-.8-1.8-1.6-3.2-1.8l-2.7-.3 3.3-1.9c2.9-1.7 3.2-1.7 2.6-.2-.4.9-.3 1.5.1 1.2.4-.2 1.4-.1 2.2.4 1.3.8 1.3 1.1-.1 2.5-1.4 1.5-1.7 1.5-2.2.1m5.4-5.8c0-1-.5-1.8-1.1-1.8-.5 0-1-1.1-1-2.5 0-2.7 1.7-3.4 2.6-1.1.3.8.4 2.7.1 4.3-.2 1.5-.5 2-.6 1.1m-46.1-7.2c0-.2 1.4-.6 3-.8 1.7-.3 3-.1 3 .4 0 .4-1.3.8-3 .8-1.6 0-3-.2-3-.4m-4.5-15.2c.8-.9 2.2-1.3 3-1 2.6 1 1.6 2.6-1.6 2.6-2.8 0-2.9-.1-1.4-1.6m-14.5.2c0-.2 1.1-.6 2.5-.8 1.4-.3 2.5-.1 2.5.3 0 .5-1.1.9-2.5.9s-2.5-.2-2.5-.4m128-.5c0-1.7 1.4-1.8 5.5-.5l4 1.2-4.7.1c-2.7.1-4.8-.3-4.8-.8m-64-1.9c0-.4 2.5-.8 5.5-.8 3 .1 5.5.4 5.5.9 0 .4-2.5.7-5.5.7s-5.5-.4-5.5-.8m-50-1.1c0-.5 1.1-1.6 2.5-2.5 1.3-.9 2.2-2.2 1.9-3-1-2.5 2.3-2.6 3.5 0 .9 1.9.8 2.4-.4 2.4-.8 0-1.5.9-1.5 2 0 1.6-.7 2-3 2-1.6 0-3-.4-3-.9m131-9.1c0-.5.4-1 .9-1s1.2-1.2 1.4-2.7c.3-2.3.4-2.1.6 1 .1 2.7-.3 3.7-1.4 3.7-.8 0-1.5-.4-1.5-1m-6-33c0-1.1-.4-2-1-2-.5 0-1-.4-1-1 0-.5.7-1 1.5-1q1.5 0 1.5 3c0 1.7-.2 3-.5 3s-.5-.9-.5-2"/><g fill="#fff"><path d="M292 398.5c-.9-1.1-1.3-10-1.3-36.2v-34.6l2.3-1.9c2.1-1.7 4.4-1.8 34.3-1.8 31.4.1 35 .4 36.9 3.4.4.6.8 16.3.8 34.9 0 32.4-.1 33.8-2 35.7s-3.3 2-35.9 2c-28.9 0-34-.2-35.1-1.5m25.5-15v-9l-4-.3c-2.2-.2-6.4-.1-9.2.3l-5.3.6v18l9.3-.3 9.2-.3zm20.5 7c0-.9.8-1.8 1.8-2.1 7.2-2.3 7.2-2.4 7.2-7.5 0-4.2-.3-4.9-2-4.9s-2 .7-2 3.9c0 4 0 4-4.2 4.3-3.5.2-4.2.6-4 2.1.2 1.2-.4 2.1-1.7 2.4-3.5.9-2.5 3.3 1.4 3.3 2.5 0 3.5-.4 3.5-1.5m12-.5c0-1.3-.7-2-2-2s-2 .7-2 2 .7 2 2 2 2-.7 2-2m-23.7-4.7c-.3-.7-1.4-1.3-2.4-1.3-1.3 0-1.9.7-1.9 2.4 0 2.2.2 2.3 2.4 1.3 1.3-.6 2.1-1.7 1.9-2.4m29.7 2.2c0-.9-.9-1.5-2.5-1.5-2.6 0-3.4 1.5-1.2 2.3 2.3 1 3.7.7 3.7-.8m.3-5.9c.8-1.9-.1-2.6-3.4-2.6-2.5 0-2.9.7-2 3.8.3.9 5-.1 5.4-1.2m-27.5-1.5c.3-.8-.3-1.1-1.4-.9-1.4.2-2-.4-2.2-2.2-.7-6.6-.8-6.7-7-7.4-7-.8-9.2-2.9-9.2-8.6 0-2.2-.3-4-.8-4-.7 0-4.5 6.9-5.6 10.3-.3.9-1.2 1.7-2.1 1.7-.8 0-1.5.5-1.5 1 0 .6 1.5 1 3.4 1 3 0 3.4-.4 4.1-3.2l.7-3.3 1.2 3.5c1.2 3.3 1.5 3.5 6.7 3.8 5.9.4 6.9 1.2 6.9 5.9 0 2.5.5 3.3 2.3 3.6 3 .6 4 .3 4.5-1.2m11.2-.5c0-.8-1-1.6-2.2-1.8-1.9-.2-2.4-1-2.6-4.5l-.3-4.3h4.5c2.6 0 4.6.5 5 1.3.3.8 1.1.5 2.4-1 2.5-2.9 2.8-2.9 3.6.2.4 1.7 1.3 2.5 2.9 2.5 2 0 2.2-.5 2.2-4s-.2-4-2-3.8c-1.5.2-2.1-.3-2.3-2.4-.3-2.3.1-2.7 2.5-3 1.7-.2 2.9-1 3.1-2 .3-1.5-.4-1.8-4.7-1.8-4.7 0-5.1.2-5.1 2.4 0 1.4-.4 3.6-1 5-.8 2.3-1.5 2.6-5.9 2.6-5.4 0-10.1-1.4-10.1-3 0-.5 1.6-1 3.5-1 2.2 0 3.8-.6 4.1-1.5.4-.8 1.2-1.5 2-1.5s1.4-.7 1.4-1.6c0-1.1-.8-1.5-2.7-1.2-2.6.3-2.8 0-3.1-3.4-.4-4.3-1.8-4.9-3.2-1.5-.8 2.1-.9 2-.9-.7-.1-3.6-3.6-7.6-6.8-7.6-1.6 0-2.3.6-2.3 2 0 1.1.5 2 1 2 2.5 0 4.8 3.8 5.5 8.8.7 5.2.6 5.4-1.6 5-2.1-.3-2.4-.9-2.7-5.6-.2-3.6-.7-5.2-1.5-4.9-.7.2-1.2 1.7-1.2 3.3 0 2.8-.2 2.9-5.3 3.2-7.2.4-6.3 2.4 1.6 3.6 5 .8 6.2 1.3 6.2 2.8 0 1.4-.8 1.8-4 1.8-2.9 0-4-.4-4-1.5 0-.8-.7-1.5-1.5-1.5s-1.5.7-1.5 1.5.6 1.5 1.4 1.5 1.6.7 2 1.5c.7 2 7.5 2 10.3 0 1.5-1.1 2.4-1.2 2.9-.4.3.6.1 1.5-.5 1.9-1.5.9-1.1 10.6.4 10.4.6-.1 1.6.7 2.3 1.7 1.6 2.3 8.2 2.7 8.2.5M304 358c0-1.5-.7-2-2.5-2-3.2 0-3.4 2.7-.2 3.3 1.2.2 2.3.5 2.5.6.1 0 .2-.8.2-1.9m14-14.8c0-4.9-.2-9.1-.4-9.3s-4.5-.3-9.5-.1l-9.1.3V352h19zm39 0c0-4.9-.2-9.1-.4-9.3s-4.3-.3-9-.1l-8.6.3V352h18zm-22.2-6c.4-3.6-.4-4.1-2.4-1.4-1.2 1.6-1.4 1.6-2.8-.3-1.5-1.9-1.5-1.9-1.6-.1 0 2.5 2.9 5.8 4.9 5.4 1-.2 1.7-1.6 1.9-3.6m-9.8-.7c0-1.6-.6-2.5-1.5-2.5s-1.5.9-1.5 2.5.6 2.5 1.5 2.5 1.5-.9 1.5-2.5"/><path d="M302 383.5v-6.6l6.2.3c7.1.3 7.5.8 6.3 8.4l-.6 4.4H302zm9 .5c0-2.7-.3-3-3-3s-3 .3-3 3 .3 3 3 3 3-.3 3-3m-9-41.5v-6.6l6.3.3 6.2.3.3 6.3.3 6.2H302zm9 .5c0-2.7-.3-3-3-3s-3 .3-3 3 .3 3 3 3 3-.3 3-3m31 .2v-5.9l5.2-.6c2.9-.4 5.6-.3 6.1.2.4.4.7 3.2.5 6.2l-.3 5.4-5.7.3-5.8.3zm8.8-.4c.3-2.5 0-2.8-2.7-2.8-2.8 0-3.1.3-3.1 3.1 0 2.7.3 3 2.8 2.7 2.1-.2 2.8-.9 3-3m-273 51.1c-1.7-.9-1.8-3.8-1.8-38.2 0-27.7.3-37.6 1.2-38.5s10.5-1.2 37-1.2c34.3 0 35.8.1 36.8 1.9.6 1.3 1 15 1 37.9 0 33.5-.1 36-1.8 37.5s-5.6 1.7-36.3 1.7c-21.5 0-35.1-.4-36.1-1.1m26.5-8.6c.2-.5.2-4.8-.1-9.6l-.5-8.8-9.6.4-9.6.4-.3 9.2-.3 9.1h10c5.5 0 10.2-.3 10.4-.7M125 384c.6-1.1 1.8-2 2.8-2 5.4-.1 9-8.4 5.7-13.4-2.4-3.6-3.7-2.3-3.4 3.2.3 4.6.3 4.6-3.2 5.4-4 .8-10.4 6.2-9.4 7.8 1.1 1.8 6.4 1.1 7.5-1m12 .1c0-1-.7-2.1-1.5-2.5-1.1-.4-1.5.1-1.5 1.9 0 1.6.6 2.5 1.5 2.5.8 0 1.5-.9 1.5-1.9m-27-2.1c0-.5.9-1 2.1-1 3.2 0 2-3.4-1.4-3.8-2.4-.3-2.7 0-2.7 2.7 0 1.7.5 3.1 1 3.1.6 0 1-.4 1-1m34-1.5q0-1.5-3-1.5t-3 1.5 3 1.5 3-1.5m0-6.4c0-1.3-.9-2-3-2.3-2.6-.4-3-.1-3 1.9 0 1.9.5 2.3 3 2.3 2.3 0 3-.5 3-1.9m-28-.1c0-.5-.7-1-1.5-1s-1.5.5-1.5 1c0 .6.7 1 1.5 1s1.5-.4 1.5-1m-4.9-5.6c-.1-2.7-.5-5.2-.7-5.6-.3-.5-3-.8-6-.8-3.9 0-5.6-.4-6-1.5-1.1-2.7-3.6-1.7-3.2 1.3.3 2.6.6 2.7 6.6 3l6.2.3v3.8c0 4 .7 5.4 2.4 4.8.6-.2.9-2.5.7-5.3m15.7 3.9c-.2-1-1.3-1.9-2.6-2.1-1.8-.3-2.2-1-2.2-4.3 0-3.1.4-3.9 1.8-3.9 1 0 2.3-.5 2.8-1 .8-.8 1.5-.6 2.4.5 1.9 2.3 4.8 1.8 6.4-1.2 1.5-2.9 2.1-2.4 2.8 2.2.2 1.2 1.2 2.1 2.7 2.3 2.1.3 2.3 0 1.9-2.2-.3-1.5-.1-2.9.4-3.2 1.3-.8-.1-2.4-2.3-2.4-1.5 0-1.9-.7-1.9-3.5 0-3.1.3-3.5 2.5-3.5 1.6 0 2.5-.6 2.5-1.5 0-1.1-1.2-1.5-5-1.5-5 0-5 0-5 3.3-.1 1.7-.9 4.2-2 5.5-1.8 2.1-2.2 2.2-8.2 1.3-4.5-.8-6.7-1.6-7.7-3.1-.7-1.1-2.3-2-3.6-2-2 0-2.1-.4-1.7-5.5.4-4.5.2-5.5-1.1-5.5-1 0-1.7 1.1-1.9 3.3-.3 3.1-.5 3.2-5 3.5-3.4.2-4.8.7-4.8 1.8 0 .7.8 1.4 1.9 1.4 1 0 2.4.7 3.1 1.5s2.3 1.5 3.7 1.5c1.3 0 2.6.6 2.9 1.4s1.6 1.7 3 2c2.2.6 2.4 1.1 2.4 6.3 0 5 .3 6 2.8 8 3.4 2.8 9.5 3.2 9 .6M92 361.6c0-1.3.7-2.9 1.6-3.6 1.7-1.5 1.6-7.1-.3-7.7-.6-.2-1.4 1-1.8 2.6-.4 1.7-1.1 3.1-1.6 3.1s-1.1 1.1-1.5 2.5c-.3 1.4-1.2 2.5-2 2.5-2.6 0-1.4 2.9 1.4 3.2 3.6.5 4.2.1 4.2-2.6m17-3.6c0-.5-1.3-1-3-1q-3 0-3-1.5c0-.8-.9-1.5-2-1.5s-2 .7-2 1.5.9 1.5 2 1.5 2 .5 2 1c0 .6 1.4 1 3 1 1.7 0 3-.4 3-1m15.8-6c.7-1.1 1.9-2 2.8-2 2.9 0 .8-2.5-2.4-2.8-2.8-.3-3.2-.7-3.2-3.2 0-4.1-1.6-4.6-2.6-.7l-.8 3.2-.4-4c-.4-4.9-3.7-8.7-7.1-8.3-2.5.3-4.3 2.8-2.1 2.8 2.6 0 6 4.5 6 8 0 2.4.8 4.4 2.5 6.3 3 3.2 5.5 3.5 7.3.7M90 350c0-1.5-.7-2-2.5-2s-2.5.5-2.5 2 .7 2 2.5 2 2.5-.5 2.5-2m14-15.2V325H84v20.1l10-.3 10-.3zm40-.3V325h-18.6l-.1 9.5-.1 9.5H144zm-22.2-5.8c.3-4-1.6-5.3-2.5-1.7-.7 2.5-1.9 2.6-2.7.3-.6-1.5-.8-1.5-1.6-.3-.6 1-.2 2.2 1.3 3.8 3 3.2 5.1 2.5 5.5-2.1m-10.8-1.2c0-1.6-.6-2.5-1.5-2.5s-1.5.9-1.5 2.5.6 2.5 1.5 2.5 1.5-.9 1.5-2.5"/><path d="M88 377v-6h13v12H88zm10 .5c0-3.3-.2-3.5-3.5-3.5s-3.5.2-3.5 3.5.2 3.5 3.5 3.5 3.5-.2 3.5-3.5m-10-43V328h13v13H88zm9 .5c0-2.7-.3-3-3-3s-3 .3-3 3 .3 3 3 3 3-.3 3-3m32.7 5.3c-.4-.3-.7-3.3-.7-6.5V328h12v13h-5.3c-3 0-5.7-.3-6-.7m8.3-5.3c0-2.7-.3-3-3-3s-3 .3-3 3 .3 3 3 3 3-.3 3-3m183.9-29.5c-5.5-3-6.2-11.6-1.2-15.5 9.4-7.4 20.8 5.7 12.4 14.1-3.3 3.2-7 3.7-11.2 1.4"/></g></svg>